{
	"asset":{
		"generator":"Khronos glTF Blender I/O v3.6.27",
		"version":"2.0"
	},
	"scene":0,
	"scenes":[
		{
			"name":"Scene",
			"nodes":[
				0,
				1,
				2,
				3,
				4,
				5,
				6,
				7
			]
		}
	],
	"nodes":[
		{
			"mesh":0,
			"name":"\u0421\u0444\u0435\u0440\u0430",
			"rotation":[
				-0.052292946726083755,
				0,
				0,
				0.9986318945884705
			],
			"scale":[
				9.85476016998291,
				11.455729484558105,
				11.455729484558105
			],
			"translation":[
				0,
				4.54172945022583,
				-11.496993064880371
			]
		},
		{
			"mesh":1,
			"name":"\u0426\u0438\u043b\u0438\u043d\u0434\u0440",
			"rotation":[
				-0.03528207913041115,
				0,
				0,
				0.999377429485321
			],
			"scale":[
				10.361910820007324,
				1.405650019645691,
				9.98125171661377
			],
			"translation":[
				0,
				7.543431282043457,
				-14.010536193847656
			]
		},
		{
			"mesh":2,
			"name":"\u041a\u0443\u0431",
			"rotation":[
				1,
				0,
				0,
				0
			],
			"scale":[
				-1.1041234731674194,
				-1.5991230010986328,
				-1.5991230010986328
			],
			"translation":[
				7.728050231933594,
				8.972882270812988,
				-16.1984920501709
			]
		},
		{
			"mesh":3,
			"name":"\u041a\u0443\u0431.001",
			"scale":[
				1.1041234731674194,
				1.5991230010986328,
				1.5991230010986328
			],
			"translation":[
				-7.812587738037109,
				8.972882270812988,
				-16.1984920501709
			]
		},
		{
			"mesh":4,
			"name":"\u041a\u0443\u0431.002",
			"rotation":[
				-0.20034994184970856,
				0,
				0,
				0.9797244071960449
			],
			"scale":[
				2.495783805847168,
				1.8231319189071655,
				1.118921160697937
			],
			"translation":[
				0,
				9.705653190612793,
				-2.3927409648895264
			]
		},
		{
			"mesh":5,
			"name":"\u0426\u0438\u043b\u0438\u043d\u0434\u0440.001",
			"rotation":[
				-0.02494819276034832,
				0.024948187172412872,
				-0.7066665291786194,
				0.7066665887832642
			],
			"scale":[
				5.05309534072876,
				0.4787258803844452,
				7.677134990692139
			],
			"translation":[
				-5.230175018310547,
				9.917106628417969,
				-11.215620040893555
			]
		},
		{
			"mesh":6,
			"name":"\u0426\u0438\u043b\u0438\u043d\u0434\u0440.002",
			"rotation":[
				0.7059317231178284,
				0.7059317231178284,
				0.04074805602431297,
				0.040748048573732376
			],
			"scale":[
				-5.05309534072876,
				-0.4787258803844452,
				-7.677134037017822
			],
			"translation":[
				5.341805458068848,
				9.917106628417969,
				-11.215620040893555
			]
		},
		{
			"mesh":7,
			"name":"\u041a\u0443\u0431.003",
			"rotation":[
				-0.2595118582248688,
				0,
				0,
				0.9657400250434875
			],
			"scale":[
				-0.30073726177215576,
				-0.30073729157447815,
				-0.30073729157447815
			],
			"translation":[
				-9.139481544494629,
				2.9642672538757324,
				-12.245567321777344
			]
		}
	],
	"materials":[
		{
			"doubleSided":true,
			"name":"\u041c\u0430\u0442\u0435\u0440\u0438\u0430\u043b.039",
			"pbrMetallicRoughness":{
				"baseColorFactor":[
					0.030506614595651627,
					0.0699777901172638,
					0.017856812104582787,
					1
				],
				"metallicFactor":0,
				"roughnessFactor":0.5
			}
		},
		{
			"doubleSided":true,
			"name":"\u041c\u0430\u0442\u0435\u0440\u0438\u0430\u043b.002",
			"pbrMetallicRoughness":{
				"baseColorFactor":[
					0.018848532810807228,
					0.018848532810807228,
					0.018848532810807228,
					1
				],
				"metallicFactor":0,
				"roughnessFactor":0.5
			}
		},
		{
			"doubleSided":true,
			"name":"\u041c\u0430\u0442\u0435\u0440\u0438\u0430\u043b.040",
			"pbrMetallicRoughness":{
				"baseColorFactor":[
					0.030506614595651627,
					0.0699777901172638,
					0.017856812104582787,
					1
				],
				"metallicFactor":0,
				"roughnessFactor":0.5
			}
		},
		{
			"doubleSided":true,
			"name":"\u041c\u0430\u0442\u0435\u0440\u0438\u0430\u043b.041",
			"pbrMetallicRoughness":{
				"baseColorFactor":[
					0.030506614595651627,
					0.0699777901172638,
					0.017856812104582787,
					1
				],
				"metallicFactor":0,
				"roughnessFactor":0.5
			}
		},
		{
			"doubleSided":true,
			"name":"\u041c\u0430\u0442\u0435\u0440\u0438\u0430\u043b.042",
			"pbrMetallicRoughness":{
				"baseColorFactor":[
					0.018848532810807228,
					0.018848532810807228,
					0.018848532810807228,
					1
				],
				"metallicFactor":0,
				"roughnessFactor":0.5
			}
		},
		{
			"doubleSided":true,
			"name":"\u041c\u0430\u0442\u0435\u0440\u0438\u0430\u043b.043",
			"pbrMetallicRoughness":{
				"baseColorFactor":[
					0.030506614595651627,
					0.0699777901172638,
					0.017856812104582787,
					1
				],
				"metallicFactor":0,
				"roughnessFactor":0.5
			}
		},
		{
			"doubleSided":true,
			"name":"\u041c\u0430\u0442\u0435\u0440\u0438\u0430\u043b.044",
			"pbrMetallicRoughness":{
				"baseColorFactor":[
					0.030506614595651627,
					0.0699777901172638,
					0.017856812104582787,
					1
				],
				"metallicFactor":0,
				"roughnessFactor":0.5
			}
		}
	],
	"meshes":[
		{
			"name":"\u0421\u0444\u0435\u0440\u0430.003",
			"primitives":[
				{
					"attributes":{
						"POSITION":0,
						"NORMAL":1,
						"TEXCOORD_0":2
					},
					"indices":3,
					"material":0
				},
				{
					"attributes":{
						"POSITION":4,
						"NORMAL":5,
						"TEXCOORD_0":6
					},
					"indices":7,
					"material":1
				}
			]
		},
		{
			"name":"\u0426\u0438\u043b\u0438\u043d\u0434\u0440.006",
			"primitives":[
				{
					"attributes":{
						"POSITION":8,
						"NORMAL":9,
						"TEXCOORD_0":10
					},
					"indices":11,
					"material":2
				}
			]
		},
		{
			"name":"\u041a\u0443\u0431.019",
			"primitives":[
				{
					"attributes":{
						"POSITION":12,
						"NORMAL":13,
						"TEXCOORD_0":14
					},
					"indices":15,
					"material":0
				},
				{
					"attributes":{
						"POSITION":16,
						"NORMAL":17,
						"TEXCOORD_0":18
					},
					"indices":19,
					"material":1
				}
			]
		},
		{
			"name":"\u041a\u0443\u0431.020",
			"primitives":[
				{
					"attributes":{
						"POSITION":20,
						"NORMAL":21,
						"TEXCOORD_0":22
					},
					"indices":15,
					"material":3
				},
				{
					"attributes":{
						"POSITION":23,
						"NORMAL":24,
						"TEXCOORD_0":25
					},
					"indices":19,
					"material":4
				}
			]
		},
		{
			"name":"\u041a\u0443\u0431.021",
			"primitives":[
				{
					"attributes":{
						"POSITION":26,
						"NORMAL":27,
						"TEXCOORD_0":28
					},
					"indices":29,
					"material":2
				}
			]
		},
		{
			"name":"\u0426\u0438\u043b\u0438\u043d\u0434\u0440.007",
			"primitives":[
				{
					"attributes":{
						"POSITION":30,
						"NORMAL":31,
						"TEXCOORD_0":32
					},
					"indices":33,
					"material":5
				}
			]
		},
		{
			"name":"\u0426\u0438\u043b\u0438\u043d\u0434\u0440.008",
			"primitives":[
				{
					"attributes":{
						"POSITION":34,
						"NORMAL":35,
						"TEXCOORD_0":36
					},
					"indices":37,
					"material":6
				}
			]
		},
		{
			"name":"\u041a\u0443\u0431.022",
			"primitives":[
				{
					"attributes":{
						"POSITION":38,
						"NORMAL":39,
						"TEXCOORD_0":40
					},
					"indices":41,
					"material":1
				}
			]
		}
	],
	"accessors":[
		{
			"bufferView":0,
			"componentType":5126,
			"count":1361,
			"max":[
				0.995597243309021,
				1,
				0.9955971837043762
			],
			"min":[
				-0.9955969452857971,
				-0.19762006402015686,
				-0.9955971837043762
			],
			"type":"VEC3"
		},
		{
			"bufferView":1,
			"componentType":5126,
			"count":1361,
			"type":"VEC3"
		},
		{
			"bufferView":2,
			"componentType":5126,
			"count":1361,
			"type":"VEC2"
		},
		{
			"bufferView":3,
			"componentType":5123,
			"count":7476,
			"type":"SCALAR"
		},
		{
			"bufferView":4,
			"componentType":5126,
			"count":64,
			"max":[
				0.8437381982803345,
				0.13137935101985931,
				0.8437378406524658
			],
			"min":[
				-0.8437379598617554,
				0.13137929141521454,
				-0.843737781047821
			],
			"type":"VEC3"
		},
		{
			"bufferView":5,
			"componentType":5126,
			"count":64,
			"type":"VEC3"
		},
		{
			"bufferView":6,
			"componentType":5126,
			"count":64,
			"type":"VEC2"
		},
		{
			"bufferView":7,
			"componentType":5123,
			"count":186,
			"type":"SCALAR"
		},
		{
			"bufferView":8,
			"componentType":5126,
			"count":258,
			"max":[
				1,
				1,
				1
			],
			"min":[
				-1,
				-1,
				-1
			],
			"type":"VEC3"
		},
		{
			"bufferView":9,
			"componentType":5126,
			"count":258,
			"type":"VEC3"
		},
		{
			"bufferView":10,
			"componentType":5126,
			"count":258,
			"type":"VEC2"
		},
		{
			"bufferView":11,
			"componentType":5123,
			"count":756,
			"type":"SCALAR"
		},
		{
			"bufferView":12,
			"componentType":5126,
			"count":274,
			"max":[
				1,
				2.103916883468628,
				5.708222389221191
			],
			"min":[
				-1,
				-1.106240153312683,
				-1
			],
			"type":"VEC3"
		},
		{
			"bufferView":13,
			"componentType":5126,
			"count":274,
			"type":"VEC3"
		},
		{
			"bufferView":14,
			"componentType":5126,
			"count":274,
			"type":"VEC2"
		},
		{
			"bufferView":15,
			"componentType":5123,
			"count":732,
			"type":"SCALAR"
		},
		{
			"bufferView":16,
			"componentType":5126,
			"count":18,
			"max":[
				-0.44582539796829224,
				1.861863374710083,
				5.191692352294922
			],
			"min":[
				-0.44582539796829224,
				-0.2372003197669983,
				-0.4158966541290283
			],
			"type":"VEC3"
		},
		{
			"bufferView":17,
			"componentType":5126,
			"count":18,
			"type":"VEC3"
		},
		{
			"bufferView":18,
			"componentType":5126,
			"count":18,
			"type":"VEC2"
		},
		{
			"bufferView":19,
			"componentType":5123,
			"count":48,
			"type":"SCALAR"
		},
		{
			"bufferView":20,
			"componentType":5126,
			"count":274,
			"max":[
				1,
				2.103916883468628,
				5.708222389221191
			],
			"min":[
				-1,
				-1.106240153312683,
				-1
			],
			"type":"VEC3"
		},
		{
			"bufferView":21,
			"componentType":5126,
			"count":274,
			"type":"VEC3"
		},
		{
			"bufferView":22,
			"componentType":5126,
			"count":274,
			"type":"VEC2"
		},
		{
			"bufferView":23,
			"componentType":5126,
			"count":18,
			"max":[
				-0.44582539796829224,
				1.861863374710083,
				5.191692352294922
			],
			"min":[
				-0.44582539796829224,
				-0.2372003197669983,
				-0.4158966541290283
			],
			"type":"VEC3"
		},
		{
			"bufferView":24,
			"componentType":5126,
			"count":18,
			"type":"VEC3"
		},
		{
			"bufferView":25,
			"componentType":5126,
			"count":18,
			"type":"VEC2"
		},
		{
			"bufferView":26,
			"componentType":5126,
			"count":52,
			"max":[
				1,
				1,
				1.0000001192092896
			],
			"min":[
				-1,
				-1,
				-1
			],
			"type":"VEC3"
		},
		{
			"bufferView":27,
			"componentType":5126,
			"count":52,
			"type":"VEC3"
		},
		{
			"bufferView":28,
			"componentType":5126,
			"count":52,
			"type":"VEC2"
		},
		{
			"bufferView":29,
			"componentType":5123,
			"count":84,
			"type":"SCALAR"
		},
		{
			"bufferView":30,
			"componentType":5126,
			"count":266,
			"max":[
				0.7071067690849304,
				1.000000238418579,
				1
			],
			"min":[
				-1,
				-1,
				-1
			],
			"type":"VEC3"
		},
		{
			"bufferView":31,
			"componentType":5126,
			"count":266,
			"type":"VEC3"
		},
		{
			"bufferView":32,
			"componentType":5126,
			"count":266,
			"type":"VEC2"
		},
		{
			"bufferView":33,
			"componentType":5123,
			"count":756,
			"type":"SCALAR"
		},
		{
			"bufferView":34,
			"componentType":5126,
			"count":266,
			"max":[
				0.7071067690849304,
				1,
				1
			],
			"min":[
				-1,
				-1.000000238418579,
				-1
			],
			"type":"VEC3"
		},
		{
			"bufferView":35,
			"componentType":5126,
			"count":266,
			"type":"VEC3"
		},
		{
			"bufferView":36,
			"componentType":5126,
			"count":266,
			"type":"VEC2"
		},
		{
			"bufferView":37,
			"componentType":5123,
			"count":756,
			"type":"SCALAR"
		},
		{
			"bufferView":38,
			"componentType":5126,
			"count":34,
			"max":[
				1,
				42.82388687133789,
				1
			],
			"min":[
				-17.23284912109375,
				-1,
				-16.301549911499023
			],
			"type":"VEC3"
		},
		{
			"bufferView":39,
			"componentType":5126,
			"count":34,
			"type":"VEC3"
		},
		{
			"bufferView":40,
			"componentType":5126,
			"count":34,
			"type":"VEC2"
		},
		{
			"bufferView":41,
			"componentType":5123,
			"count":132,
			"type":"SCALAR"
		}
	],
	"bufferViews":[
		{
			"buffer":0,
			"byteLength":16332,
			"byteOffset":0,
			"target":34962
		},
		{
			"buffer":0,
			"byteLength":16332,
			"byteOffset":16332,
			"target":34962
		},
		{
			"buffer":0,
			"byteLength":10888,
			"byteOffset":32664,
			"target":34962
		},
		{
			"buffer":0,
			"byteLength":14952,
			"byteOffset":43552,
			"target":34963
		},
		{
			"buffer":0,
			"byteLength":768,
			"byteOffset":58504,
			"target":34962
		},
		{
			"buffer":0,
			"byteLength":768,
			"byteOffset":59272,
			"target":34962
		},
		{
			"buffer":0,
			"byteLength":512,
			"byteOffset":60040,
			"target":34962
		},
		{
			"buffer":0,
			"byteLength":372,
			"byteOffset":60552,
			"target":34963
		},
		{
			"buffer":0,
			"byteLength":3096,
			"byteOffset":60924,
			"target":34962
		},
		{
			"buffer":0,
			"byteLength":3096,
			"byteOffset":64020,
			"target":34962
		},
		{
			"buffer":0,
			"byteLength":2064,
			"byteOffset":67116,
			"target":34962
		},
		{
			"buffer":0,
			"byteLength":1512,
			"byteOffset":69180,
			"target":34963
		},
		{
			"buffer":0,
			"byteLength":3288,
			"byteOffset":70692,
			"target":34962
		},
		{
			"buffer":0,
			"byteLength":3288,
			"byteOffset":73980,
			"target":34962
		},
		{
			"buffer":0,
			"byteLength":2192,
			"byteOffset":77268,
			"target":34962
		},
		{
			"buffer":0,
			"byteLength":1464,
			"byteOffset":79460,
			"target":34963
		},
		{
			"buffer":0,
			"byteLength":216,
			"byteOffset":80924,
			"target":34962
		},
		{
			"buffer":0,
			"byteLength":216,
			"byteOffset":81140,
			"target":34962
		},
		{
			"buffer":0,
			"byteLength":144,
			"byteOffset":81356,
			"target":34962
		},
		{
			"buffer":0,
			"byteLength":96,
			"byteOffset":81500,
			"target":34963
		},
		{
			"buffer":0,
			"byteLength":3288,
			"byteOffset":81596,
			"target":34962
		},
		{
			"buffer":0,
			"byteLength":3288,
			"byteOffset":84884,
			"target":34962
		},
		{
			"buffer":0,
			"byteLength":2192,
			"byteOffset":88172,
			"target":34962
		},
		{
			"buffer":0,
			"byteLength":216,
			"byteOffset":90364,
			"target":34962
		},
		{
			"buffer":0,
			"byteLength":216,
			"byteOffset":90580,
			"target":34962
		},
		{
			"buffer":0,
			"byteLength":144,
			"byteOffset":90796,
			"target":34962
		},
		{
			"buffer":0,
			"byteLength":624,
			"byteOffset":90940,
			"target":34962
		},
		{
			"buffer":0,
			"byteLength":624,
			"byteOffset":91564,
			"target":34962
		},
		{
			"buffer":0,
			"byteLength":416,
			"byteOffset":92188,
			"target":34962
		},
		{
			"buffer":0,
			"byteLength":168,
			"byteOffset":92604,
			"target":34963
		},
		{
			"buffer":0,
			"byteLength":3192,
			"byteOffset":92772,
			"target":34962
		},
		{
			"buffer":0,
			"byteLength":3192,
			"byteOffset":95964,
			"target":34962
		},
		{
			"buffer":0,
			"byteLength":2128,
			"byteOffset":99156,
			"target":34962
		},
		{
			"buffer":0,
			"byteLength":1512,
			"byteOffset":101284,
			"target":34963
		},
		{
			"buffer":0,
			"byteLength":3192,
			"byteOffset":102796,
			"target":34962
		},
		{
			"buffer":0,
			"byteLength":3192,
			"byteOffset":105988,
			"target":34962
		},
		{
			"buffer":0,
			"byteLength":2128,
			"byteOffset":109180,
			"target":34962
		},
		{
			"buffer":0,
			"byteLength":1512,
			"byteOffset":111308,
			"target":34963
		},
		{
			"buffer":0,
			"byteLength":408,
			"byteOffset":112820,
			"target":34962
		},
		{
			"buffer":0,
			"byteLength":408,
			"byteOffset":113228,
			"target":34962
		},
		{
			"buffer":0,
			"byteLength":272,
			"byteOffset":113636,
			"target":34962
		},
		{
			"buffer":0,
			"byteLength":264,
			"byteOffset":113908,
			"target":34963
		}
	],
	"buffers":[
		{
			"byteLength":114172,
			"uri":"data:application/octet-stream;base64,"
		}
	]
}
