{
	"asset":{
		"generator":"Khronos glTF Blender I/O v3.6.27",
		"version":"2.0"
	},
	"scene":0,
	"scenes":[
		{
			"name":"Scene",
			"nodes":[
				0,
				1
			]
		}
	],
	"nodes":[
		{
			"mesh":0,
			"name":"\u0426\u0438\u043b\u0438\u043d\u0434\u0440.001",
			"rotation":[
				0.47102388739585876,
				0,
				0,
				0.8821205496788025
			],
			"scale":[
				1,
				3.7983880043029785,
				1
			],
			"translation":[
				2.332820415496826,
				0.4814929962158203,
				-2.6792259216308594
			]
		},
		{
			"mesh":1,
			"name":"\u041a\u0443\u0431",
			"scale":[
				3.1280581951141357,
				0.9216770529747009,
				0.23573149740695953
			],
			"translation":[
				0.5124646425247192,
				-2.6174092292785645,
				-2.6792259216308594
			]
		}
	],
	"animations":[
		{
			"channels":[
				{
					"sampler":0,
					"target":{
						"node":0,
						"path":"rotation"
					}
				}
			],
			"name":"\u0426\u0438\u043b\u0438\u043d\u0434\u0440.001Action.002",
			"samplers":[
				{
					"input":22,
					"interpolation":"LINEAR",
					"output":23
				}
			]
		}
	],
	"materials":[
		{
			"doubleSided":true,
			"name":"\u041c\u0430\u0442\u0435\u0440\u0438\u0430\u043b.045",
			"pbrMetallicRoughness":{
				"baseColorFactor":[
					0.012028592638671398,
					0.05221778154373169,
					0.0044419956393539906,
					1
				],
				"metallicFactor":0,
				"roughnessFactor":0.5
			}
		},
		{
			"doubleSided":true,
			"name":"SVGMat.020",
			"pbrMetallicRoughness":{
				"baseColorFactor":[
					0,
					0,
					0,
					1
				],
				"metallicFactor":0,
				"roughnessFactor":0.4000000059604645
			}
		},
		{
			"doubleSided":true,
			"name":"\u041c\u0430\u0442\u0435\u0440\u0438\u0430\u043b.044",
			"pbrMetallicRoughness":{
				"baseColorFactor":[
					0.012028592638671398,
					0.05221778154373169,
					0.0044419956393539906,
					1
				],
				"metallicFactor":0,
				"roughnessFactor":0.5
			}
		},
		{
			"doubleSided":true,
			"name":"SVGMat",
			"pbrMetallicRoughness":{
				"baseColorFactor":[
					0,
					0,
					0,
					1
				],
				"metallicFactor":0,
				"roughnessFactor":0.4000000059604645
			}
		},
		{
			"doubleSided":true,
			"name":"\u041c\u0430\u0442\u0435\u0440\u0438\u0430\u043b.046",
			"pbrMetallicRoughness":{
				"baseColorFactor":[
					0,
					0,
					0,
					1
				],
				"metallicFactor":0,
				"roughnessFactor":0.5
			}
		}
	],
	"meshes":[
		{
			"name":"\u0426\u0438\u043b\u0438\u043d\u0434\u0440.023",
			"primitives":[
				{
					"attributes":{
						"POSITION":0,
						"NORMAL":1,
						"TEXCOORD_0":2
					},
					"indices":3,
					"material":0
				},
				{
					"attributes":{
						"POSITION":4,
						"NORMAL":5,
						"TEXCOORD_0":6
					},
					"indices":7,
					"material":1
				},
				{
					"attributes":{
						"POSITION":8,
						"NORMAL":9,
						"TEXCOORD_0":10
					},
					"indices":3,
					"material":2
				},
				{
					"attributes":{
						"POSITION":11,
						"NORMAL":12,
						"TEXCOORD_0":13
					},
					"indices":7,
					"material":3
				}
			]
		},
		{
			"name":"\u041a\u0443\u0431.060",
			"primitives":[
				{
					"attributes":{
						"POSITION":14,
						"NORMAL":15,
						"TEXCOORD_0":16
					},
					"indices":17,
					"material":2
				},
				{
					"attributes":{
						"POSITION":18,
						"NORMAL":19,
						"TEXCOORD_0":20
					},
					"indices":21,
					"material":4
				}
			]
		}
	],
	"accessors":[
		{
			"bufferView":0,
			"componentType":5126,
			"count":164,
			"max":[
				1,
				2.1744766235351562,
				1
			],
			"min":[
				-1,
				-1,
				-1
			],
			"type":"VEC3"
		},
		{
			"bufferView":1,
			"componentType":5126,
			"count":164,
			"type":"VEC3"
		},
		{
			"bufferView":2,
			"componentType":5126,
			"count":164,
			"type":"VEC2"
		},
		{
			"bufferView":3,
			"componentType":5123,
			"count":474,
			"type":"SCALAR"
		},
		{
			"bufferView":4,
			"componentType":5126,
			"count":234,
			"max":[
				1.9612797498703003,
				1.087502121925354,
				1.9612796306610107
			],
			"min":[
				-1.9612797498703003,
				-1.7001519203186035,
				-1.9612796306610107
			],
			"type":"VEC3"
		},
		{
			"bufferView":5,
			"componentType":5126,
			"count":234,
			"type":"VEC3"
		},
		{
			"bufferView":6,
			"componentType":5126,
			"count":234,
			"type":"VEC2"
		},
		{
			"bufferView":7,
			"componentType":5123,
			"count":570,
			"type":"SCALAR"
		},
		{
			"bufferView":8,
			"componentType":5126,
			"count":164,
			"max":[
				-2.6108922958374023,
				2.1744766235351562,
				1
			],
			"min":[
				-4.610892295837402,
				-0.9999999403953552,
				-1.000000238418579
			],
			"type":"VEC3"
		},
		{
			"bufferView":9,
			"componentType":5126,
			"count":164,
			"type":"VEC3"
		},
		{
			"bufferView":10,
			"componentType":5126,
			"count":164,
			"type":"VEC2"
		},
		{
			"bufferView":11,
			"componentType":5126,
			"count":234,
			"max":[
				-1.649612545967102,
				1.0875022411346436,
				1.9612793922424316
			],
			"min":[
				-5.572172164916992,
				-1.7001519203186035,
				-1.9612799882888794
			],
			"type":"VEC3"
		},
		{
			"bufferView":12,
			"componentType":5126,
			"count":234,
			"type":"VEC3"
		},
		{
			"bufferView":13,
			"componentType":5126,
			"count":234,
			"type":"VEC2"
		},
		{
			"bufferView":14,
			"componentType":5126,
			"count":140,
			"max":[
				2.269338607788086,
				3.201467990875244,
				3.638711929321289
			],
			"min":[
				-2.269338369369507,
				-2.914409637451172,
				-3.638711929321289
			],
			"type":"VEC3"
		},
		{
			"bufferView":15,
			"componentType":5126,
			"count":140,
			"type":"VEC3"
		},
		{
			"bufferView":16,
			"componentType":5126,
			"count":140,
			"type":"VEC2"
		},
		{
			"bufferView":17,
			"componentType":5123,
			"count":282,
			"type":"SCALAR"
		},
		{
			"bufferView":18,
			"componentType":5126,
			"count":46,
			"max":[
				1.7123088836669922,
				3.201467990875244,
				3.638711929321289
			],
			"min":[
				-1.7123088836669922,
				-2.914409637451172,
				-2.6541426181793213
			],
			"type":"VEC3"
		},
		{
			"bufferView":19,
			"componentType":5126,
			"count":46,
			"type":"VEC3"
		},
		{
			"bufferView":20,
			"componentType":5126,
			"count":46,
			"type":"VEC2"
		},
		{
			"bufferView":21,
			"componentType":5123,
			"count":90,
			"type":"SCALAR"
		},
		{
			"bufferView":22,
			"componentType":5126,
			"count":101,
			"max":[
				4.166666666666667
			],
			"min":[
				0
			],
			"type":"SCALAR"
		},
		{
			"bufferView":23,
			"componentType":5126,
			"count":101,
			"type":"VEC4"
		}
	],
	"bufferViews":[
		{
			"buffer":0,
			"byteLength":1968,
			"byteOffset":0,
			"target":34962
		},
		{
			"buffer":0,
			"byteLength":1968,
			"byteOffset":1968,
			"target":34962
		},
		{
			"buffer":0,
			"byteLength":1312,
			"byteOffset":3936,
			"target":34962
		},
		{
			"buffer":0,
			"byteLength":948,
			"byteOffset":5248,
			"target":34963
		},
		{
			"buffer":0,
			"byteLength":2808,
			"byteOffset":6196,
			"target":34962
		},
		{
			"buffer":0,
			"byteLength":2808,
			"byteOffset":9004,
			"target":34962
		},
		{
			"buffer":0,
			"byteLength":1872,
			"byteOffset":11812,
			"target":34962
		},
		{
			"buffer":0,
			"byteLength":1140,
			"byteOffset":13684,
			"target":34963
		},
		{
			"buffer":0,
			"byteLength":1968,
			"byteOffset":14824,
			"target":34962
		},
		{
			"buffer":0,
			"byteLength":1968,
			"byteOffset":16792,
			"target":34962
		},
		{
			"buffer":0,
			"byteLength":1312,
			"byteOffset":18760,
			"target":34962
		},
		{
			"buffer":0,
			"byteLength":2808,
			"byteOffset":20072,
			"target":34962
		},
		{
			"buffer":0,
			"byteLength":2808,
			"byteOffset":22880,
			"target":34962
		},
		{
			"buffer":0,
			"byteLength":1872,
			"byteOffset":25688,
			"target":34962
		},
		{
			"buffer":0,
			"byteLength":1680,
			"byteOffset":27560,
			"target":34962
		},
		{
			"buffer":0,
			"byteLength":1680,
			"byteOffset":29240,
			"target":34962
		},
		{
			"buffer":0,
			"byteLength":1120,
			"byteOffset":30920,
			"target":34962
		},
		{
			"buffer":0,
			"byteLength":564,
			"byteOffset":32040,
			"target":34963
		},
		{
			"buffer":0,
			"byteLength":552,
			"byteOffset":32604,
			"target":34962
		},
		{
			"buffer":0,
			"byteLength":552,
			"byteOffset":33156,
			"target":34962
		},
		{
			"buffer":0,
			"byteLength":368,
			"byteOffset":33708,
			"target":34962
		},
		{
			"buffer":0,
			"byteLength":180,
			"byteOffset":34076,
			"target":34963
		},
		{
			"buffer":0,
			"byteLength":404,
			"byteOffset":34256
		},
		{
			"buffer":0,
			"byteLength":1616,
			"byteOffset":34660
		}
	],
	"buffers":[
		{
			"byteLength":36276,
			"uri":"data:application/octet-stream;base64,"
		}
	]
}
