{
	"asset":{
		"generator":"Khronos glTF Blender I/O v3.6.27",
		"version":"2.0"
	},
	"scene":0,
	"scenes":[
		{
			"name":"Scene",
			"nodes":[
				0,
				1,
				2
			]
		}
	],
	"nodes":[
		{
			"mesh":0,
			"name":"\u041a\u0443\u0431",
			"rotation":[
				1,
				0,
				0,
				0
			],
			"scale":[
				-5.04022216796875,
				-1,
				-1
			]
		},
		{
			"mesh":1,
			"name":"\u0426\u0438\u043b\u0438\u043d\u0434\u0440.007",
			"rotation":[
				0,
				0,
				-0.7071068286895752,
				0.7071068286895752
			],
			"scale":[
				2.662611246109009,
				0.4427323341369629,
				2.662611246109009
			],
			"translation":[
				-0.869290292263031,
				-2.6352744102478027,
				3.3351757526397705
			]
		},
		{
			"mesh":2,
			"name":"\u041a\u0443\u0431.001",
			"scale":[
				0.7450622916221619,
				0.5263022780418396,
				0.7450622916221619
			],
			"translation":[
				4.4281134605407715,
				-3.5885074138641357,
				4.549169540405273
			]
		}
	],
	"animations":[
		{
			"channels":[
				{
					"sampler":0,
					"target":{
						"node":1,
						"path":"rotation"
					}
				}
			],
			"name":"\u0426\u0438\u043b\u0438\u043d\u0434\u0440.007Action",
			"samplers":[
				{
					"input":16,
					"interpolation":"LINEAR",
					"output":17
				}
			]
		}
	],
	"materials":[
		{
			"doubleSided":true,
			"name":"\u041c\u0430\u0442\u0435\u0440\u0438\u0430\u043b.002",
			"pbrMetallicRoughness":{
				"baseColorFactor":[
					0.012892656959593296,
					0.05221778154373169,
					0.005481939297169447,
					1
				],
				"metallicFactor":0,
				"roughnessFactor":0.5
			}
		},
		{
			"doubleSided":true,
			"name":"\u041c\u0430\u0442\u0435\u0440\u0438\u0430\u043b",
			"pbrMetallicRoughness":{
				"baseColorFactor":[
					0.8000000715255737,
					0.40535637736320496,
					0.06611783057451248,
					1
				],
				"metallicFactor":0,
				"roughnessFactor":0.5
			}
		},
		{
			"doubleSided":true,
			"name":"\u041c\u0430\u0442\u0435\u0440\u0438\u0430\u043b.001",
			"pbrMetallicRoughness":{
				"baseColorFactor":[
					0.09083746373653412,
					0.09083746373653412,
					0.09083746373653412,
					1
				],
				"metallicFactor":0,
				"roughnessFactor":0.5
			}
		},
		{
			"doubleSided":true,
			"name":"\u041c\u0430\u0442\u0435\u0440\u0438\u0430\u043b.003",
			"pbrMetallicRoughness":{
				"baseColorFactor":[
					0.007193451747298241,
					0.007193451747298241,
					0.007193451747298241,
					1
				],
				"metallicFactor":0,
				"roughnessFactor":0.5
			}
		}
	],
	"meshes":[
		{
			"name":"\u041a\u0443\u0431",
			"primitives":[
				{
					"attributes":{
						"POSITION":0,
						"NORMAL":1,
						"TEXCOORD_0":2
					},
					"indices":3,
					"material":0
				}
			]
		},
		{
			"name":"\u0426\u0438\u043b\u0438\u043d\u0434\u0440.008",
			"primitives":[
				{
					"attributes":{
						"POSITION":4,
						"NORMAL":5,
						"TEXCOORD_0":6
					},
					"indices":7,
					"material":1
				},
				{
					"attributes":{
						"POSITION":8,
						"NORMAL":9,
						"TEXCOORD_0":10
					},
					"indices":11,
					"material":2
				}
			]
		},
		{
			"name":"\u041a\u0443\u0431.008",
			"primitives":[
				{
					"attributes":{
						"POSITION":12,
						"NORMAL":13,
						"TEXCOORD_0":14
					},
					"indices":15,
					"material":3
				}
			]
		}
	],
	"accessors":[
		{
			"bufferView":0,
			"componentType":5126,
			"count":174,
			"max":[
				1,
				1.465870976448059,
				6.09774112701416
			],
			"min":[
				-1.0701842308044434,
				-4.613511085510254,
				-1
			],
			"type":"VEC3"
		},
		{
			"bufferView":1,
			"componentType":5126,
			"count":174,
			"type":"VEC3"
		},
		{
			"bufferView":2,
			"componentType":5126,
			"count":174,
			"type":"VEC2"
		},
		{
			"bufferView":3,
			"componentType":5123,
			"count":312,
			"type":"SCALAR"
		},
		{
			"bufferView":4,
			"componentType":5126,
			"count":5928,
			"max":[
				1.536861538887024,
				11.39090347290039,
				1.5512770414352417
			],
			"min":[
				-1.5247691869735718,
				-7.193350315093994,
				-1.5103532075881958
			],
			"type":"VEC3"
		},
		{
			"bufferView":5,
			"componentType":5126,
			"count":5928,
			"type":"VEC3"
		},
		{
			"bufferView":6,
			"componentType":5126,
			"count":5928,
			"type":"VEC2"
		},
		{
			"bufferView":7,
			"componentType":5123,
			"count":19512,
			"type":"SCALAR"
		},
		{
			"bufferView":8,
			"componentType":5126,
			"count":1696,
			"max":[
				1.4448376893997192,
				10.718622207641602,
				1.459253191947937
			],
			"min":[
				-1.4327452182769775,
				-7.193350315093994,
				-1.4183293581008911
			],
			"type":"VEC3"
		},
		{
			"bufferView":9,
			"componentType":5126,
			"count":1696,
			"type":"VEC3"
		},
		{
			"bufferView":10,
			"componentType":5126,
			"count":1696,
			"type":"VEC2"
		},
		{
			"bufferView":11,
			"componentType":5123,
			"count":4920,
			"type":"SCALAR"
		},
		{
			"bufferView":12,
			"componentType":5126,
			"count":48,
			"max":[
				1,
				3.7793469429016113,
				1.0000003576278687
			],
			"min":[
				-1,
				-1,
				-1
			],
			"type":"VEC3"
		},
		{
			"bufferView":13,
			"componentType":5126,
			"count":48,
			"type":"VEC3"
		},
		{
			"bufferView":14,
			"componentType":5126,
			"count":48,
			"type":"VEC2"
		},
		{
			"bufferView":15,
			"componentType":5123,
			"count":72,
			"type":"SCALAR"
		},
		{
			"bufferView":16,
			"componentType":5126,
			"count":50,
			"max":[
				2.0833333333333335
			],
			"min":[
				0.041666666666666664
			],
			"type":"SCALAR"
		},
		{
			"bufferView":17,
			"componentType":5126,
			"count":50,
			"type":"VEC4"
		}
	],
	"bufferViews":[
		{
			"buffer":0,
			"byteLength":2088,
			"byteOffset":0,
			"target":34962
		},
		{
			"buffer":0,
			"byteLength":2088,
			"byteOffset":2088,
			"target":34962
		},
		{
			"buffer":0,
			"byteLength":1392,
			"byteOffset":4176,
			"target":34962
		},
		{
			"buffer":0,
			"byteLength":624,
			"byteOffset":5568,
			"target":34963
		},
		{
			"buffer":0,
			"byteLength":71136,
			"byteOffset":6192,
			"target":34962
		},
		{
			"buffer":0,
			"byteLength":71136,
			"byteOffset":77328,
			"target":34962
		},
		{
			"buffer":0,
			"byteLength":47424,
			"byteOffset":148464,
			"target":34962
		},
		{
			"buffer":0,
			"byteLength":39024,
			"byteOffset":195888,
			"target":34963
		},
		{
			"buffer":0,
			"byteLength":20352,
			"byteOffset":234912,
			"target":34962
		},
		{
			"buffer":0,
			"byteLength":20352,
			"byteOffset":255264,
			"target":34962
		},
		{
			"buffer":0,
			"byteLength":13568,
			"byteOffset":275616,
			"target":34962
		},
		{
			"buffer":0,
			"byteLength":9840,
			"byteOffset":289184,
			"target":34963
		},
		{
			"buffer":0,
			"byteLength":576,
			"byteOffset":299024,
			"target":34962
		},
		{
			"buffer":0,
			"byteLength":576,
			"byteOffset":299600,
			"target":34962
		},
		{
			"buffer":0,
			"byteLength":384,
			"byteOffset":300176,
			"target":34962
		},
		{
			"buffer":0,
			"byteLength":144,
			"byteOffset":300560,
			"target":34963
		},
		{
			"buffer":0,
			"byteLength":200,
			"byteOffset":300704
		},
		{
			"buffer":0,
			"byteLength":800,
			"byteOffset":300904
		}
	],
	"buffers":[
		{
			"byteLength":301704,
			"uri":"data:application/octet-stream;base64,"
		}
	]
}
