{
	"asset":{
		"generator":"Khronos glTF Blender I/O v3.6.27",
		"version":"2.0"
	},
	"scene":0,
	"scenes":[
		{
			"name":"Scene",
			"nodes":[
				0,
				1,
				2,
				3
			]
		}
	],
	"nodes":[
		{
			"mesh":0,
			"name":"\u041a\u0443\u0431",
			"scale":[
				2.639132022857666,
				2.639132022857666,
				0.932472288608551
			]
		},
		{
			"mesh":1,
			"name":"\u0426\u0438\u043b\u0438\u043d\u0434\u0440",
			"rotation":[
				0.7071068286895752,
				0,
				0,
				0.7071068286895752
			],
			"scale":[
				2.197202682495117,
				1.2690902948379517,
				2.197202682495117
			],
			"translation":[
				0,
				0,
				-0.5650675296783447
			]
		},
		{
			"mesh":2,
			"name":"\u0426\u0438\u043b\u0438\u043d\u0434\u0440.001",
			"rotation":[
				0.7071068286895752,
				0,
				0,
				0.7071068286895752
			],
			"scale":[
				1,
				1.4418954849243164,
				1
			],
			"translation":[
				0,
				0,
				-4.704305171966553
			]
		},
		{
			"mesh":3,
			"name":"\u041a\u0443\u0431.005",
			"scale":[
				0.39947402477264404,
				0.39947402477264404,
				0.39947402477264404
			],
			"translation":[
				0.07049119472503662,
				1.075439691543579,
				-7.488461017608643
			]
		}
	],
	"animations":[
		{
			"channels":[
				{
					"sampler":0,
					"target":{
						"node":0,
						"path":"translation"
					}
				},
				{
					"sampler":1,
					"target":{
						"node":0,
						"path":"rotation"
					}
				},
				{
					"sampler":2,
					"target":{
						"node":0,
						"path":"scale"
					}
				}
			],
			"name":"\u041a\u0443\u0431Action",
			"samplers":[
				{
					"input":18,
					"interpolation":"LINEAR",
					"output":19
				},
				{
					"input":18,
					"interpolation":"LINEAR",
					"output":20
				},
				{
					"input":18,
					"interpolation":"LINEAR",
					"output":21
				}
			]
		},
		{
			"channels":[
				{
					"sampler":0,
					"target":{
						"node":1,
						"path":"translation"
					}
				},
				{
					"sampler":1,
					"target":{
						"node":1,
						"path":"rotation"
					}
				},
				{
					"sampler":2,
					"target":{
						"node":1,
						"path":"scale"
					}
				}
			],
			"name":"\u0426\u0438\u043b\u0438\u043d\u0434\u0440Action",
			"samplers":[
				{
					"input":22,
					"interpolation":"STEP",
					"output":23
				},
				{
					"input":24,
					"interpolation":"LINEAR",
					"output":25
				},
				{
					"input":22,
					"interpolation":"STEP",
					"output":26
				}
			]
		},
		{
			"channels":[
				{
					"sampler":0,
					"target":{
						"node":2,
						"path":"translation"
					}
				},
				{
					"sampler":1,
					"target":{
						"node":2,
						"path":"rotation"
					}
				},
				{
					"sampler":2,
					"target":{
						"node":2,
						"path":"scale"
					}
				}
			],
			"name":"\u0426\u0438\u043b\u0438\u043d\u0434\u0440.001Action",
			"samplers":[
				{
					"input":18,
					"interpolation":"LINEAR",
					"output":27
				},
				{
					"input":18,
					"interpolation":"LINEAR",
					"output":28
				},
				{
					"input":18,
					"interpolation":"LINEAR",
					"output":29
				}
			]
		},
		{
			"channels":[
				{
					"sampler":0,
					"target":{
						"node":3,
						"path":"translation"
					}
				},
				{
					"sampler":1,
					"target":{
						"node":3,
						"path":"rotation"
					}
				},
				{
					"sampler":2,
					"target":{
						"node":3,
						"path":"scale"
					}
				}
			],
			"name":"\u041a\u0443\u0431.005Action",
			"samplers":[
				{
					"input":24,
					"interpolation":"LINEAR",
					"output":30
				},
				{
					"input":22,
					"interpolation":"STEP",
					"output":31
				},
				{
					"input":22,
					"interpolation":"STEP",
					"output":32
				}
			]
		}
	],
	"materials":[
		{
			"doubleSided":true,
			"name":"\u041c\u0430\u0442\u0435\u0440\u0438\u0430\u043b.008",
			"pbrMetallicRoughness":{
				"baseColorFactor":[
					0.26225027441978455,
					0.5088810920715332,
					0.14126341044902802,
					1
				],
				"metallicFactor":0,
				"roughnessFactor":0.5
			}
		},
		{
			"doubleSided":true,
			"name":"\u041c\u0430\u0442\u0435\u0440\u0438\u0430\u043b.001",
			"pbrMetallicRoughness":{
				"baseColorFactor":[
					0.05221778154373169,
					0.05221778154373169,
					0.05221778154373169,
					1
				],
				"metallicFactor":0,
				"roughnessFactor":0.5
			}
		},
		{
			"doubleSided":true,
			"name":"\u041c\u0430\u0442\u0435\u0440\u0438\u0430\u043b.006",
			"pbrMetallicRoughness":{
				"baseColorFactor":[
					0.28100907802581787,
					0.28100907802581787,
					0.28100907802581787,
					1
				],
				"metallicFactor":0,
				"roughnessFactor":0.5
			}
		},
		{
			"doubleSided":true,
			"name":"\u041c\u0430\u0442\u0435\u0440\u0438\u0430\u043b.005",
			"pbrMetallicRoughness":{
				"baseColorFactor":[
					0.06071930378675461,
					0.06071930378675461,
					0.06071930378675461,
					1
				],
				"metallicFactor":0,
				"roughnessFactor":0.5
			}
		},
		{
			"doubleSided":true,
			"name":"\u041c\u0430\u0442\u0435\u0440\u0438\u0430\u043b.004",
			"pbrMetallicRoughness":{
				"baseColorFactor":[
					0.1626414805650711,
					0.1626414805650711,
					0.1626414805650711,
					1
				],
				"metallicFactor":0,
				"roughnessFactor":0.5
			}
		}
	],
	"meshes":[
		{
			"name":"\u041a\u0443\u0431.007",
			"primitives":[
				{
					"attributes":{
						"POSITION":0,
						"NORMAL":1,
						"TEXCOORD_0":2
					},
					"indices":3,
					"material":0
				}
			]
		},
		{
			"name":"\u0426\u0438\u043b\u0438\u043d\u0434\u0440.002",
			"primitives":[
				{
					"attributes":{
						"POSITION":4,
						"NORMAL":5,
						"TEXCOORD_0":6
					},
					"indices":7,
					"material":1
				}
			]
		},
		{
			"name":"\u0426\u0438\u043b\u0438\u043d\u0434\u0440.003",
			"primitives":[
				{
					"attributes":{
						"POSITION":8,
						"NORMAL":9,
						"TEXCOORD_0":10
					},
					"indices":11,
					"material":2
				}
			]
		},
		{
			"name":"\u041a\u0443\u0431.012",
			"primitives":[
				{
					"attributes":{
						"POSITION":12,
						"NORMAL":13,
						"TEXCOORD_0":14
					},
					"indices":3,
					"material":3
				},
				{
					"attributes":{
						"POSITION":15,
						"NORMAL":16,
						"TEXCOORD_0":17
					},
					"indices":3,
					"material":4
				}
			]
		}
	],
	"accessors":[
		{
			"bufferView":0,
			"componentType":5126,
			"count":24,
			"max":[
				1,
				1,
				1
			],
			"min":[
				-1,
				-1,
				-1
			],
			"type":"VEC3"
		},
		{
			"bufferView":1,
			"componentType":5126,
			"count":24,
			"type":"VEC3"
		},
		{
			"bufferView":2,
			"componentType":5126,
			"count":24,
			"type":"VEC2"
		},
		{
			"bufferView":3,
			"componentType":5123,
			"count":36,
			"type":"SCALAR"
		},
		{
			"bufferView":4,
			"componentType":5126,
			"count":526,
			"max":[
				1,
				1,
				1
			],
			"min":[
				-1,
				-2.6351070404052734,
				-1
			],
			"type":"VEC3"
		},
		{
			"bufferView":5,
			"componentType":5126,
			"count":526,
			"type":"VEC3"
		},
		{
			"bufferView":6,
			"componentType":5126,
			"count":526,
			"type":"VEC2"
		},
		{
			"bufferView":7,
			"componentType":5123,
			"count":1392,
			"type":"SCALAR"
		},
		{
			"bufferView":8,
			"componentType":5126,
			"count":262,
			"max":[
				1,
				1,
				1
			],
			"min":[
				-1,
				-1.6502354145050049,
				-1
			],
			"type":"VEC3"
		},
		{
			"bufferView":9,
			"componentType":5126,
			"count":262,
			"type":"VEC3"
		},
		{
			"bufferView":10,
			"componentType":5126,
			"count":262,
			"type":"VEC2"
		},
		{
			"bufferView":11,
			"componentType":5123,
			"count":756,
			"type":"SCALAR"
		},
		{
			"bufferView":12,
			"componentType":5126,
			"count":24,
			"max":[
				1,
				1,
				1
			],
			"min":[
				-1,
				-1,
				-1
			],
			"type":"VEC3"
		},
		{
			"bufferView":13,
			"componentType":5126,
			"count":24,
			"type":"VEC3"
		},
		{
			"bufferView":14,
			"componentType":5126,
			"count":24,
			"type":"VEC2"
		},
		{
			"bufferView":15,
			"componentType":5126,
			"count":24,
			"max":[
				0.8438470363616943,
				15.449943542480469,
				0.6989080309867859
			],
			"min":[
				-1.1967670917510986,
				0.9721074104309082,
				-0.9578248858451843
			],
			"type":"VEC3"
		},
		{
			"bufferView":16,
			"componentType":5126,
			"count":24,
			"type":"VEC3"
		},
		{
			"bufferView":17,
			"componentType":5126,
			"count":24,
			"type":"VEC2"
		},
		{
			"bufferView":18,
			"componentType":5126,
			"count":1,
			"max":[
				0.041666666666666664
			],
			"min":[
				0.041666666666666664
			],
			"type":"SCALAR"
		},
		{
			"bufferView":19,
			"componentType":5126,
			"count":1,
			"type":"VEC3"
		},
		{
			"bufferView":20,
			"componentType":5126,
			"count":1,
			"type":"VEC4"
		},
		{
			"bufferView":21,
			"componentType":5126,
			"count":1,
			"type":"VEC3"
		},
		{
			"bufferView":22,
			"componentType":5126,
			"count":2,
			"max":[
				4.166666666666667
			],
			"min":[
				0.041666666666666664
			],
			"type":"SCALAR"
		},
		{
			"bufferView":23,
			"componentType":5126,
			"count":2,
			"type":"VEC3"
		},
		{
			"bufferView":24,
			"componentType":5126,
			"count":100,
			"max":[
				4.166666666666667
			],
			"min":[
				0.041666666666666664
			],
			"type":"SCALAR"
		},
		{
			"bufferView":25,
			"componentType":5126,
			"count":100,
			"type":"VEC4"
		},
		{
			"bufferView":26,
			"componentType":5126,
			"count":2,
			"type":"VEC3"
		},
		{
			"bufferView":27,
			"componentType":5126,
			"count":1,
			"type":"VEC3"
		},
		{
			"bufferView":28,
			"componentType":5126,
			"count":1,
			"type":"VEC4"
		},
		{
			"bufferView":29,
			"componentType":5126,
			"count":1,
			"type":"VEC3"
		},
		{
			"bufferView":30,
			"componentType":5126,
			"count":100,
			"type":"VEC3"
		},
		{
			"bufferView":31,
			"componentType":5126,
			"count":2,
			"type":"VEC4"
		},
		{
			"bufferView":32,
			"componentType":5126,
			"count":2,
			"type":"VEC3"
		}
	],
	"bufferViews":[
		{
			"buffer":0,
			"byteLength":288,
			"byteOffset":0,
			"target":34962
		},
		{
			"buffer":0,
			"byteLength":288,
			"byteOffset":288,
			"target":34962
		},
		{
			"buffer":0,
			"byteLength":192,
			"byteOffset":576,
			"target":34962
		},
		{
			"buffer":0,
			"byteLength":72,
			"byteOffset":768,
			"target":34963
		},
		{
			"buffer":0,
			"byteLength":6312,
			"byteOffset":840,
			"target":34962
		},
		{
			"buffer":0,
			"byteLength":6312,
			"byteOffset":7152,
			"target":34962
		},
		{
			"buffer":0,
			"byteLength":4208,
			"byteOffset":13464,
			"target":34962
		},
		{
			"buffer":0,
			"byteLength":2784,
			"byteOffset":17672,
			"target":34963
		},
		{
			"buffer":0,
			"byteLength":3144,
			"byteOffset":20456,
			"target":34962
		},
		{
			"buffer":0,
			"byteLength":3144,
			"byteOffset":23600,
			"target":34962
		},
		{
			"buffer":0,
			"byteLength":2096,
			"byteOffset":26744,
			"target":34962
		},
		{
			"buffer":0,
			"byteLength":1512,
			"byteOffset":28840,
			"target":34963
		},
		{
			"buffer":0,
			"byteLength":288,
			"byteOffset":30352,
			"target":34962
		},
		{
			"buffer":0,
			"byteLength":288,
			"byteOffset":30640,
			"target":34962
		},
		{
			"buffer":0,
			"byteLength":192,
			"byteOffset":30928,
			"target":34962
		},
		{
			"buffer":0,
			"byteLength":288,
			"byteOffset":31120,
			"target":34962
		},
		{
			"buffer":0,
			"byteLength":288,
			"byteOffset":31408,
			"target":34962
		},
		{
			"buffer":0,
			"byteLength":192,
			"byteOffset":31696,
			"target":34962
		},
		{
			"buffer":0,
			"byteLength":4,
			"byteOffset":31888
		},
		{
			"buffer":0,
			"byteLength":12,
			"byteOffset":31892
		},
		{
			"buffer":0,
			"byteLength":16,
			"byteOffset":31904
		},
		{
			"buffer":0,
			"byteLength":12,
			"byteOffset":31920
		},
		{
			"buffer":0,
			"byteLength":8,
			"byteOffset":31932
		},
		{
			"buffer":0,
			"byteLength":24,
			"byteOffset":31940
		},
		{
			"buffer":0,
			"byteLength":400,
			"byteOffset":31964
		},
		{
			"buffer":0,
			"byteLength":1600,
			"byteOffset":32364
		},
		{
			"buffer":0,
			"byteLength":24,
			"byteOffset":33964
		},
		{
			"buffer":0,
			"byteLength":12,
			"byteOffset":33988
		},
		{
			"buffer":0,
			"byteLength":16,
			"byteOffset":34000
		},
		{
			"buffer":0,
			"byteLength":12,
			"byteOffset":34016
		},
		{
			"buffer":0,
			"byteLength":1200,
			"byteOffset":34028
		},
		{
			"buffer":0,
			"byteLength":32,
			"byteOffset":35228
		},
		{
			"buffer":0,
			"byteLength":24,
			"byteOffset":35260
		}
	],
	"buffers":[
		{
			"byteLength":35284,
			"uri":"data:application/octet-stream;base64,"
		}
	]
}
