{
	"asset":{
		"generator":"Khronos glTF Blender I/O v3.6.27",
		"version":"2.0"
	},
	"scene":0,
	"scenes":[
		{
			"name":"Scene",
			"nodes":[
				0
			]
		}
	],
	"nodes":[
		{
			"mesh":0,
			"name":"\u041a\u0443\u0431.002",
			"scale":[
				0.24132275581359863,
				0.9427465796470642,
				0.24132275581359863
			]
		}
	],
	"animations":[
		{
			"channels":[
				{
					"sampler":0,
					"target":{
						"node":0,
						"path":"rotation"
					}
				}
			],
			"name":"\u041a\u0443\u0431.002Action",
			"samplers":[
				{
					"input":12,
					"interpolation":"LINEAR",
					"output":13
				}
			]
		}
	],
	"materials":[
		{
			"doubleSided":true,
			"name":"\u041c\u0430\u0442\u0435\u0440\u0438\u0430\u043b.001",
			"pbrMetallicRoughness":{
				"baseColorFactor":[
					0.14731356501579285,
					0.14731356501579285,
					0.14731356501579285,
					1
				],
				"metallicFactor":0,
				"roughnessFactor":0.5
			}
		},
		{
			"doubleSided":true,
			"name":"\u041c\u0430\u0442\u0435\u0440\u0438\u0430\u043b.002",
			"pbrMetallicRoughness":{
				"baseColorFactor":[
					0.26141560077667236,
					0.5070677995681763,
					0.14219941198825836,
					1
				],
				"metallicFactor":0,
				"roughnessFactor":0.5
			}
		},
		{
			"doubleSided":true,
			"name":"\u041c\u0430\u0442\u0435\u0440\u0438\u0430\u043b",
			"pbrMetallicRoughness":{
				"baseColorFactor":[
					0.01002166885882616,
					0.01002166885882616,
					0.01002166885882616,
					1
				],
				"metallicFactor":0,
				"roughnessFactor":0.5
			}
		}
	],
	"meshes":[
		{
			"name":"\u041a\u0443\u0431.002",
			"primitives":[
				{
					"attributes":{
						"POSITION":0,
						"NORMAL":1,
						"TEXCOORD_0":2
					},
					"indices":3,
					"material":0
				},
				{
					"attributes":{
						"POSITION":4,
						"NORMAL":5,
						"TEXCOORD_0":6
					},
					"indices":7,
					"material":1
				},
				{
					"attributes":{
						"POSITION":8,
						"NORMAL":9,
						"TEXCOORD_0":10
					},
					"indices":11,
					"material":2
				}
			]
		}
	],
	"accessors":[
		{
			"bufferView":0,
			"componentType":5126,
			"count":172,
			"max":[
				2.1900203227996826,
				2.5386013984680176,
				9.088589668273926
			],
			"min":[
				-2.1900203227996826,
				-1.490984559059143,
				-9.088589668273926
			],
			"type":"VEC3"
		},
		{
			"bufferView":1,
			"componentType":5126,
			"count":172,
			"type":"VEC3"
		},
		{
			"bufferView":2,
			"componentType":5126,
			"count":172,
			"type":"VEC2"
		},
		{
			"bufferView":3,
			"componentType":5123,
			"count":480,
			"type":"SCALAR"
		},
		{
			"bufferView":4,
			"componentType":5126,
			"count":260,
			"max":[
				1.781006097793579,
				3.150083065032959,
				12.306052207946777
			],
			"min":[
				-1.781006097793579,
				-3.150083065032959,
				-12.306052207946777
			],
			"type":"VEC3"
		},
		{
			"bufferView":5,
			"componentType":5126,
			"count":260,
			"type":"VEC3"
		},
		{
			"bufferView":6,
			"componentType":5126,
			"count":260,
			"type":"VEC2"
		},
		{
			"bufferView":7,
			"componentType":5123,
			"count":768,
			"type":"SCALAR"
		},
		{
			"bufferView":8,
			"componentType":5126,
			"count":196,
			"max":[
				4.851693153381348,
				-0.8701860904693604,
				10.31074333190918
			],
			"min":[
				0.8885840177536011,
				-1.6989555358886719,
				7.0730881690979
			],
			"type":"VEC3"
		},
		{
			"bufferView":9,
			"componentType":5126,
			"count":196,
			"type":"VEC3"
		},
		{
			"bufferView":10,
			"componentType":5126,
			"count":196,
			"type":"VEC2"
		},
		{
			"bufferView":11,
			"componentType":5123,
			"count":756,
			"type":"SCALAR"
		},
		{
			"bufferView":12,
			"componentType":5126,
			"count":51,
			"max":[
				2.0833333333333335
			],
			"min":[
				0
			],
			"type":"SCALAR"
		},
		{
			"bufferView":13,
			"componentType":5126,
			"count":51,
			"type":"VEC4"
		}
	],
	"bufferViews":[
		{
			"buffer":0,
			"byteLength":2064,
			"byteOffset":0,
			"target":34962
		},
		{
			"buffer":0,
			"byteLength":2064,
			"byteOffset":2064,
			"target":34962
		},
		{
			"buffer":0,
			"byteLength":1376,
			"byteOffset":4128,
			"target":34962
		},
		{
			"buffer":0,
			"byteLength":960,
			"byteOffset":5504,
			"target":34963
		},
		{
			"buffer":0,
			"byteLength":3120,
			"byteOffset":6464,
			"target":34962
		},
		{
			"buffer":0,
			"byteLength":3120,
			"byteOffset":9584,
			"target":34962
		},
		{
			"buffer":0,
			"byteLength":2080,
			"byteOffset":12704,
			"target":34962
		},
		{
			"buffer":0,
			"byteLength":1536,
			"byteOffset":14784,
			"target":34963
		},
		{
			"buffer":0,
			"byteLength":2352,
			"byteOffset":16320,
			"target":34962
		},
		{
			"buffer":0,
			"byteLength":2352,
			"byteOffset":18672,
			"target":34962
		},
		{
			"buffer":0,
			"byteLength":1568,
			"byteOffset":21024,
			"target":34962
		},
		{
			"buffer":0,
			"byteLength":1512,
			"byteOffset":22592,
			"target":34963
		},
		{
			"buffer":0,
			"byteLength":204,
			"byteOffset":24104
		},
		{
			"buffer":0,
			"byteLength":816,
			"byteOffset":24308
		}
	],
	"buffers":[
		{
			"byteLength":25124,
			"uri":"data:application/octet-stream;base64,"
		}
	]
}
