{
	"asset":{
		"generator":"Khronos glTF Blender I/O v3.6.27",
		"version":"2.0"
	},
	"scene":0,
	"scenes":[
		{
			"name":"Scene",
			"nodes":[
				0,
				1
			]
		}
	],
	"nodes":[
		{
			"mesh":0,
			"name":"\u041a\u0443\u0431",
			"scale":[
				5.609768867492676,
				3.4637715816497803,
				8.454017639160156
			]
		},
		{
			"mesh":1,
			"name":"\u041a\u0443\u0431.006",
			"scale":[
				1.1298154592514038,
				1.1298154592514038,
				0.2753463089466095
			],
			"translation":[
				0,
				14.65058422088623,
				-9.264209747314453
			]
		}
	],
	"animations":[
		{
			"channels":[
				{
					"sampler":0,
					"target":{
						"node":1,
						"path":"translation"
					}
				}
			],
			"name":"\u041a\u0443\u0431.006Action",
			"samplers":[
				{
					"input":24,
					"interpolation":"LINEAR",
					"output":25
				}
			]
		}
	],
	"materials":[
		{
			"doubleSided":true,
			"name":"\u041c\u0430\u0442\u0435\u0440\u0438\u0430\u043b.001",
			"pbrMetallicRoughness":{
				"baseColorFactor":[
					0.09083746373653412,
					0.09083746373653412,
					0.09083746373653412,
					1
				],
				"metallicFactor":0,
				"roughnessFactor":0.5
			}
		},
		{
			"doubleSided":true,
			"name":"\u041c\u0430\u0442\u0435\u0440\u0438\u0430\u043b.009",
			"pbrMetallicRoughness":{
				"baseColorFactor":[
					0.4222235381603241,
					0.8000000715255737,
					0.37493419647216797,
					1
				],
				"metallicFactor":0,
				"roughnessFactor":0.5
			}
		},
		{
			"doubleSided":true,
			"name":"\u041c\u0430\u0442\u0435\u0440\u0438\u0430\u043b.003",
			"pbrMetallicRoughness":{
				"baseColorFactor":[
					0.007193451747298241,
					0.007193451747298241,
					0.007193451747298241,
					1
				],
				"metallicFactor":0,
				"roughnessFactor":0.5
			}
		},
		{
			"doubleSided":true,
			"name":"\u041c\u0430\u0442\u0435\u0440\u0438\u0430\u043b.013",
			"pbrMetallicRoughness":{
				"baseColorFactor":[
					0.06245645135641098,
					0.08878056704998016,
					0.13286343216896057,
					1
				],
				"metallicFactor":0,
				"roughnessFactor":0.5
			}
		}
	],
	"meshes":[
		{
			"name":"\u041a\u0443\u0431.016",
			"primitives":[
				{
					"attributes":{
						"POSITION":0,
						"NORMAL":1,
						"TEXCOORD_0":2
					},
					"indices":3,
					"material":0
				},
				{
					"attributes":{
						"POSITION":4,
						"NORMAL":5,
						"TEXCOORD_0":6
					},
					"indices":7,
					"material":1
				},
				{
					"attributes":{
						"POSITION":8,
						"NORMAL":9,
						"TEXCOORD_0":10
					},
					"indices":11,
					"material":2
				}
			]
		},
		{
			"name":"\u041a\u0443\u0431.022",
			"primitives":[
				{
					"attributes":{
						"POSITION":12,
						"NORMAL":13,
						"TEXCOORD_0":14
					},
					"indices":15,
					"material":0
				},
				{
					"attributes":{
						"POSITION":16,
						"NORMAL":17,
						"TEXCOORD_0":18
					},
					"indices":19,
					"material":2
				},
				{
					"attributes":{
						"POSITION":20,
						"NORMAL":21,
						"TEXCOORD_0":22
					},
					"indices":23,
					"material":3
				}
			]
		}
	],
	"accessors":[
		{
			"bufferView":0,
			"componentType":5126,
			"count":62,
			"max":[
				1,
				1,
				1
			],
			"min":[
				-1,
				-1,
				-1
			],
			"type":"VEC3"
		},
		{
			"bufferView":1,
			"componentType":5126,
			"count":62,
			"type":"VEC3"
		},
		{
			"bufferView":2,
			"componentType":5126,
			"count":62,
			"type":"VEC2"
		},
		{
			"bufferView":3,
			"componentType":5123,
			"count":102,
			"type":"SCALAR"
		},
		{
			"bufferView":4,
			"componentType":5126,
			"count":4,
			"max":[
				0.8833186626434326,
				0.6056526303291321,
				0.913798987865448
			],
			"min":[
				-0.8833186626434326,
				0.6056526303291321,
				-0.913798987865448
			],
			"type":"VEC3"
		},
		{
			"bufferView":5,
			"componentType":5126,
			"count":4,
			"type":"VEC3"
		},
		{
			"bufferView":6,
			"componentType":5126,
			"count":4,
			"type":"VEC2"
		},
		{
			"bufferView":7,
			"componentType":5123,
			"count":6,
			"type":"SCALAR"
		},
		{
			"bufferView":8,
			"componentType":5126,
			"count":16,
			"max":[
				1,
				0.6832618117332458,
				1
			],
			"min":[
				-1,
				0.35630112886428833,
				-1
			],
			"type":"VEC3"
		},
		{
			"bufferView":9,
			"componentType":5126,
			"count":16,
			"type":"VEC3"
		},
		{
			"bufferView":10,
			"componentType":5126,
			"count":16,
			"type":"VEC2"
		},
		{
			"bufferView":11,
			"componentType":5123,
			"count":24,
			"type":"SCALAR"
		},
		{
			"bufferView":12,
			"componentType":5126,
			"count":48,
			"max":[
				1,
				1,
				69.8346176147461
			],
			"min":[
				-1,
				-20.69759750366211,
				-1
			],
			"type":"VEC3"
		},
		{
			"bufferView":13,
			"componentType":5126,
			"count":48,
			"type":"VEC3"
		},
		{
			"bufferView":14,
			"componentType":5126,
			"count":48,
			"type":"VEC2"
		},
		{
			"bufferView":15,
			"componentType":5123,
			"count":72,
			"type":"SCALAR"
		},
		{
			"bufferView":16,
			"componentType":5126,
			"count":66,
			"max":[
				0.8851003050804138,
				0.9605734944343567,
				70.31758117675781
			],
			"min":[
				-0.8851003050804138,
				-0.8096278309822083,
				-1.4793357849121094
			],
			"type":"VEC3"
		},
		{
			"bufferView":17,
			"componentType":5126,
			"count":66,
			"type":"VEC3"
		},
		{
			"bufferView":18,
			"componentType":5126,
			"count":66,
			"type":"VEC2"
		},
		{
			"bufferView":19,
			"componentType":5123,
			"count":180,
			"type":"SCALAR"
		},
		{
			"bufferView":20,
			"componentType":5126,
			"count":1612,
			"max":[
				0.2147531509399414,
				0.004955768585205078,
				57.38945770263672
			],
			"min":[
				-0.2147531509399414,
				-7.0370635986328125,
				8.671985626220703
			],
			"type":"VEC3"
		},
		{
			"bufferView":21,
			"componentType":5126,
			"count":1612,
			"type":"VEC3"
		},
		{
			"bufferView":22,
			"componentType":5126,
			"count":1612,
			"type":"VEC2"
		},
		{
			"bufferView":23,
			"componentType":5123,
			"count":4128,
			"type":"SCALAR"
		},
		{
			"bufferView":24,
			"componentType":5126,
			"count":101,
			"max":[
				4.166666666666667
			],
			"min":[
				0
			],
			"type":"SCALAR"
		},
		{
			"bufferView":25,
			"componentType":5126,
			"count":101,
			"type":"VEC3"
		}
	],
	"bufferViews":[
		{
			"buffer":0,
			"byteLength":744,
			"byteOffset":0,
			"target":34962
		},
		{
			"buffer":0,
			"byteLength":744,
			"byteOffset":744,
			"target":34962
		},
		{
			"buffer":0,
			"byteLength":496,
			"byteOffset":1488,
			"target":34962
		},
		{
			"buffer":0,
			"byteLength":204,
			"byteOffset":1984,
			"target":34963
		},
		{
			"buffer":0,
			"byteLength":48,
			"byteOffset":2188,
			"target":34962
		},
		{
			"buffer":0,
			"byteLength":48,
			"byteOffset":2236,
			"target":34962
		},
		{
			"buffer":0,
			"byteLength":32,
			"byteOffset":2284,
			"target":34962
		},
		{
			"buffer":0,
			"byteLength":12,
			"byteOffset":2316,
			"target":34963
		},
		{
			"buffer":0,
			"byteLength":192,
			"byteOffset":2328,
			"target":34962
		},
		{
			"buffer":0,
			"byteLength":192,
			"byteOffset":2520,
			"target":34962
		},
		{
			"buffer":0,
			"byteLength":128,
			"byteOffset":2712,
			"target":34962
		},
		{
			"buffer":0,
			"byteLength":48,
			"byteOffset":2840,
			"target":34963
		},
		{
			"buffer":0,
			"byteLength":576,
			"byteOffset":2888,
			"target":34962
		},
		{
			"buffer":0,
			"byteLength":576,
			"byteOffset":3464,
			"target":34962
		},
		{
			"buffer":0,
			"byteLength":384,
			"byteOffset":4040,
			"target":34962
		},
		{
			"buffer":0,
			"byteLength":144,
			"byteOffset":4424,
			"target":34963
		},
		{
			"buffer":0,
			"byteLength":792,
			"byteOffset":4568,
			"target":34962
		},
		{
			"buffer":0,
			"byteLength":792,
			"byteOffset":5360,
			"target":34962
		},
		{
			"buffer":0,
			"byteLength":528,
			"byteOffset":6152,
			"target":34962
		},
		{
			"buffer":0,
			"byteLength":360,
			"byteOffset":6680,
			"target":34963
		},
		{
			"buffer":0,
			"byteLength":19344,
			"byteOffset":7040,
			"target":34962
		},
		{
			"buffer":0,
			"byteLength":19344,
			"byteOffset":26384,
			"target":34962
		},
		{
			"buffer":0,
			"byteLength":12896,
			"byteOffset":45728,
			"target":34962
		},
		{
			"buffer":0,
			"byteLength":8256,
			"byteOffset":58624,
			"target":34963
		},
		{
			"buffer":0,
			"byteLength":404,
			"byteOffset":66880
		},
		{
			"buffer":0,
			"byteLength":1212,
			"byteOffset":67284
		}
	],
	"buffers":[
		{
			"byteLength":68496,
			"uri":"data:application/octet-stream;base64,"
		}
	]
}
