{
	"asset":{
		"generator":"Khronos glTF Blender I/O v3.6.27",
		"version":"2.0"
	},
	"scene":0,
	"scenes":[
		{
			"name":"Scene",
			"nodes":[
				0
			]
		}
	],
	"nodes":[
		{
			"mesh":0,
			"name":"\u041a\u0443\u0431.004",
			"rotation":[
				0.22386518120765686,
				-0.10291322320699692,
				-0.4048118591308594,
				0.8805797100067139
			],
			"scale":[
				4.592824935913086,
				4.592825412750244,
				4.592824935913086
			],
			"translation":[
				-1.8962212800979614,
				-9.168719291687012,
				0.993993878364563
			]
		}
	],
	"animations":[
		{
			"channels":[
				{
					"sampler":0,
					"target":{
						"node":0,
						"path":"rotation"
					}
				}
			],
			"name":"\u041a\u0443\u0431.004Action",
			"samplers":[
				{
					"input":28,
					"interpolation":"LINEAR",
					"output":29
				}
			]
		}
	],
	"materials":[
		{
			"doubleSided":true,
			"name":"\u041c\u0430\u0442\u0435\u0440\u0438\u0430\u043b.007",
			"pbrMetallicRoughness":{
				"baseColorFactor":[
					0.05029214918613434,
					0.08077175170183182,
					0.3185383677482605,
					1
				],
				"metallicFactor":0,
				"roughnessFactor":0.5
			}
		},
		{
			"doubleSided":true,
			"name":"\u041c\u0430\u0442\u0435\u0440\u0438\u0430\u043b.015",
			"pbrMetallicRoughness":{
				"baseColorFactor":[
					0.39157164096832275,
					0.6239599585533142,
					0.7991029024124146,
					1
				],
				"metallicFactor":0,
				"roughnessFactor":0
			}
		},
		{
			"doubleSided":true,
			"name":"\u041c\u0430\u0442\u0435\u0440\u0438\u0430\u043b.016",
			"pbrMetallicRoughness":{
				"baseColorFactor":[
					0.39157164096832275,
					0.6239599585533142,
					0.7991029024124146,
					1
				],
				"metallicFactor":0,
				"roughnessFactor":0
			}
		},
		{
			"doubleSided":true,
			"name":"\u041c\u0430\u0442\u0435\u0440\u0438\u0430\u043b.004",
			"pbrMetallicRoughness":{
				"baseColorFactor":[
					0.162641242146492,
					0.014860227704048157,
					0.011775430291891098,
					1
				],
				"metallicFactor":0,
				"roughnessFactor":0.5
			}
		},
		{
			"doubleSided":true,
			"name":"\u041c\u0430\u0442\u0435\u0440\u0438\u0430\u043b.017",
			"pbrMetallicRoughness":{
				"baseColorFactor":[
					0.39157164096832275,
					0.6239599585533142,
					0.7991029024124146,
					1
				],
				"metallicFactor":0,
				"roughnessFactor":0
			}
		},
		{
			"doubleSided":true,
			"name":"\u041c\u0430\u0442\u0435\u0440\u0438\u0430\u043b.009",
			"pbrMetallicRoughness":{
				"baseColorFactor":[
					0.4222235381603241,
					0.8000000715255737,
					0.37493419647216797,
					1
				],
				"metallicFactor":0,
				"roughnessFactor":0.5
			}
		},
		{
			"doubleSided":true,
			"name":"\u041c\u0430\u0442\u0435\u0440\u0438\u0430\u043b.019",
			"pbrMetallicRoughness":{
				"baseColorFactor":[
					0.39157164096832275,
					0.6239599585533142,
					0.7991029024124146,
					1
				],
				"metallicFactor":0,
				"roughnessFactor":0
			}
		}
	],
	"meshes":[
		{
			"name":"\u041a\u0443\u0431.028",
			"primitives":[
				{
					"attributes":{
						"POSITION":0,
						"NORMAL":1,
						"TEXCOORD_0":2
					},
					"indices":3,
					"material":0
				},
				{
					"attributes":{
						"POSITION":4,
						"NORMAL":5,
						"TEXCOORD_0":6
					},
					"indices":7,
					"material":1
				},
				{
					"attributes":{
						"POSITION":8,
						"NORMAL":9,
						"TEXCOORD_0":10
					},
					"indices":11,
					"material":2
				},
				{
					"attributes":{
						"POSITION":12,
						"NORMAL":13,
						"TEXCOORD_0":14
					},
					"indices":15,
					"material":3
				},
				{
					"attributes":{
						"POSITION":16,
						"NORMAL":17,
						"TEXCOORD_0":18
					},
					"indices":19,
					"material":4
				},
				{
					"attributes":{
						"POSITION":20,
						"NORMAL":21,
						"TEXCOORD_0":22
					},
					"indices":23,
					"material":5
				},
				{
					"attributes":{
						"POSITION":24,
						"NORMAL":25,
						"TEXCOORD_0":26
					},
					"indices":27,
					"material":6
				}
			]
		}
	],
	"accessors":[
		{
			"bufferView":0,
			"componentType":5126,
			"count":310,
			"max":[
				0.8699127435684204,
				1,
				0.8699127435684204
			],
			"min":[
				-0.8699127435684204,
				0.08631515502929688,
				-0.8699127435684204
			],
			"type":"VEC3"
		},
		{
			"bufferView":1,
			"componentType":5126,
			"count":310,
			"type":"VEC3"
		},
		{
			"bufferView":2,
			"componentType":5126,
			"count":310,
			"type":"VEC2"
		},
		{
			"bufferView":3,
			"componentType":5123,
			"count":1356,
			"type":"SCALAR"
		},
		{
			"bufferView":4,
			"componentType":5126,
			"count":571,
			"max":[
				-0.6532354950904846,
				2.671372413635254,
				-0.15624916553497314
			],
			"min":[
				-2.880378246307373,
				0.6158499717712402,
				-1.900465488433838
			],
			"type":"VEC3"
		},
		{
			"bufferView":5,
			"componentType":5126,
			"count":571,
			"type":"VEC3"
		},
		{
			"bufferView":6,
			"componentType":5126,
			"count":571,
			"type":"VEC2"
		},
		{
			"bufferView":7,
			"componentType":5123,
			"count":2148,
			"type":"SCALAR"
		},
		{
			"bufferView":8,
			"componentType":5126,
			"count":261,
			"max":[
				-0.3159681558609009,
				1.5182371139526367,
				-1.6692047119140625
			],
			"min":[
				-1.7146637439727783,
				0.021593332290649414,
				-3.1266517639160156
			],
			"type":"VEC3"
		},
		{
			"bufferView":9,
			"componentType":5126,
			"count":261,
			"type":"VEC3"
		},
		{
			"bufferView":10,
			"componentType":5126,
			"count":261,
			"type":"VEC2"
		},
		{
			"bufferView":11,
			"componentType":5123,
			"count":792,
			"type":"SCALAR"
		},
		{
			"bufferView":12,
			"componentType":5126,
			"count":310,
			"max":[
				0.22345957159996033,
				0.8968337774276733,
				-1.065186858177185
			],
			"min":[
				-1.3479194641113281,
				-0.6352138519287109,
				-2.613478422164917
			],
			"type":"VEC3"
		},
		{
			"bufferView":13,
			"componentType":5126,
			"count":310,
			"type":"VEC3"
		},
		{
			"bufferView":14,
			"componentType":5126,
			"count":310,
			"type":"VEC2"
		},
		{
			"bufferView":15,
			"componentType":5123,
			"count":1356,
			"type":"SCALAR"
		},
		{
			"bufferView":16,
			"componentType":5126,
			"count":261,
			"max":[
				-1.1061253547668457,
				2.9081149101257324,
				1.3082287311553955
			],
			"min":[
				-2.555143356323242,
				1.5700697898864746,
				0.16025692224502563
			],
			"type":"VEC3"
		},
		{
			"bufferView":17,
			"componentType":5126,
			"count":261,
			"type":"VEC3"
		},
		{
			"bufferView":18,
			"componentType":5126,
			"count":261,
			"type":"VEC2"
		},
		{
			"bufferView":19,
			"componentType":5123,
			"count":792,
			"type":"SCALAR"
		},
		{
			"bufferView":20,
			"componentType":5126,
			"count":310,
			"max":[
				-0.29528507590293884,
				2.7068352699279785,
				1.4940600395202637
			],
			"min":[
				-1.584619402885437,
				1.0808396339416504,
				-0.2061949372291565
			],
			"type":"VEC3"
		},
		{
			"bufferView":21,
			"componentType":5126,
			"count":310,
			"type":"VEC3"
		},
		{
			"bufferView":22,
			"componentType":5126,
			"count":310,
			"type":"VEC2"
		},
		{
			"bufferView":23,
			"componentType":5123,
			"count":1356,
			"type":"SCALAR"
		},
		{
			"bufferView":24,
			"componentType":5126,
			"count":261,
			"max":[
				0.588756799697876,
				2.1524128913879395,
				0.5887568593025208
			],
			"min":[
				-0.5887569785118103,
				1,
				-0.588756799697876
			],
			"type":"VEC3"
		},
		{
			"bufferView":25,
			"componentType":5126,
			"count":261,
			"type":"VEC3"
		},
		{
			"bufferView":26,
			"componentType":5126,
			"count":261,
			"type":"VEC2"
		},
		{
			"bufferView":27,
			"componentType":5123,
			"count":792,
			"type":"SCALAR"
		},
		{
			"bufferView":28,
			"componentType":5126,
			"count":100,
			"max":[
				4.166666666666667
			],
			"min":[
				0.041666666666666664
			],
			"type":"SCALAR"
		},
		{
			"bufferView":29,
			"componentType":5126,
			"count":100,
			"type":"VEC4"
		}
	],
	"bufferViews":[
		{
			"buffer":0,
			"byteLength":3720,
			"byteOffset":0,
			"target":34962
		},
		{
			"buffer":0,
			"byteLength":3720,
			"byteOffset":3720,
			"target":34962
		},
		{
			"buffer":0,
			"byteLength":2480,
			"byteOffset":7440,
			"target":34962
		},
		{
			"buffer":0,
			"byteLength":2712,
			"byteOffset":9920,
			"target":34963
		},
		{
			"buffer":0,
			"byteLength":6852,
			"byteOffset":12632,
			"target":34962
		},
		{
			"buffer":0,
			"byteLength":6852,
			"byteOffset":19484,
			"target":34962
		},
		{
			"buffer":0,
			"byteLength":4568,
			"byteOffset":26336,
			"target":34962
		},
		{
			"buffer":0,
			"byteLength":4296,
			"byteOffset":30904,
			"target":34963
		},
		{
			"buffer":0,
			"byteLength":3132,
			"byteOffset":35200,
			"target":34962
		},
		{
			"buffer":0,
			"byteLength":3132,
			"byteOffset":38332,
			"target":34962
		},
		{
			"buffer":0,
			"byteLength":2088,
			"byteOffset":41464,
			"target":34962
		},
		{
			"buffer":0,
			"byteLength":1584,
			"byteOffset":43552,
			"target":34963
		},
		{
			"buffer":0,
			"byteLength":3720,
			"byteOffset":45136,
			"target":34962
		},
		{
			"buffer":0,
			"byteLength":3720,
			"byteOffset":48856,
			"target":34962
		},
		{
			"buffer":0,
			"byteLength":2480,
			"byteOffset":52576,
			"target":34962
		},
		{
			"buffer":0,
			"byteLength":2712,
			"byteOffset":55056,
			"target":34963
		},
		{
			"buffer":0,
			"byteLength":3132,
			"byteOffset":57768,
			"target":34962
		},
		{
			"buffer":0,
			"byteLength":3132,
			"byteOffset":60900,
			"target":34962
		},
		{
			"buffer":0,
			"byteLength":2088,
			"byteOffset":64032,
			"target":34962
		},
		{
			"buffer":0,
			"byteLength":1584,
			"byteOffset":66120,
			"target":34963
		},
		{
			"buffer":0,
			"byteLength":3720,
			"byteOffset":67704,
			"target":34962
		},
		{
			"buffer":0,
			"byteLength":3720,
			"byteOffset":71424,
			"target":34962
		},
		{
			"buffer":0,
			"byteLength":2480,
			"byteOffset":75144,
			"target":34962
		},
		{
			"buffer":0,
			"byteLength":2712,
			"byteOffset":77624,
			"target":34963
		},
		{
			"buffer":0,
			"byteLength":3132,
			"byteOffset":80336,
			"target":34962
		},
		{
			"buffer":0,
			"byteLength":3132,
			"byteOffset":83468,
			"target":34962
		},
		{
			"buffer":0,
			"byteLength":2088,
			"byteOffset":86600,
			"target":34962
		},
		{
			"buffer":0,
			"byteLength":1584,
			"byteOffset":88688,
			"target":34963
		},
		{
			"buffer":0,
			"byteLength":400,
			"byteOffset":90272
		},
		{
			"buffer":0,
			"byteLength":1600,
			"byteOffset":90672
		}
	],
	"buffers":[
		{
			"byteLength":92272,
			"uri":"data:application/octet-stream;base64,"
		}
	]
}
