{
	"asset":{
		"generator":"Khronos glTF Blender I/O v3.6.27",
		"version":"2.0"
	},
	"scene":0,
	"scenes":[
		{
			"name":"Scene",
			"nodes":[
				0
			]
		}
	],
	"nodes":[
		{
			"mesh":0,
			"name":"\u041a\u0443\u0431",
			"scale":[
				8.149313926696777,
				1,
				0.3352924585342407
			],
			"translation":[
				0,
				4.256965637207031,
				-2.3821709156036377
			]
		}
	],
	"materials":[
		{
			"doubleSided":true,
			"name":"\u041c\u0430\u0442\u0435\u0440\u0438\u0430\u043b.033",
			"pbrMetallicRoughness":{
				"baseColorFactor":[
					0.018848532810807228,
					0.018848532810807228,
					0.018848532810807228,
					1
				],
				"metallicFactor":0,
				"roughnessFactor":0.5
			}
		},
		{
			"doubleSided":true,
			"name":"\u041c\u0430\u0442\u0435\u0440\u0438\u0430\u043b.034",
			"pbrMetallicRoughness":{
				"baseColorFactor":[
					0.01923123560845852,
					0.03164267539978027,
					0.05218658968806267,
					1
				],
				"metallicFactor":0,
				"roughnessFactor":0.5
			}
		}
	],
	"meshes":[
		{
			"name":"\u041a\u0443\u0431.017",
			"primitives":[
				{
					"attributes":{
						"POSITION":0,
						"NORMAL":1,
						"TEXCOORD_0":2
					},
					"indices":3,
					"material":0
				},
				{
					"attributes":{
						"POSITION":4,
						"NORMAL":5,
						"TEXCOORD_0":6
					},
					"indices":7,
					"material":1
				}
			]
		}
	],
	"accessors":[
		{
			"bufferView":0,
			"componentType":5126,
			"count":217,
			"max":[
				1,
				1.586033821105957,
				1
			],
			"min":[
				-1,
				-2.7014544010162354,
				-41.59251022338867
			],
			"type":"VEC3"
		},
		{
			"bufferView":1,
			"componentType":5126,
			"count":217,
			"type":"VEC3"
		},
		{
			"bufferView":2,
			"componentType":5126,
			"count":217,
			"type":"VEC2"
		},
		{
			"bufferView":3,
			"componentType":5123,
			"count":528,
			"type":"SCALAR"
		},
		{
			"bufferView":4,
			"componentType":5126,
			"count":67,
			"max":[
				0.9218827486038208,
				1,
				1
			],
			"min":[
				-0.9099555611610413,
				-2.7014544010162354,
				-6.650359153747559
			],
			"type":"VEC3"
		},
		{
			"bufferView":5,
			"componentType":5126,
			"count":67,
			"type":"VEC3"
		},
		{
			"bufferView":6,
			"componentType":5126,
			"count":67,
			"type":"VEC2"
		},
		{
			"bufferView":7,
			"componentType":5123,
			"count":156,
			"type":"SCALAR"
		}
	],
	"bufferViews":[
		{
			"buffer":0,
			"byteLength":2604,
			"byteOffset":0,
			"target":34962
		},
		{
			"buffer":0,
			"byteLength":2604,
			"byteOffset":2604,
			"target":34962
		},
		{
			"buffer":0,
			"byteLength":1736,
			"byteOffset":5208,
			"target":34962
		},
		{
			"buffer":0,
			"byteLength":1056,
			"byteOffset":6944,
			"target":34963
		},
		{
			"buffer":0,
			"byteLength":804,
			"byteOffset":8000,
			"target":34962
		},
		{
			"buffer":0,
			"byteLength":804,
			"byteOffset":8804,
			"target":34962
		},
		{
			"buffer":0,
			"byteLength":536,
			"byteOffset":9608,
			"target":34962
		},
		{
			"buffer":0,
			"byteLength":312,
			"byteOffset":10144,
			"target":34963
		}
	],
	"buffers":[
		{
			"byteLength":10456,
			"uri":"data:application/octet-stream;base64,"
		}
	]
}
