{
	"asset":{
		"generator":"Khronos glTF Blender I/O v3.6.27",
		"version":"2.0"
	},
	"scene":0,
	"scenes":[
		{
			"name":"Scene",
			"nodes":[
				0
			]
		}
	],
	"nodes":[
		{
			"mesh":0,
			"name":"\u041a\u0443\u0431.001",
			"rotation":[
				0,
				0,
				-0.13052618503570557,
				0.9914448857307434
			],
			"scale":[
				1,
				11.402438163757324,
				0.22846245765686035
			],
			"translation":[
				3.945458173751831,
				-19.182525634765625,
				-6.843698024749756
			]
		}
	],
	"materials":[
		{
			"doubleSided":true,
			"name":"\u041c\u0430\u0442\u0435\u0440\u0438\u0430\u043b.029",
			"pbrMetallicRoughness":{
				"baseColorFactor":[
					0.1084180623292923,
					0.14899376034736633,
					0.15743400156497955,
					1
				],
				"metallicFactor":0,
				"roughnessFactor":0.5
			}
		},
		{
			"doubleSided":true,
			"name":"\u041c\u0430\u0442\u0435\u0440\u0438\u0430\u043b.030",
			"pbrMetallicRoughness":{
				"baseColorFactor":[
					0.800000011920929,
					0.800000011920929,
					0.800000011920929,
					1
				],
				"metallicFactor":0,
				"roughnessFactor":0.5
			}
		}
	],
	"meshes":[
		{
			"name":"\u041a\u0443\u0431.016",
			"primitives":[
				{
					"attributes":{
						"POSITION":0,
						"NORMAL":1,
						"TEXCOORD_0":2
					},
					"indices":3,
					"material":0
				},
				{
					"attributes":{
						"POSITION":4,
						"NORMAL":5,
						"TEXCOORD_0":6
					},
					"indices":7,
					"material":1
				}
			]
		}
	],
	"accessors":[
		{
			"bufferView":0,
			"componentType":5126,
			"count":158,
			"max":[
				3.6904220581054688,
				1.086443543434143,
				2.5510711669921875
			],
			"min":[
				-14.083203315734863,
				-1.6854615211486816,
				-7.0644683837890625
			],
			"type":"VEC3"
		},
		{
			"bufferView":1,
			"componentType":5126,
			"count":158,
			"type":"VEC3"
		},
		{
			"bufferView":2,
			"componentType":5126,
			"count":158,
			"type":"VEC2"
		},
		{
			"bufferView":3,
			"componentType":5123,
			"count":228,
			"type":"SCALAR"
		},
		{
			"bufferView":4,
			"componentType":5126,
			"count":134,
			"max":[
				4.436805725097656,
				-0.5622735619544983,
				3.9950625896453857
			],
			"min":[
				-5.5565643310546875,
				-1.745053768157959,
				-0.4870530366897583
			],
			"type":"VEC3"
		},
		{
			"bufferView":5,
			"componentType":5126,
			"count":134,
			"type":"VEC3"
		},
		{
			"bufferView":6,
			"componentType":5126,
			"count":134,
			"type":"VEC2"
		},
		{
			"bufferView":7,
			"componentType":5123,
			"count":216,
			"type":"SCALAR"
		}
	],
	"bufferViews":[
		{
			"buffer":0,
			"byteLength":1896,
			"byteOffset":0,
			"target":34962
		},
		{
			"buffer":0,
			"byteLength":1896,
			"byteOffset":1896,
			"target":34962
		},
		{
			"buffer":0,
			"byteLength":1264,
			"byteOffset":3792,
			"target":34962
		},
		{
			"buffer":0,
			"byteLength":456,
			"byteOffset":5056,
			"target":34963
		},
		{
			"buffer":0,
			"byteLength":1608,
			"byteOffset":5512,
			"target":34962
		},
		{
			"buffer":0,
			"byteLength":1608,
			"byteOffset":7120,
			"target":34962
		},
		{
			"buffer":0,
			"byteLength":1072,
			"byteOffset":8728,
			"target":34962
		},
		{
			"buffer":0,
			"byteLength":432,
			"byteOffset":9800,
			"target":34963
		}
	],
	"buffers":[
		{
			"byteLength":10232,
			"uri":"data:application/octet-stream;base64,"
		}
	]
}
