{
	"asset":{
		"generator":"Khronos glTF Blender I/O v3.6.27",
		"version":"2.0"
	},
	"scene":0,
	"scenes":[
		{
			"name":"Scene",
			"nodes":[
				0,
				1,
				2,
				3,
				4,
				5,
				6,
				7,
				8,
				9,
				10
			]
		}
	],
	"nodes":[
		{
			"mesh":0,
			"name":"\u0426\u0438\u043b\u0438\u043d\u0434\u0440.006",
			"scale":[
				1.2849178314208984,
				0.8201079964637756,
				1.2849178314208984
			],
			"translation":[
				0,
				7.051377296447754,
				0
			]
		},
		{
			"mesh":1,
			"name":"\u0426\u0438\u043b\u0438\u043d\u0434\u0440.004",
			"scale":[
				1.215212345123291,
				0.7756179571151733,
				1.215212345123291
			],
			"translation":[
				0,
				3.791947364807129,
				0
			]
		},
		{
			"mesh":2,
			"name":"\u0426\u0438\u043b\u0438\u043d\u0434\u0440.005",
			"scale":[
				1.1957162618637085,
				0.7631744742393494,
				1.1957162618637085
			],
			"translation":[
				0,
				5.401471138000488,
				0
			]
		},
		{
			"mesh":3,
			"name":"\u0426\u0438\u043b\u0438\u043d\u0434\u0440",
			"scale":[
				1.2729934453964233,
				0.8124971389770508,
				1.2729934453964233
			],
			"translation":[
				0,
				7.036190509796143,
				0
			]
		},
		{
			"mesh":4,
			"name":"\u0426\u0438\u043b\u0438\u043d\u0434\u0440.001",
			"scale":[
				1.2729934453964233,
				0.8124971389770508,
				1.2729934453964233
			],
			"translation":[
				0,
				5.4015960693359375,
				0
			]
		},
		{
			"mesh":5,
			"name":"\u0426\u0438\u043b\u0438\u043d\u0434\u0440.002",
			"scale":[
				1.2729934453964233,
				0.8124971389770508,
				1.2729934453964233
			],
			"translation":[
				0,
				3.807008981704712,
				0
			]
		},
		{
			"mesh":6,
			"name":"\u0426\u0438\u043b\u0438\u043d\u0434\u0440.003",
			"scale":[
				0.60185706615448,
				4.2122626304626465,
				0.60185706615448
			],
			"translation":[
				0,
				-0.9357242584228516,
				0
			]
		},
		{
			"mesh":7,
			"name":"\u0426\u0438\u043b\u0438\u043d\u0434\u0440.007",
			"scale":[
				1.4746620655059814,
				0.25798651576042175,
				1.369075894355774
			],
			"translation":[
				0,
				7.962033271789551,
				0
			]
		},
		{
			"mesh":8,
			"name":"\u0426\u0438\u043b\u0438\u043d\u0434\u0440.008",
			"scale":[
				1.4746620655059814,
				0.25798651576042175,
				1.369075894355774
			],
			"translation":[
				0,
				6.281775951385498,
				0
			]
		},
		{
			"mesh":9,
			"name":"\u0426\u0438\u043b\u0438\u043d\u0434\u0440.009",
			"scale":[
				1.4746620655059814,
				0.25798651576042175,
				1.369075894355774
			],
			"translation":[
				0,
				4.539622783660889,
				0
			]
		},
		{
			"mesh":10,
			"name":"\u0426\u0438\u043b\u0438\u043d\u0434\u0440.010",
			"scale":[
				1.4746620655059814,
				0.25798651576042175,
				1.369075894355774
			],
			"translation":[
				0,
				2.964634418487549,
				0
			]
		}
	],
	"animations":[
		{
			"channels":[
				{
					"sampler":0,
					"target":{
						"node":0,
						"path":"scale"
					}
				}
			],
			"name":"\u0426\u0438\u043b\u0438\u043d\u0434\u0440.006Action",
			"samplers":[
				{
					"input":34,
					"interpolation":"STEP",
					"output":35
				}
			]
		},
		{
			"channels":[
				{
					"sampler":0,
					"target":{
						"node":1,
						"path":"scale"
					}
				}
			],
			"name":"\u0426\u0438\u043b\u0438\u043d\u0434\u0440.004Action",
			"samplers":[
				{
					"input":34,
					"interpolation":"STEP",
					"output":36
				}
			]
		},
		{
			"channels":[
				{
					"sampler":0,
					"target":{
						"node":2,
						"path":"scale"
					}
				}
			],
			"name":"\u0426\u0438\u043b\u0438\u043d\u0434\u0440.005Action",
			"samplers":[
				{
					"input":34,
					"interpolation":"STEP",
					"output":37
				}
			]
		}
	],
	"materials":[
		{
			"doubleSided":true,
			"name":"\u041c\u0430\u0442\u0435\u0440\u0438\u0430\u043b.025",
			"pbrMetallicRoughness":{
				"baseColorFactor":[
					1,
					0.015953388065099716,
					0.015953388065099716,
					1
				],
				"metallicFactor":0,
				"roughnessFactor":0.5
			}
		},
		{
			"doubleSided":true,
			"name":"\u041c\u0430\u0442\u0435\u0440\u0438\u0430\u043b.027",
			"pbrMetallicRoughness":{
				"baseColorFactor":[
					0.13980047404766083,
					1,
					0.11530572175979614,
					1
				],
				"metallicFactor":0,
				"roughnessFactor":0.5
			}
		},
		{
			"doubleSided":true,
			"name":"\u041c\u0430\u0442\u0435\u0440\u0438\u0430\u043b.026",
			"pbrMetallicRoughness":{
				"baseColorFactor":[
					1,
					0.7694372534751892,
					0.03386349231004715,
					1
				],
				"metallicFactor":0,
				"roughnessFactor":0.5
			}
		},
		{
			"doubleSided":true,
			"name":"\u041c\u0430\u0442\u0435\u0440\u0438\u0430\u043b.004",
			"pbrMetallicRoughness":{
				"baseColorFactor":[
					0.162641242146492,
					0.014860227704048157,
					0.011775430291891098,
					1
				],
				"metallicFactor":0,
				"roughnessFactor":0.5
			}
		},
		{
			"doubleSided":true,
			"name":"\u041c\u0430\u0442\u0435\u0440\u0438\u0430\u043b",
			"pbrMetallicRoughness":{
				"baseColorFactor":[
					0.8000000715255737,
					0.40535637736320496,
					0.06611783057451248,
					1
				],
				"metallicFactor":0,
				"roughnessFactor":0.5
			}
		},
		{
			"doubleSided":true,
			"name":"\u041c\u0430\u0442\u0435\u0440\u0438\u0430\u043b.002",
			"pbrMetallicRoughness":{
				"baseColorFactor":[
					0.012892656959593296,
					0.05221778154373169,
					0.005481939297169447,
					1
				],
				"metallicFactor":0,
				"roughnessFactor":0.5
			}
		},
		{
			"doubleSided":true,
			"name":"\u041c\u0430\u0442\u0435\u0440\u0438\u0430\u043b.011",
			"pbrMetallicRoughness":{
				"baseColorFactor":[
					0.09083746373653412,
					0.09083746373653412,
					0.09083746373653412,
					1
				],
				"metallicFactor":0,
				"roughnessFactor":0.5
			}
		},
		{
			"doubleSided":true,
			"name":"\u041c\u0430\u0442\u0435\u0440\u0438\u0430\u043b.028",
			"pbrMetallicRoughness":{
				"baseColorFactor":[
					0.09083746373653412,
					0.09083746373653412,
					0.09083746373653412,
					1
				],
				"metallicFactor":0,
				"roughnessFactor":0.5
			}
		},
		{
			"doubleSided":true,
			"name":"\u041c\u0430\u0442\u0435\u0440\u0438\u0430\u043b.029",
			"pbrMetallicRoughness":{
				"baseColorFactor":[
					0.09083746373653412,
					0.09083746373653412,
					0.09083746373653412,
					1
				],
				"metallicFactor":0,
				"roughnessFactor":0.5
			}
		},
		{
			"doubleSided":true,
			"name":"\u041c\u0430\u0442\u0435\u0440\u0438\u0430\u043b.030",
			"pbrMetallicRoughness":{
				"baseColorFactor":[
					0.09083746373653412,
					0.09083746373653412,
					0.09083746373653412,
					1
				],
				"metallicFactor":0,
				"roughnessFactor":0.5
			}
		},
		{
			"doubleSided":true,
			"name":"\u041c\u0430\u0442\u0435\u0440\u0438\u0430\u043b.031",
			"pbrMetallicRoughness":{
				"baseColorFactor":[
					0.09083746373653412,
					0.09083746373653412,
					0.09083746373653412,
					1
				],
				"metallicFactor":0,
				"roughnessFactor":0.5
			}
		}
	],
	"meshes":[
		{
			"name":"\u0426\u0438\u043b\u0438\u043d\u0434\u0440.043",
			"primitives":[
				{
					"attributes":{
						"POSITION":0,
						"NORMAL":1,
						"TEXCOORD_0":2
					},
					"indices":3,
					"material":0
				}
			]
		},
		{
			"name":"\u0426\u0438\u043b\u0438\u043d\u0434\u0440.041",
			"primitives":[
				{
					"attributes":{
						"POSITION":4,
						"NORMAL":5,
						"TEXCOORD_0":6
					},
					"indices":3,
					"material":1
				}
			]
		},
		{
			"name":"\u0426\u0438\u043b\u0438\u043d\u0434\u0440.042",
			"primitives":[
				{
					"attributes":{
						"POSITION":7,
						"NORMAL":8,
						"TEXCOORD_0":9
					},
					"indices":3,
					"material":2
				}
			]
		},
		{
			"name":"\u0426\u0438\u043b\u0438\u043d\u0434\u0440.036",
			"primitives":[
				{
					"attributes":{
						"POSITION":10,
						"NORMAL":11,
						"TEXCOORD_0":12
					},
					"indices":3,
					"material":3
				}
			]
		},
		{
			"name":"\u0426\u0438\u043b\u0438\u043d\u0434\u0440.037",
			"primitives":[
				{
					"attributes":{
						"POSITION":13,
						"NORMAL":14,
						"TEXCOORD_0":15
					},
					"indices":3,
					"material":4
				}
			]
		},
		{
			"name":"\u0426\u0438\u043b\u0438\u043d\u0434\u0440.038",
			"primitives":[
				{
					"attributes":{
						"POSITION":16,
						"NORMAL":17,
						"TEXCOORD_0":18
					},
					"indices":3,
					"material":5
				}
			]
		},
		{
			"name":"\u0426\u0438\u043b\u0438\u043d\u0434\u0440.039",
			"primitives":[
				{
					"attributes":{
						"POSITION":19,
						"NORMAL":20,
						"TEXCOORD_0":21
					},
					"indices":3,
					"material":6
				}
			]
		},
		{
			"name":"\u0426\u0438\u043b\u0438\u043d\u0434\u0440.044",
			"primitives":[
				{
					"attributes":{
						"POSITION":22,
						"NORMAL":23,
						"TEXCOORD_0":24
					},
					"indices":3,
					"material":7
				}
			]
		},
		{
			"name":"\u0426\u0438\u043b\u0438\u043d\u0434\u0440.045",
			"primitives":[
				{
					"attributes":{
						"POSITION":25,
						"NORMAL":26,
						"TEXCOORD_0":27
					},
					"indices":3,
					"material":8
				}
			]
		},
		{
			"name":"\u0426\u0438\u043b\u0438\u043d\u0434\u0440.046",
			"primitives":[
				{
					"attributes":{
						"POSITION":28,
						"NORMAL":29,
						"TEXCOORD_0":30
					},
					"indices":3,
					"material":9
				}
			]
		},
		{
			"name":"\u0426\u0438\u043b\u0438\u043d\u0434\u0440.047",
			"primitives":[
				{
					"attributes":{
						"POSITION":31,
						"NORMAL":32,
						"TEXCOORD_0":33
					},
					"indices":3,
					"material":10
				}
			]
		}
	],
	"accessors":[
		{
			"bufferView":0,
			"componentType":5126,
			"count":66,
			"max":[
				1,
				1,
				1
			],
			"min":[
				-1,
				-1,
				-1
			],
			"type":"VEC3"
		},
		{
			"bufferView":1,
			"componentType":5126,
			"count":66,
			"type":"VEC3"
		},
		{
			"bufferView":2,
			"componentType":5126,
			"count":66,
			"type":"VEC2"
		},
		{
			"bufferView":3,
			"componentType":5123,
			"count":180,
			"type":"SCALAR"
		},
		{
			"bufferView":4,
			"componentType":5126,
			"count":66,
			"max":[
				1,
				1,
				1
			],
			"min":[
				-1,
				-1,
				-1
			],
			"type":"VEC3"
		},
		{
			"bufferView":5,
			"componentType":5126,
			"count":66,
			"type":"VEC3"
		},
		{
			"bufferView":6,
			"componentType":5126,
			"count":66,
			"type":"VEC2"
		},
		{
			"bufferView":7,
			"componentType":5126,
			"count":66,
			"max":[
				1,
				1,
				1
			],
			"min":[
				-1,
				-1,
				-1
			],
			"type":"VEC3"
		},
		{
			"bufferView":8,
			"componentType":5126,
			"count":66,
			"type":"VEC3"
		},
		{
			"bufferView":9,
			"componentType":5126,
			"count":66,
			"type":"VEC2"
		},
		{
			"bufferView":10,
			"componentType":5126,
			"count":66,
			"max":[
				1,
				1,
				1
			],
			"min":[
				-1,
				-1,
				-1
			],
			"type":"VEC3"
		},
		{
			"bufferView":11,
			"componentType":5126,
			"count":66,
			"type":"VEC3"
		},
		{
			"bufferView":12,
			"componentType":5126,
			"count":66,
			"type":"VEC2"
		},
		{
			"bufferView":13,
			"componentType":5126,
			"count":66,
			"max":[
				1,
				1,
				1
			],
			"min":[
				-1,
				-1,
				-1
			],
			"type":"VEC3"
		},
		{
			"bufferView":14,
			"componentType":5126,
			"count":66,
			"type":"VEC3"
		},
		{
			"bufferView":15,
			"componentType":5126,
			"count":66,
			"type":"VEC2"
		},
		{
			"bufferView":16,
			"componentType":5126,
			"count":66,
			"max":[
				1,
				1,
				1
			],
			"min":[
				-1,
				-1,
				-1
			],
			"type":"VEC3"
		},
		{
			"bufferView":17,
			"componentType":5126,
			"count":66,
			"type":"VEC3"
		},
		{
			"bufferView":18,
			"componentType":5126,
			"count":66,
			"type":"VEC2"
		},
		{
			"bufferView":19,
			"componentType":5126,
			"count":66,
			"max":[
				1,
				1,
				1
			],
			"min":[
				-1,
				-1,
				-1
			],
			"type":"VEC3"
		},
		{
			"bufferView":20,
			"componentType":5126,
			"count":66,
			"type":"VEC3"
		},
		{
			"bufferView":21,
			"componentType":5126,
			"count":66,
			"type":"VEC2"
		},
		{
			"bufferView":22,
			"componentType":5126,
			"count":66,
			"max":[
				1,
				1,
				1
			],
			"min":[
				-1,
				-1,
				-1
			],
			"type":"VEC3"
		},
		{
			"bufferView":23,
			"componentType":5126,
			"count":66,
			"type":"VEC3"
		},
		{
			"bufferView":24,
			"componentType":5126,
			"count":66,
			"type":"VEC2"
		},
		{
			"bufferView":25,
			"componentType":5126,
			"count":66,
			"max":[
				1,
				1,
				1
			],
			"min":[
				-1,
				-1,
				-1
			],
			"type":"VEC3"
		},
		{
			"bufferView":26,
			"componentType":5126,
			"count":66,
			"type":"VEC3"
		},
		{
			"bufferView":27,
			"componentType":5126,
			"count":66,
			"type":"VEC2"
		},
		{
			"bufferView":28,
			"componentType":5126,
			"count":66,
			"max":[
				1,
				1,
				1
			],
			"min":[
				-1,
				-1,
				-1
			],
			"type":"VEC3"
		},
		{
			"bufferView":29,
			"componentType":5126,
			"count":66,
			"type":"VEC3"
		},
		{
			"bufferView":30,
			"componentType":5126,
			"count":66,
			"type":"VEC2"
		},
		{
			"bufferView":31,
			"componentType":5126,
			"count":66,
			"max":[
				1,
				1,
				1
			],
			"min":[
				-1,
				-1,
				-1
			],
			"type":"VEC3"
		},
		{
			"bufferView":32,
			"componentType":5126,
			"count":66,
			"type":"VEC3"
		},
		{
			"bufferView":33,
			"componentType":5126,
			"count":66,
			"type":"VEC2"
		},
		{
			"bufferView":34,
			"componentType":5126,
			"count":101,
			"max":[
				4.166666666666667
			],
			"min":[
				0
			],
			"type":"SCALAR"
		},
		{
			"bufferView":35,
			"componentType":5126,
			"count":101,
			"type":"VEC3"
		},
		{
			"bufferView":36,
			"componentType":5126,
			"count":101,
			"type":"VEC3"
		},
		{
			"bufferView":37,
			"componentType":5126,
			"count":101,
			"type":"VEC3"
		}
	],
	"bufferViews":[
		{
			"buffer":0,
			"byteLength":792,
			"byteOffset":0,
			"target":34962
		},
		{
			"buffer":0,
			"byteLength":792,
			"byteOffset":792,
			"target":34962
		},
		{
			"buffer":0,
			"byteLength":528,
			"byteOffset":1584,
			"target":34962
		},
		{
			"buffer":0,
			"byteLength":360,
			"byteOffset":2112,
			"target":34963
		},
		{
			"buffer":0,
			"byteLength":792,
			"byteOffset":2472,
			"target":34962
		},
		{
			"buffer":0,
			"byteLength":792,
			"byteOffset":3264,
			"target":34962
		},
		{
			"buffer":0,
			"byteLength":528,
			"byteOffset":4056,
			"target":34962
		},
		{
			"buffer":0,
			"byteLength":792,
			"byteOffset":4584,
			"target":34962
		},
		{
			"buffer":0,
			"byteLength":792,
			"byteOffset":5376,
			"target":34962
		},
		{
			"buffer":0,
			"byteLength":528,
			"byteOffset":6168,
			"target":34962
		},
		{
			"buffer":0,
			"byteLength":792,
			"byteOffset":6696,
			"target":34962
		},
		{
			"buffer":0,
			"byteLength":792,
			"byteOffset":7488,
			"target":34962
		},
		{
			"buffer":0,
			"byteLength":528,
			"byteOffset":8280,
			"target":34962
		},
		{
			"buffer":0,
			"byteLength":792,
			"byteOffset":8808,
			"target":34962
		},
		{
			"buffer":0,
			"byteLength":792,
			"byteOffset":9600,
			"target":34962
		},
		{
			"buffer":0,
			"byteLength":528,
			"byteOffset":10392,
			"target":34962
		},
		{
			"buffer":0,
			"byteLength":792,
			"byteOffset":10920,
			"target":34962
		},
		{
			"buffer":0,
			"byteLength":792,
			"byteOffset":11712,
			"target":34962
		},
		{
			"buffer":0,
			"byteLength":528,
			"byteOffset":12504,
			"target":34962
		},
		{
			"buffer":0,
			"byteLength":792,
			"byteOffset":13032,
			"target":34962
		},
		{
			"buffer":0,
			"byteLength":792,
			"byteOffset":13824,
			"target":34962
		},
		{
			"buffer":0,
			"byteLength":528,
			"byteOffset":14616,
			"target":34962
		},
		{
			"buffer":0,
			"byteLength":792,
			"byteOffset":15144,
			"target":34962
		},
		{
			"buffer":0,
			"byteLength":792,
			"byteOffset":15936,
			"target":34962
		},
		{
			"buffer":0,
			"byteLength":528,
			"byteOffset":16728,
			"target":34962
		},
		{
			"buffer":0,
			"byteLength":792,
			"byteOffset":17256,
			"target":34962
		},
		{
			"buffer":0,
			"byteLength":792,
			"byteOffset":18048,
			"target":34962
		},
		{
			"buffer":0,
			"byteLength":528,
			"byteOffset":18840,
			"target":34962
		},
		{
			"buffer":0,
			"byteLength":792,
			"byteOffset":19368,
			"target":34962
		},
		{
			"buffer":0,
			"byteLength":792,
			"byteOffset":20160,
			"target":34962
		},
		{
			"buffer":0,
			"byteLength":528,
			"byteOffset":20952,
			"target":34962
		},
		{
			"buffer":0,
			"byteLength":792,
			"byteOffset":21480,
			"target":34962
		},
		{
			"buffer":0,
			"byteLength":792,
			"byteOffset":22272,
			"target":34962
		},
		{
			"buffer":0,
			"byteLength":528,
			"byteOffset":23064,
			"target":34962
		},
		{
			"buffer":0,
			"byteLength":404,
			"byteOffset":23592
		},
		{
			"buffer":0,
			"byteLength":1212,
			"byteOffset":23996
		},
		{
			"buffer":0,
			"byteLength":1212,
			"byteOffset":25208
		},
		{
			"buffer":0,
			"byteLength":1212,
			"byteOffset":26420
		}
	],
	"buffers":[
		{
			"byteLength":27632,
			"uri":"data:application/octet-stream;base64,"
		}
	]
}
