{
	"asset":{
		"generator":"Khronos glTF Blender I/O v3.6.27",
		"version":"2.0"
	},
	"scene":0,
	"scenes":[
		{
			"name":"Scene",
			"nodes":[
				0
			]
		}
	],
	"nodes":[
		{
			"mesh":0,
			"name":"tokar_face_model_1",
			"rotation":[
				0.70710688829422,
				0,
				0,
				0.7071066498756409
			]
		}
	],
	"materials":[
		{
			"doubleSided":true,
			"name":"\u041c\u0430\u0442\u0435\u0440\u0438\u0430\u043b.001",
			"pbrMetallicRoughness":{
				"baseColorFactor":[
					0.11493457853794098,
					0.10505692660808563,
					0.10803680121898651,
					1
				],
				"metallicFactor":0,
				"roughnessFactor":0.5
			}
		}
	],
	"meshes":[
		{
			"name":"tokar_face_model_1",
			"primitives":[
				{
					"attributes":{
						"POSITION":0,
						"NORMAL":1
					},
					"indices":2,
					"material":0
				}
			]
		}
	],
	"accessors":[
		{
			"bufferView":0,
			"componentType":5126,
			"count":1325,
			"max":[
				1.5532392263412476,
				0.9935945868492126,
				0
			],
			"min":[
				-0.993594229221344,
				-0.9935950040817261,
				-0.9975767135620117
			],
			"type":"VEC3"
		},
		{
			"bufferView":1,
			"componentType":5126,
			"count":1325,
			"type":"VEC3"
		},
		{
			"bufferView":2,
			"componentType":5123,
			"count":7530,
			"type":"SCALAR"
		}
	],
	"bufferViews":[
		{
			"buffer":0,
			"byteLength":15900,
			"byteOffset":0,
			"target":34962
		},
		{
			"buffer":0,
			"byteLength":15900,
			"byteOffset":15900,
			"target":34962
		},
		{
			"buffer":0,
			"byteLength":15060,
			"byteOffset":31800,
			"target":34963
		}
	],
	"buffers":[
		{
			"byteLength":46860,
			"uri":"data:application/octet-stream;base64,"
		}
	]
}
