{
	"asset":{
		"generator":"Khronos glTF Blender I/O v3.6.27",
		"version":"2.0"
	},
	"scene":0,
	"scenes":[
		{
			"name":"Scene",
			"nodes":[
				0,
				1,
				2,
				3
			]
		}
	],
	"nodes":[
		{
			"mesh":0,
			"name":"\u041a\u0443\u0431",
			"scale":[
				0.6918632984161377,
				1,
				1.2444844245910645
			]
		},
		{
			"mesh":1,
			"name":"\u041a\u0443\u0431.001",
			"rotation":[
				0,
				0,
				-0.5488942265510559,
				0.8358917832374573
			],
			"scale":[
				0.8340927958488464,
				0.3380395174026489,
				1.228373408317566
			],
			"translation":[
				0.5236707925796509,
				0.771722674369812,
				0
			]
		},
		{
			"mesh":2,
			"name":"\u0422\u0435\u043a\u0441\u0442",
			"rotation":[
				0.3713068962097168,
				0.6017734408378601,
				-0.3713068664073944,
				0.6017733812332153
			],
			"scale":[
				0.4874555468559265,
				0.4874555468559265,
				0.4874555468559265
			],
			"translation":[
				0.7517613768577576,
				1.3405741453170776,
				0.562375545501709
			]
		},
		{
			"mesh":3,
			"name":"\u0426\u0438\u043b\u0438\u043d\u0434\u0440",
			"rotation":[
				0,
				0,
				-0.5265520215034485,
				0.8501429557800293
			],
			"scale":[
				0.1367192268371582,
				0.1367192268371582,
				0.1367192268371582
			],
			"translation":[
				0.5824042558670044,
				1.369999647140503,
				0.8778066039085388
			]
		}
	],
	"animations":[
		{
			"channels":[
				{
					"sampler":0,
					"target":{
						"node":3,
						"path":"translation"
					}
				}
			],
			"name":"\u0426\u0438\u043b\u0438\u043d\u0434\u0440Action",
			"samplers":[
				{
					"input":16,
					"interpolation":"STEP",
					"output":17
				}
			]
		}
	],
	"materials":[
		{
			"doubleSided":true,
			"name":"\u041c\u0430\u0442\u0435\u0440\u0438\u0430\u043b.001",
			"pbrMetallicRoughness":{
				"baseColorFactor":[
					0.09083746373653412,
					0.09083746373653412,
					0.09083746373653412,
					1
				],
				"metallicFactor":0,
				"roughnessFactor":0.5
			}
		},
		{
			"doubleSided":true,
			"name":"\u041c\u0430\u0442\u0435\u0440\u0438\u0430\u043b.003",
			"pbrMetallicRoughness":{
				"baseColorFactor":[
					0.007193451747298241,
					0.007193451747298241,
					0.007193451747298241,
					1
				],
				"metallicFactor":0,
				"roughnessFactor":0.5
			}
		},
		{
			"doubleSided":true,
			"name":"\u041c\u0430\u0442\u0435\u0440\u0438\u0430\u043b.002",
			"pbrMetallicRoughness":{
				"baseColorFactor":[
					0.012892656959593296,
					0.05221778154373169,
					0.005481939297169447,
					1
				],
				"metallicFactor":0,
				"roughnessFactor":0.5
			}
		}
	],
	"meshes":[
		{
			"name":"\u041a\u0443\u0431.029",
			"primitives":[
				{
					"attributes":{
						"POSITION":0,
						"NORMAL":1,
						"TEXCOORD_0":2
					},
					"indices":3,
					"material":0
				}
			]
		},
		{
			"name":"\u041a\u0443\u0431.030",
			"primitives":[
				{
					"attributes":{
						"POSITION":4,
						"NORMAL":5,
						"TEXCOORD_0":6
					},
					"indices":7
				}
			]
		},
		{
			"name":"\u0422\u0435\u043a\u0441\u0442",
			"primitives":[
				{
					"attributes":{
						"POSITION":8,
						"NORMAL":9,
						"TEXCOORD_0":10
					},
					"indices":11,
					"material":1
				}
			]
		},
		{
			"name":"\u0426\u0438\u043b\u0438\u043d\u0434\u0440.048",
			"primitives":[
				{
					"attributes":{
						"POSITION":12,
						"NORMAL":13,
						"TEXCOORD_0":14
					},
					"indices":15,
					"material":2
				}
			]
		}
	],
	"accessors":[
		{
			"bufferView":0,
			"componentType":5126,
			"count":66,
			"max":[
				1.914478063583374,
				1.7432191371917725,
				1
			],
			"min":[
				-1,
				-0.048150479793548584,
				-1
			],
			"type":"VEC3"
		},
		{
			"bufferView":1,
			"componentType":5126,
			"count":66,
			"type":"VEC3"
		},
		{
			"bufferView":2,
			"componentType":5126,
			"count":66,
			"type":"VEC2"
		},
		{
			"bufferView":3,
			"componentType":5123,
			"count":108,
			"type":"SCALAR"
		},
		{
			"bufferView":4,
			"componentType":5126,
			"count":24,
			"max":[
				0.7759963870048523,
				1.2317787408828735,
				1
			],
			"min":[
				-1,
				-1,
				-1
			],
			"type":"VEC3"
		},
		{
			"bufferView":5,
			"componentType":5126,
			"count":24,
			"type":"VEC3"
		},
		{
			"bufferView":6,
			"componentType":5126,
			"count":24,
			"type":"VEC2"
		},
		{
			"bufferView":7,
			"componentType":5123,
			"count":36,
			"type":"SCALAR"
		},
		{
			"bufferView":8,
			"componentType":5126,
			"count":7939,
			"max":[
				2.4100000858306885,
				0,
				2.009000062942505
			],
			"min":[
				0.04100000113248825,
				-0.10000000149011612,
				-0.5420000553131104
			],
			"type":"VEC3"
		},
		{
			"bufferView":9,
			"componentType":5126,
			"count":7939,
			"type":"VEC3"
		},
		{
			"bufferView":10,
			"componentType":5126,
			"count":7939,
			"type":"VEC2"
		},
		{
			"bufferView":11,
			"componentType":5123,
			"count":15768,
			"type":"SCALAR"
		},
		{
			"bufferView":12,
			"componentType":5126,
			"count":66,
			"max":[
				1,
				1,
				1
			],
			"min":[
				-1,
				-1,
				-1
			],
			"type":"VEC3"
		},
		{
			"bufferView":13,
			"componentType":5126,
			"count":66,
			"type":"VEC3"
		},
		{
			"bufferView":14,
			"componentType":5126,
			"count":66,
			"type":"VEC2"
		},
		{
			"bufferView":15,
			"componentType":5123,
			"count":180,
			"type":"SCALAR"
		},
		{
			"bufferView":16,
			"componentType":5126,
			"count":81,
			"max":[
				3.3333333333333335
			],
			"min":[
				0
			],
			"type":"SCALAR"
		},
		{
			"bufferView":17,
			"componentType":5126,
			"count":81,
			"type":"VEC3"
		}
	],
	"bufferViews":[
		{
			"buffer":0,
			"byteLength":792,
			"byteOffset":0,
			"target":34962
		},
		{
			"buffer":0,
			"byteLength":792,
			"byteOffset":792,
			"target":34962
		},
		{
			"buffer":0,
			"byteLength":528,
			"byteOffset":1584,
			"target":34962
		},
		{
			"buffer":0,
			"byteLength":216,
			"byteOffset":2112,
			"target":34963
		},
		{
			"buffer":0,
			"byteLength":288,
			"byteOffset":2328,
			"target":34962
		},
		{
			"buffer":0,
			"byteLength":288,
			"byteOffset":2616,
			"target":34962
		},
		{
			"buffer":0,
			"byteLength":192,
			"byteOffset":2904,
			"target":34962
		},
		{
			"buffer":0,
			"byteLength":72,
			"byteOffset":3096,
			"target":34963
		},
		{
			"buffer":0,
			"byteLength":95268,
			"byteOffset":3168,
			"target":34962
		},
		{
			"buffer":0,
			"byteLength":95268,
			"byteOffset":98436,
			"target":34962
		},
		{
			"buffer":0,
			"byteLength":63512,
			"byteOffset":193704,
			"target":34962
		},
		{
			"buffer":0,
			"byteLength":31536,
			"byteOffset":257216,
			"target":34963
		},
		{
			"buffer":0,
			"byteLength":792,
			"byteOffset":288752,
			"target":34962
		},
		{
			"buffer":0,
			"byteLength":792,
			"byteOffset":289544,
			"target":34962
		},
		{
			"buffer":0,
			"byteLength":528,
			"byteOffset":290336,
			"target":34962
		},
		{
			"buffer":0,
			"byteLength":360,
			"byteOffset":290864,
			"target":34963
		},
		{
			"buffer":0,
			"byteLength":324,
			"byteOffset":291224
		},
		{
			"buffer":0,
			"byteLength":972,
			"byteOffset":291548
		}
	],
	"buffers":[
		{
			"byteLength":292520,
			"uri":"data:application/octet-stream;base64,"
		}
	]
}
