{
	"asset":{
		"generator":"Khronos glTF Blender I/O v3.6.27",
		"version":"2.0"
	},
	"scene":0,
	"scenes":[
		{
			"name":"Scene",
			"nodes":[
				0,
				1,
				2,
				3,
				4
			]
		}
	],
	"nodes":[
		{
			"mesh":0,
			"name":"\u0426\u0438\u043b\u0438\u043d\u0434\u0440",
			"rotation":[
				0.29678821563720703,
				0.03893833979964256,
				-0.4236529469490051,
				0.8549378514289856
			],
			"scale":[
				1,
				5.961758136749268,
				1
			]
		},
		{
			"mesh":1,
			"name":"\u0426\u0438\u043b\u0438\u043d\u0434\u0440.001",
			"rotation":[
				0.29678821563720703,
				0.03893833979964256,
				-0.4236529469490051,
				0.8549378514289856
			],
			"scale":[
				1,
				5.961758136749268,
				1
			],
			"translation":[
				0,
				0,
				-2.392350912094116
			]
		},
		{
			"mesh":2,
			"name":"\u0426\u0438\u043b\u0438\u043d\u0434\u0440.002",
			"rotation":[
				0.29678821563720703,
				0.03893833979964256,
				-0.4236529469490051,
				0.8549378514289856
			],
			"scale":[
				1,
				5.961758136749268,
				1
			],
			"translation":[
				-1.174276351928711,
				1.869424819946289,
				-0.9646228551864624
			]
		},
		{
			"mesh":3,
			"name":"\u0426\u0438\u043b\u0438\u043d\u0434\u0440.003",
			"rotation":[
				0.29678821563720703,
				0.038938336074352264,
				-0.4236529469490051,
				0.8549378514289856
			],
			"scale":[
				0.5969448685646057,
				3.5588409900665283,
				0.5969448685646057
			],
			"translation":[
				1.0582973957061768,
				-0.9954589605331421,
				-1.0009461641311646
			]
		},
		{
			"mesh":4,
			"name":"\u0426\u0438\u043b\u0438\u043d\u0434\u0440.004",
			"rotation":[
				0.29678821563720703,
				0.038938336074352264,
				-0.4236529469490051,
				0.8549378514289856
			],
			"scale":[
				0.5969448685646057,
				3.5588409900665283,
				0.5969448685646057
			],
			"translation":[
				-0.3131486177444458,
				2.0766992568969727,
				1.8759734630584717
			]
		}
	],
	"materials":[
		{
			"doubleSided":true,
			"name":"\u041c\u0430\u0442\u0435\u0440\u0438\u0430\u043b.001",
			"pbrMetallicRoughness":{
				"baseColorFactor":[
					0.09083746373653412,
					0.09083746373653412,
					0.09083746373653412,
					1
				],
				"metallicFactor":0,
				"roughnessFactor":0.5
			}
		},
		{
			"doubleSided":true,
			"name":"\u041c\u0430\u0442\u0435\u0440\u0438\u0430\u043b.003",
			"pbrMetallicRoughness":{
				"baseColorFactor":[
					0.007193451747298241,
					0.007193451747298241,
					0.007193451747298241,
					1
				],
				"metallicFactor":0,
				"roughnessFactor":0.5
			}
		},
		{
			"doubleSided":true,
			"name":"\u041c\u0430\u0442\u0435\u0440\u0438\u0430\u043b",
			"pbrMetallicRoughness":{
				"baseColorFactor":[
					0.8000000715255737,
					0.17152057588100433,
					0.0616915188729763,
					1
				],
				"metallicFactor":0,
				"roughnessFactor":0.5
			}
		}
	],
	"meshes":[
		{
			"name":"\u0426\u0438\u043b\u0438\u043d\u0434\u0440.049",
			"primitives":[
				{
					"attributes":{
						"POSITION":0,
						"NORMAL":1,
						"TEXCOORD_0":2
					},
					"indices":3,
					"material":0
				}
			]
		},
		{
			"name":"\u0426\u0438\u043b\u0438\u043d\u0434\u0440.050",
			"primitives":[
				{
					"attributes":{
						"POSITION":4,
						"NORMAL":5,
						"TEXCOORD_0":6
					},
					"indices":7,
					"material":1
				}
			]
		},
		{
			"name":"\u0426\u0438\u043b\u0438\u043d\u0434\u0440.051",
			"primitives":[
				{
					"attributes":{
						"POSITION":8,
						"NORMAL":9,
						"TEXCOORD_0":10
					},
					"indices":11,
					"material":0
				}
			]
		},
		{
			"name":"\u0426\u0438\u043b\u0438\u043d\u0434\u0440.052",
			"primitives":[
				{
					"attributes":{
						"POSITION":12,
						"NORMAL":13,
						"TEXCOORD_0":14
					},
					"indices":15,
					"material":2
				}
			]
		},
		{
			"name":"\u0426\u0438\u043b\u0438\u043d\u0434\u0440.053",
			"primitives":[
				{
					"attributes":{
						"POSITION":16,
						"NORMAL":17,
						"TEXCOORD_0":18
					},
					"indices":19,
					"material":2
				}
			]
		}
	],
	"accessors":[
		{
			"bufferView":0,
			"componentType":5126,
			"count":134,
			"max":[
				1,
				1,
				1
			],
			"min":[
				-1,
				-1,
				-1
			],
			"type":"VEC3"
		},
		{
			"bufferView":1,
			"componentType":5126,
			"count":134,
			"type":"VEC3"
		},
		{
			"bufferView":2,
			"componentType":5126,
			"count":134,
			"type":"VEC2"
		},
		{
			"bufferView":3,
			"componentType":5123,
			"count":372,
			"type":"SCALAR"
		},
		{
			"bufferView":4,
			"componentType":5126,
			"count":134,
			"max":[
				1,
				1,
				1
			],
			"min":[
				-1,
				-1,
				-1
			],
			"type":"VEC3"
		},
		{
			"bufferView":5,
			"componentType":5126,
			"count":134,
			"type":"VEC3"
		},
		{
			"bufferView":6,
			"componentType":5126,
			"count":134,
			"type":"VEC2"
		},
		{
			"bufferView":7,
			"componentType":5123,
			"count":372,
			"type":"SCALAR"
		},
		{
			"bufferView":8,
			"componentType":5126,
			"count":134,
			"max":[
				1,
				1,
				1
			],
			"min":[
				-1,
				-1,
				-1
			],
			"type":"VEC3"
		},
		{
			"bufferView":9,
			"componentType":5126,
			"count":134,
			"type":"VEC3"
		},
		{
			"bufferView":10,
			"componentType":5126,
			"count":134,
			"type":"VEC2"
		},
		{
			"bufferView":11,
			"componentType":5123,
			"count":372,
			"type":"SCALAR"
		},
		{
			"bufferView":12,
			"componentType":5126,
			"count":134,
			"max":[
				1,
				1,
				1
			],
			"min":[
				-1,
				-1,
				-1
			],
			"type":"VEC3"
		},
		{
			"bufferView":13,
			"componentType":5126,
			"count":134,
			"type":"VEC3"
		},
		{
			"bufferView":14,
			"componentType":5126,
			"count":134,
			"type":"VEC2"
		},
		{
			"bufferView":15,
			"componentType":5123,
			"count":372,
			"type":"SCALAR"
		},
		{
			"bufferView":16,
			"componentType":5126,
			"count":134,
			"max":[
				1,
				1,
				1
			],
			"min":[
				-1,
				-1,
				-1
			],
			"type":"VEC3"
		},
		{
			"bufferView":17,
			"componentType":5126,
			"count":134,
			"type":"VEC3"
		},
		{
			"bufferView":18,
			"componentType":5126,
			"count":134,
			"type":"VEC2"
		},
		{
			"bufferView":19,
			"componentType":5123,
			"count":372,
			"type":"SCALAR"
		}
	],
	"bufferViews":[
		{
			"buffer":0,
			"byteLength":1608,
			"byteOffset":0,
			"target":34962
		},
		{
			"buffer":0,
			"byteLength":1608,
			"byteOffset":1608,
			"target":34962
		},
		{
			"buffer":0,
			"byteLength":1072,
			"byteOffset":3216,
			"target":34962
		},
		{
			"buffer":0,
			"byteLength":744,
			"byteOffset":4288,
			"target":34963
		},
		{
			"buffer":0,
			"byteLength":1608,
			"byteOffset":5032,
			"target":34962
		},
		{
			"buffer":0,
			"byteLength":1608,
			"byteOffset":6640,
			"target":34962
		},
		{
			"buffer":0,
			"byteLength":1072,
			"byteOffset":8248,
			"target":34962
		},
		{
			"buffer":0,
			"byteLength":744,
			"byteOffset":9320,
			"target":34963
		},
		{
			"buffer":0,
			"byteLength":1608,
			"byteOffset":10064,
			"target":34962
		},
		{
			"buffer":0,
			"byteLength":1608,
			"byteOffset":11672,
			"target":34962
		},
		{
			"buffer":0,
			"byteLength":1072,
			"byteOffset":13280,
			"target":34962
		},
		{
			"buffer":0,
			"byteLength":744,
			"byteOffset":14352,
			"target":34963
		},
		{
			"buffer":0,
			"byteLength":1608,
			"byteOffset":15096,
			"target":34962
		},
		{
			"buffer":0,
			"byteLength":1608,
			"byteOffset":16704,
			"target":34962
		},
		{
			"buffer":0,
			"byteLength":1072,
			"byteOffset":18312,
			"target":34962
		},
		{
			"buffer":0,
			"byteLength":744,
			"byteOffset":19384,
			"target":34963
		},
		{
			"buffer":0,
			"byteLength":1608,
			"byteOffset":20128,
			"target":34962
		},
		{
			"buffer":0,
			"byteLength":1608,
			"byteOffset":21736,
			"target":34962
		},
		{
			"buffer":0,
			"byteLength":1072,
			"byteOffset":23344,
			"target":34962
		},
		{
			"buffer":0,
			"byteLength":744,
			"byteOffset":24416,
			"target":34963
		}
	],
	"buffers":[
		{
			"byteLength":25160,
			"uri":"data:application/octet-stream;base64,"
		}
	]
}
