{
	"asset":{
		"generator":"Khronos glTF Blender I/O v3.6.27",
		"version":"2.0"
	},
	"scene":0,
	"scenes":[
		{
			"name":"Scene",
			"nodes":[
				0,
				1
			]
		}
	],
	"nodes":[
		{
			"mesh":0,
			"name":"Curve",
			"rotation":[
				0.7071068286895752,
				0,
				0,
				0.7071068286895752
			],
			"scale":[
				405.50653076171875,
				405.50653076171875,
				405.50653076171875
			],
			"translation":[
				0,
				0,
				1.8581621646881104
			]
		},
		{
			"mesh":1,
			"name":"Curve.001",
			"rotation":[
				0.7071068286895752,
				0,
				0,
				0.7071068286895752
			],
			"scale":[
				405.50653076171875,
				405.50653076171875,
				405.50653076171875
			],
			"translation":[
				0,
				0,
				1.8581621646881104
			]
		}
	],
	"animations":[
		{
			"channels":[
				{
					"sampler":0,
					"target":{
						"node":0,
						"path":"rotation"
					}
				}
			],
			"name":"CurveAction",
			"samplers":[
				{
					"input":8,
					"interpolation":"LINEAR",
					"output":9
				}
			]
		},
		{
			"channels":[
				{
					"sampler":0,
					"target":{
						"node":1,
						"path":"rotation"
					}
				}
			],
			"name":"Curve.001Action",
			"samplers":[
				{
					"input":8,
					"interpolation":"LINEAR",
					"output":10
				}
			]
		}
	],
	"materials":[
		{
			"doubleSided":true,
			"name":"\u041c\u0430\u0442\u0435\u0440\u0438\u0430\u043b.034",
			"pbrMetallicRoughness":{
				"baseColorFactor":[
					0.047569647431373596,
					0.32660186290740967,
					0.8000000715255737,
					1
				],
				"metallicFactor":0,
				"roughnessFactor":0.5
			}
		},
		{
			"doubleSided":true,
			"name":"\u041c\u0430\u0442\u0435\u0440\u0438\u0430\u043b.003",
			"pbrMetallicRoughness":{
				"baseColorFactor":[
					0.8000000715255737,
					0.6116887331008911,
					0.13394087553024292,
					1
				],
				"metallicFactor":0,
				"roughnessFactor":0.5
			}
		}
	],
	"meshes":[
		{
			"name":"Curve",
			"primitives":[
				{
					"attributes":{
						"POSITION":0,
						"NORMAL":1,
						"TEXCOORD_0":2
					},
					"indices":3,
					"material":0
				}
			]
		},
		{
			"name":"Curve.001",
			"primitives":[
				{
					"attributes":{
						"POSITION":4,
						"NORMAL":5,
						"TEXCOORD_0":6
					},
					"indices":7,
					"material":1
				}
			]
		}
	],
	"accessors":[
		{
			"bufferView":0,
			"componentType":5126,
			"count":200,
			"max":[
				0.008396812714636326,
				0,
				0.013321226462721825
			],
			"min":[
				-0.025445932522416115,
				-0.010000001639127731,
				-0.020535536110401154
			],
			"type":"VEC3"
		},
		{
			"bufferView":1,
			"componentType":5126,
			"count":200,
			"type":"VEC3"
		},
		{
			"bufferView":2,
			"componentType":5126,
			"count":200,
			"type":"VEC2"
		},
		{
			"bufferView":3,
			"componentType":5123,
			"count":534,
			"type":"SCALAR"
		},
		{
			"bufferView":4,
			"componentType":5126,
			"count":184,
			"max":[
				0.022308753803372383,
				0,
				0.02521549165248871
			],
			"min":[
				-0.01151808351278305,
				-0.010000004433095455,
				-0.008603055030107498
			],
			"type":"VEC3"
		},
		{
			"bufferView":5,
			"componentType":5126,
			"count":184,
			"type":"VEC3"
		},
		{
			"bufferView":6,
			"componentType":5126,
			"count":184,
			"type":"VEC2"
		},
		{
			"bufferView":7,
			"componentType":5123,
			"count":504,
			"type":"SCALAR"
		},
		{
			"bufferView":8,
			"componentType":5126,
			"count":100,
			"max":[
				4.166666666666667
			],
			"min":[
				0.041666666666666664
			],
			"type":"SCALAR"
		},
		{
			"bufferView":9,
			"componentType":5126,
			"count":100,
			"type":"VEC4"
		},
		{
			"bufferView":10,
			"componentType":5126,
			"count":100,
			"type":"VEC4"
		}
	],
	"bufferViews":[
		{
			"buffer":0,
			"byteLength":2400,
			"byteOffset":0,
			"target":34962
		},
		{
			"buffer":0,
			"byteLength":2400,
			"byteOffset":2400,
			"target":34962
		},
		{
			"buffer":0,
			"byteLength":1600,
			"byteOffset":4800,
			"target":34962
		},
		{
			"buffer":0,
			"byteLength":1068,
			"byteOffset":6400,
			"target":34963
		},
		{
			"buffer":0,
			"byteLength":2208,
			"byteOffset":7468,
			"target":34962
		},
		{
			"buffer":0,
			"byteLength":2208,
			"byteOffset":9676,
			"target":34962
		},
		{
			"buffer":0,
			"byteLength":1472,
			"byteOffset":11884,
			"target":34962
		},
		{
			"buffer":0,
			"byteLength":1008,
			"byteOffset":13356,
			"target":34963
		},
		{
			"buffer":0,
			"byteLength":400,
			"byteOffset":14364
		},
		{
			"buffer":0,
			"byteLength":1600,
			"byteOffset":14764
		},
		{
			"buffer":0,
			"byteLength":1600,
			"byteOffset":16364
		}
	],
	"buffers":[
		{
			"byteLength":17964,
			"uri":"data:application/octet-stream;base64,"
		}
	]
}
