{
	"asset":{
		"generator":"Khronos glTF Blender I/O v3.6.27",
		"version":"2.0"
	},
	"scene":0,
	"scenes":[
		{
			"name":"Scene",
			"nodes":[
				0
			]
		}
	],
	"nodes":[
		{
			"mesh":0,
			"name":"Curve.001",
			"rotation":[
				0.7071068286895752,
				0,
				0,
				0.7071068286895752
			],
			"scale":[
				80.38457489013672,
				15.11903190612793,
				83.6820068359375
			],
			"translation":[
				0,
				-0.30293187499046326,
				-0.13107579946517944
			]
		}
	],
	"animations":[
		{
			"channels":[
				{
					"sampler":0,
					"target":{
						"node":0,
						"path":"rotation"
					}
				}
			],
			"name":"Curve.001Action.001",
			"samplers":[
				{
					"input":10,
					"interpolation":"LINEAR",
					"output":11
				}
			]
		}
	],
	"materials":[
		{
			"doubleSided":true,
			"name":"Material",
			"pbrMetallicRoughness":{
				"baseColorFactor":[
					0.800000011920929,
					0.800000011920929,
					0.800000011920929,
					1
				],
				"metallicFactor":0,
				"roughnessFactor":0.5
			}
		},
		{
			"doubleSided":true,
			"name":"SVGMat.004",
			"pbrMetallicRoughness":{
				"baseColorFactor":[
					0.07959377020597458,
					0.025876620784401894,
					0.1149354875087738,
					1
				],
				"metallicFactor":0,
				"roughnessFactor":0.4000000059604645
			}
		}
	],
	"meshes":[
		{
			"name":"Curve.003",
			"primitives":[
				{
					"attributes":{
						"POSITION":0,
						"NORMAL":1,
						"TEXCOORD_0":2,
						"TEXCOORD_1":3
					},
					"indices":4,
					"material":0
				},
				{
					"attributes":{
						"POSITION":5,
						"NORMAL":6,
						"TEXCOORD_0":7,
						"TEXCOORD_1":8
					},
					"indices":9,
					"material":1
				}
			]
		}
	],
	"accessors":[
		{
			"bufferView":0,
			"componentType":5126,
			"count":260,
			"max":[
				0.04742411524057388,
				0,
				0.04927466809749603
			],
			"min":[
				-0.04659833759069443,
				-0.010000019334256649,
				-0.05366597697138786
			],
			"type":"VEC3"
		},
		{
			"bufferView":1,
			"componentType":5126,
			"count":260,
			"type":"VEC3"
		},
		{
			"bufferView":2,
			"componentType":5126,
			"count":260,
			"type":"VEC2"
		},
		{
			"bufferView":3,
			"componentType":5126,
			"count":260,
			"type":"VEC2"
		},
		{
			"bufferView":4,
			"componentType":5123,
			"count":384,
			"type":"SCALAR"
		},
		{
			"bufferView":5,
			"componentType":5126,
			"count":870,
			"max":[
				0.05638086423277855,
				0.04613340646028519,
				0.056308064609766006
			],
			"min":[
				-0.05539912357926369,
				-0.03982885926961899,
				-0.061314135789871216
			],
			"type":"VEC3"
		},
		{
			"bufferView":6,
			"componentType":5126,
			"count":870,
			"type":"VEC3"
		},
		{
			"bufferView":7,
			"componentType":5126,
			"count":870,
			"type":"VEC2"
		},
		{
			"bufferView":8,
			"componentType":5126,
			"count":870,
			"type":"VEC2"
		},
		{
			"bufferView":9,
			"componentType":5123,
			"count":1392,
			"type":"SCALAR"
		},
		{
			"bufferView":10,
			"componentType":5126,
			"count":100,
			"max":[
				4.166666666666667
			],
			"min":[
				0.041666666666666664
			],
			"type":"SCALAR"
		},
		{
			"bufferView":11,
			"componentType":5126,
			"count":100,
			"type":"VEC4"
		}
	],
	"bufferViews":[
		{
			"buffer":0,
			"byteLength":3120,
			"byteOffset":0,
			"target":34962
		},
		{
			"buffer":0,
			"byteLength":3120,
			"byteOffset":3120,
			"target":34962
		},
		{
			"buffer":0,
			"byteLength":2080,
			"byteOffset":6240,
			"target":34962
		},
		{
			"buffer":0,
			"byteLength":2080,
			"byteOffset":8320,
			"target":34962
		},
		{
			"buffer":0,
			"byteLength":768,
			"byteOffset":10400,
			"target":34963
		},
		{
			"buffer":0,
			"byteLength":10440,
			"byteOffset":11168,
			"target":34962
		},
		{
			"buffer":0,
			"byteLength":10440,
			"byteOffset":21608,
			"target":34962
		},
		{
			"buffer":0,
			"byteLength":6960,
			"byteOffset":32048,
			"target":34962
		},
		{
			"buffer":0,
			"byteLength":6960,
			"byteOffset":39008,
			"target":34962
		},
		{
			"buffer":0,
			"byteLength":2784,
			"byteOffset":45968,
			"target":34963
		},
		{
			"buffer":0,
			"byteLength":400,
			"byteOffset":48752
		},
		{
			"buffer":0,
			"byteLength":1600,
			"byteOffset":49152
		}
	],
	"buffers":[
		{
			"byteLength":50752,
			"uri":"data:application/octet-stream;base64,"
		}
	]
}
