{
	"asset":{
		"generator":"Khronos glTF Blender I/O v3.6.27",
		"version":"2.0"
	},
	"scene":0,
	"scenes":[
		{
			"name":"Scene",
			"nodes":[
				0,
				1,
				2,
				3,
				4,
				5,
				6,
				7
			]
		}
	],
	"nodes":[
		{
			"mesh":0,
			"name":"\u041a\u0443\u0431.001",
			"rotation":[
				0,
				1,
				0,
				0
			],
			"scale":[
				-6.366292476654053,
				-1.5316548347473145,
				-1
			],
			"translation":[
				0,
				15.017749786376953,
				0
			]
		},
		{
			"mesh":1,
			"name":"\u041a\u0443\u0431.002",
			"rotation":[
				1,
				0,
				0,
				7.549776626092353e-08
			],
			"scale":[
				-6.366292476654053,
				-1.5316548347473145,
				-1
			],
			"translation":[
				0,
				1.914834976196289,
				0
			]
		},
		{
			"mesh":2,
			"name":"\u0422\u0435\u043a\u0441\u0442.020",
			"rotation":[
				0.7071068286895752,
				0,
				0,
				0.7071068286895752
			],
			"scale":[
				1.590301275253296,
				1.590301275253296,
				1.590301275253296
			],
			"translation":[
				-3.3637142181396484,
				15.301441192626953,
				-1.3971678018569946
			]
		},
		{
			"mesh":3,
			"name":"\u0422\u0435\u043a\u0441\u0442.005",
			"rotation":[
				0.7071068286895752,
				0,
				0,
				0.7071068286895752
			],
			"scale":[
				1.590301275253296,
				1.590301275253296,
				1.590301275253296
			],
			"translation":[
				0.5816442966461182,
				15.301441192626953,
				-1.3971678018569946
			]
		},
		{
			"mesh":4,
			"name":"\u0422\u0435\u043a\u0441\u0442.011",
			"rotation":[
				0.7071068286895752,
				0,
				0,
				0.7071068286895752
			],
			"scale":[
				1.590301275253296,
				1.590301275253296,
				1.590301275253296
			],
			"translation":[
				-1.3313366174697876,
				12.14107894897461,
				-1.3971678018569946
			]
		},
		{
			"mesh":5,
			"name":"\u0422\u0435\u043a\u0441\u0442.014",
			"rotation":[
				0.7071068286895752,
				0,
				0,
				0.7071068286895752
			],
			"scale":[
				1.590301275253296,
				1.590301275253296,
				1.590301275253296
			],
			"translation":[
				2.397066593170166,
				12.14107894897461,
				-1.3971678018569946
			]
		},
		{
			"mesh":6,
			"name":"\u0426\u0438\u043b\u0438\u043d\u0434\u0440",
			"rotation":[
				0.7071068286895752,
				0,
				0,
				0.7071068286895752
			],
			"scale":[
				0.722907543182373,
				0.722907543182373,
				0.722907543182373
			],
			"translation":[
				-3.432516574859619,
				1.9302234649658203,
				0.7529903054237366
			]
		},
		{
			"mesh":7,
			"name":"\u0426\u0438\u043b\u0438\u043d\u0434\u0440.001",
			"rotation":[
				0.7071068286895752,
				0,
				0,
				0.7071068286895752
			],
			"scale":[
				0.722907543182373,
				0.722907543182373,
				0.722907543182373
			],
			"translation":[
				-1.647688388824463,
				1.9302234649658203,
				0.7529903054237366
			]
		}
	],
	"animations":[
		{
			"channels":[
				{
					"sampler":0,
					"target":{
						"node":2,
						"path":"translation"
					}
				}
			],
			"name":"\u0422\u0435\u043a\u0441\u0442.020Action",
			"samplers":[
				{
					"input":30,
					"interpolation":"LINEAR",
					"output":31
				}
			]
		},
		{
			"channels":[
				{
					"sampler":0,
					"target":{
						"node":3,
						"path":"translation"
					}
				}
			],
			"name":"\u0422\u0435\u043a\u0441\u0442.005Action",
			"samplers":[
				{
					"input":30,
					"interpolation":"LINEAR",
					"output":32
				}
			]
		},
		{
			"channels":[
				{
					"sampler":0,
					"target":{
						"node":4,
						"path":"translation"
					}
				}
			],
			"name":"\u0422\u0435\u043a\u0441\u0442.011Action",
			"samplers":[
				{
					"input":30,
					"interpolation":"LINEAR",
					"output":33
				}
			]
		},
		{
			"channels":[
				{
					"sampler":0,
					"target":{
						"node":5,
						"path":"translation"
					}
				}
			],
			"name":"\u0422\u0435\u043a\u0441\u0442.014Action",
			"samplers":[
				{
					"input":30,
					"interpolation":"LINEAR",
					"output":34
				}
			]
		}
	],
	"materials":[
		{
			"doubleSided":true,
			"name":"\u041c\u0430\u0442\u0435\u0440\u0438\u0430\u043b.038",
			"pbrMetallicRoughness":{
				"baseColorFactor":[
					0.09462541341781616,
					0.09462541341781616,
					0.09462541341781616,
					1
				],
				"metallicFactor":0,
				"roughnessFactor":0.5
			}
		},
		{
			"doubleSided":true,
			"name":"\u041c\u0430\u0442\u0435\u0440\u0438\u0430\u043b.041",
			"pbrMetallicRoughness":{
				"baseColorFactor":[
					0.043268345296382904,
					0.6859564185142517,
					0,
					1
				],
				"metallicFactor":0,
				"roughnessFactor":0.5
			}
		},
		{
			"doubleSided":true,
			"name":"\u041c\u0430\u0442\u0435\u0440\u0438\u0430\u043b.013",
			"pbrMetallicRoughness":{
				"baseColorFactor":[
					0.27383074164390564,
					0.00922383926808834,
					0.0055306451395154,
					1
				],
				"metallicFactor":0,
				"roughnessFactor":0.5
			}
		},
		{
			"doubleSided":true,
			"name":"\u041c\u0430\u0442\u0435\u0440\u0438\u0430\u043b",
			"pbrMetallicRoughness":{
				"baseColorFactor":[
					0.11815928667783737,
					0.23301498591899872,
					0.056271396577358246,
					1
				],
				"metallicFactor":0,
				"roughnessFactor":0.5
			}
		}
	],
	"meshes":[
		{
			"name":"\u041a\u0443\u0431.042",
			"primitives":[
				{
					"attributes":{
						"POSITION":0,
						"NORMAL":1,
						"TEXCOORD_0":2
					},
					"indices":3,
					"material":0
				}
			]
		},
		{
			"name":"\u041a\u0443\u0431.043",
			"primitives":[
				{
					"attributes":{
						"POSITION":4,
						"NORMAL":5,
						"TEXCOORD_0":6
					},
					"indices":3,
					"material":0
				}
			]
		},
		{
			"name":"\u0422\u0435\u043a\u0441\u0442.023",
			"primitives":[
				{
					"attributes":{
						"POSITION":7,
						"NORMAL":8,
						"TEXCOORD_0":9
					},
					"indices":10,
					"material":1
				}
			]
		},
		{
			"name":"\u0422\u0435\u043a\u0441\u0442.033",
			"primitives":[
				{
					"attributes":{
						"POSITION":11,
						"NORMAL":12,
						"TEXCOORD_0":13
					},
					"indices":14,
					"material":1
				}
			]
		},
		{
			"name":"\u0422\u0435\u043a\u0441\u0442.039",
			"primitives":[
				{
					"attributes":{
						"POSITION":15,
						"NORMAL":16,
						"TEXCOORD_0":17
					},
					"indices":18,
					"material":1
				}
			]
		},
		{
			"name":"\u0422\u0435\u043a\u0441\u0442.043",
			"primitives":[
				{
					"attributes":{
						"POSITION":19,
						"NORMAL":20,
						"TEXCOORD_0":21
					},
					"indices":22,
					"material":1
				}
			]
		},
		{
			"name":"\u0426\u0438\u043b\u0438\u043d\u0434\u0440.013",
			"primitives":[
				{
					"attributes":{
						"POSITION":23,
						"NORMAL":24,
						"TEXCOORD_0":25
					},
					"indices":26,
					"material":2
				}
			]
		},
		{
			"name":"\u0426\u0438\u043b\u0438\u043d\u0434\u0440.014",
			"primitives":[
				{
					"attributes":{
						"POSITION":27,
						"NORMAL":28,
						"TEXCOORD_0":29
					},
					"indices":26,
					"material":3
				}
			]
		}
	],
	"accessors":[
		{
			"bufferView":0,
			"componentType":5126,
			"count":56,
			"max":[
				1,
				6.247115612030029,
				1
			],
			"min":[
				-1,
				-1,
				-1
			],
			"type":"VEC3"
		},
		{
			"bufferView":1,
			"componentType":5126,
			"count":56,
			"type":"VEC3"
		},
		{
			"bufferView":2,
			"componentType":5126,
			"count":56,
			"type":"VEC2"
		},
		{
			"bufferView":3,
			"componentType":5123,
			"count":120,
			"type":"SCALAR"
		},
		{
			"bufferView":4,
			"componentType":5126,
			"count":56,
			"max":[
				1,
				5.341818332672119,
				1
			],
			"min":[
				-1,
				-1,
				-1
			],
			"type":"VEC3"
		},
		{
			"bufferView":5,
			"componentType":5126,
			"count":56,
			"type":"VEC3"
		},
		{
			"bufferView":6,
			"componentType":5126,
			"count":56,
			"type":"VEC2"
		},
		{
			"bufferView":7,
			"componentType":5126,
			"count":1632,
			"max":[
				0.4700000286102295,
				2.980232238769531e-07,
				7.221128463745117
			],
			"min":[
				0.029999762773513794,
				-0.10000000149011612,
				-0.6910000443458557
			],
			"type":"VEC3"
		},
		{
			"bufferView":8,
			"componentType":5126,
			"count":1632,
			"type":"VEC3"
		},
		{
			"bufferView":9,
			"componentType":5126,
			"count":1632,
			"type":"VEC2"
		},
		{
			"bufferView":10,
			"componentType":5123,
			"count":4752,
			"type":"SCALAR"
		},
		{
			"bufferView":11,
			"componentType":5126,
			"count":1632,
			"max":[
				0.4700000286102295,
				2.980232238769531e-07,
				7.221128463745117
			],
			"min":[
				0.030000001192092896,
				-0.10000000149011612,
				-0.6910000443458557
			],
			"type":"VEC3"
		},
		{
			"bufferView":12,
			"componentType":5126,
			"count":1632,
			"type":"VEC3"
		},
		{
			"bufferView":13,
			"componentType":5126,
			"count":1632,
			"type":"VEC2"
		},
		{
			"bufferView":14,
			"componentType":5123,
			"count":4752,
			"type":"SCALAR"
		},
		{
			"bufferView":15,
			"componentType":5126,
			"count":864,
			"max":[
				0.46730756759643555,
				2.980232238769531e-07,
				7.286324501037598
			],
			"min":[
				0.02730754017829895,
				-0.10000000149011612,
				-0.6820000410079956
			],
			"type":"VEC3"
		},
		{
			"bufferView":16,
			"componentType":5126,
			"count":864,
			"type":"VEC3"
		},
		{
			"bufferView":17,
			"componentType":5126,
			"count":864,
			"type":"VEC2"
		},
		{
			"bufferView":18,
			"componentType":5123,
			"count":4752,
			"type":"SCALAR"
		},
		{
			"bufferView":19,
			"componentType":5126,
			"count":864,
			"max":[
				0.4673072099685669,
				2.980232238769531e-07,
				7.286324501037598
			],
			"min":[
				0.027307182550430298,
				-0.10000000149011612,
				-0.6820000410079956
			],
			"type":"VEC3"
		},
		{
			"bufferView":20,
			"componentType":5126,
			"count":864,
			"type":"VEC3"
		},
		{
			"bufferView":21,
			"componentType":5126,
			"count":864,
			"type":"VEC2"
		},
		{
			"bufferView":22,
			"componentType":5123,
			"count":4752,
			"type":"SCALAR"
		},
		{
			"bufferView":23,
			"componentType":5126,
			"count":130,
			"max":[
				1,
				1,
				1
			],
			"min":[
				-1,
				-1,
				-1
			],
			"type":"VEC3"
		},
		{
			"bufferView":24,
			"componentType":5126,
			"count":130,
			"type":"VEC3"
		},
		{
			"bufferView":25,
			"componentType":5126,
			"count":130,
			"type":"VEC2"
		},
		{
			"bufferView":26,
			"componentType":5123,
			"count":372,
			"type":"SCALAR"
		},
		{
			"bufferView":27,
			"componentType":5126,
			"count":130,
			"max":[
				1,
				1,
				1
			],
			"min":[
				-1,
				-1,
				-1
			],
			"type":"VEC3"
		},
		{
			"bufferView":28,
			"componentType":5126,
			"count":130,
			"type":"VEC3"
		},
		{
			"bufferView":29,
			"componentType":5126,
			"count":130,
			"type":"VEC2"
		},
		{
			"bufferView":30,
			"componentType":5126,
			"count":100,
			"max":[
				4.166666666666667
			],
			"min":[
				0.041666666666666664
			],
			"type":"SCALAR"
		},
		{
			"bufferView":31,
			"componentType":5126,
			"count":100,
			"type":"VEC3"
		},
		{
			"bufferView":32,
			"componentType":5126,
			"count":100,
			"type":"VEC3"
		},
		{
			"bufferView":33,
			"componentType":5126,
			"count":100,
			"type":"VEC3"
		},
		{
			"bufferView":34,
			"componentType":5126,
			"count":100,
			"type":"VEC3"
		}
	],
	"bufferViews":[
		{
			"buffer":0,
			"byteLength":672,
			"byteOffset":0,
			"target":34962
		},
		{
			"buffer":0,
			"byteLength":672,
			"byteOffset":672,
			"target":34962
		},
		{
			"buffer":0,
			"byteLength":448,
			"byteOffset":1344,
			"target":34962
		},
		{
			"buffer":0,
			"byteLength":240,
			"byteOffset":1792,
			"target":34963
		},
		{
			"buffer":0,
			"byteLength":672,
			"byteOffset":2032,
			"target":34962
		},
		{
			"buffer":0,
			"byteLength":672,
			"byteOffset":2704,
			"target":34962
		},
		{
			"buffer":0,
			"byteLength":448,
			"byteOffset":3376,
			"target":34962
		},
		{
			"buffer":0,
			"byteLength":19584,
			"byteOffset":3824,
			"target":34962
		},
		{
			"buffer":0,
			"byteLength":19584,
			"byteOffset":23408,
			"target":34962
		},
		{
			"buffer":0,
			"byteLength":13056,
			"byteOffset":42992,
			"target":34962
		},
		{
			"buffer":0,
			"byteLength":9504,
			"byteOffset":56048,
			"target":34963
		},
		{
			"buffer":0,
			"byteLength":19584,
			"byteOffset":65552,
			"target":34962
		},
		{
			"buffer":0,
			"byteLength":19584,
			"byteOffset":85136,
			"target":34962
		},
		{
			"buffer":0,
			"byteLength":13056,
			"byteOffset":104720,
			"target":34962
		},
		{
			"buffer":0,
			"byteLength":9504,
			"byteOffset":117776,
			"target":34963
		},
		{
			"buffer":0,
			"byteLength":10368,
			"byteOffset":127280,
			"target":34962
		},
		{
			"buffer":0,
			"byteLength":10368,
			"byteOffset":137648,
			"target":34962
		},
		{
			"buffer":0,
			"byteLength":6912,
			"byteOffset":148016,
			"target":34962
		},
		{
			"buffer":0,
			"byteLength":9504,
			"byteOffset":154928,
			"target":34963
		},
		{
			"buffer":0,
			"byteLength":10368,
			"byteOffset":164432,
			"target":34962
		},
		{
			"buffer":0,
			"byteLength":10368,
			"byteOffset":174800,
			"target":34962
		},
		{
			"buffer":0,
			"byteLength":6912,
			"byteOffset":185168,
			"target":34962
		},
		{
			"buffer":0,
			"byteLength":9504,
			"byteOffset":192080,
			"target":34963
		},
		{
			"buffer":0,
			"byteLength":1560,
			"byteOffset":201584,
			"target":34962
		},
		{
			"buffer":0,
			"byteLength":1560,
			"byteOffset":203144,
			"target":34962
		},
		{
			"buffer":0,
			"byteLength":1040,
			"byteOffset":204704,
			"target":34962
		},
		{
			"buffer":0,
			"byteLength":744,
			"byteOffset":205744,
			"target":34963
		},
		{
			"buffer":0,
			"byteLength":1560,
			"byteOffset":206488,
			"target":34962
		},
		{
			"buffer":0,
			"byteLength":1560,
			"byteOffset":208048,
			"target":34962
		},
		{
			"buffer":0,
			"byteLength":1040,
			"byteOffset":209608,
			"target":34962
		},
		{
			"buffer":0,
			"byteLength":400,
			"byteOffset":210648
		},
		{
			"buffer":0,
			"byteLength":1200,
			"byteOffset":211048
		},
		{
			"buffer":0,
			"byteLength":1200,
			"byteOffset":212248
		},
		{
			"buffer":0,
			"byteLength":1200,
			"byteOffset":213448
		},
		{
			"buffer":0,
			"byteLength":1200,
			"byteOffset":214648
		}
	],
	"buffers":[
		{
			"byteLength":215848,
			"uri":"data:application/octet-stream;base64,"
		}
	]
}
