{
	"asset":{
		"generator":"Khronos glTF Blender I/O v3.6.27",
		"version":"2.0"
	},
	"scene":0,
	"scenes":[
		{
			"name":"Scene",
			"nodes":[
				0,
				1,
				2,
				3,
				4
			]
		}
	],
	"nodes":[
		{
			"mesh":0,
			"name":"\u041a\u0443\u0431",
			"scale":[
				43.25343704223633,
				1,
				5.416947841644287
			],
			"translation":[
				-13.037476539611816,
				0,
				0
			]
		},
		{
			"mesh":1,
			"name":"\u041a\u0443\u0431.001",
			"scale":[
				16.111896514892578,
				1.1313868761062622,
				4.1675286293029785
			],
			"translation":[
				-20.34747314453125,
				-0.7477039098739624,
				0
			]
		},
		{
			"mesh":2,
			"name":"\u0426\u0438\u043b\u0438\u043d\u0434\u0440",
			"translation":[
				0,
				6.153912544250488,
				0
			]
		},
		{
			"mesh":3,
			"name":"\u0426\u0438\u043b\u0438\u043d\u0434\u0440.001",
			"scale":[
				0.35268253087997437,
				0.7572874426841736,
				0.35268253087997437
			],
			"translation":[
				0,
				5.396419525146484,
				0
			]
		},
		{
			"mesh":4,
			"name":"\u041a\u0443\u0431.002",
			"scale":[
				1.5282598733901978,
				0.8316460847854614,
				4.1675286293029785
			],
			"translation":[
				0.04803276062011719,
				-1.439269781112671,
				0
			]
		}
	],
	"animations":[
		{
			"channels":[
				{
					"sampler":0,
					"target":{
						"node":0,
						"path":"translation"
					}
				}
			],
			"name":"\u041a\u0443\u0431Action",
			"samplers":[
				{
					"input":23,
					"interpolation":"LINEAR",
					"output":24
				}
			]
		},
		{
			"channels":[
				{
					"sampler":0,
					"target":{
						"node":1,
						"path":"translation"
					}
				}
			],
			"name":"\u041a\u0443\u0431.001Action",
			"samplers":[
				{
					"input":25,
					"interpolation":"LINEAR",
					"output":26
				}
			]
		},
		{
			"channels":[
				{
					"sampler":0,
					"target":{
						"node":3,
						"path":"translation"
					}
				},
				{
					"sampler":1,
					"target":{
						"node":3,
						"path":"scale"
					}
				}
			],
			"name":"\u0426\u0438\u043b\u0438\u043d\u0434\u0440.001Action",
			"samplers":[
				{
					"input":27,
					"interpolation":"LINEAR",
					"output":28
				},
				{
					"input":27,
					"interpolation":"LINEAR",
					"output":29
				}
			]
		},
		{
			"channels":[
				{
					"sampler":0,
					"target":{
						"node":4,
						"path":"translation"
					}
				},
				{
					"sampler":1,
					"target":{
						"node":4,
						"path":"scale"
					}
				}
			],
			"name":"\u041a\u0443\u0431.002Action",
			"samplers":[
				{
					"input":30,
					"interpolation":"LINEAR",
					"output":31
				},
				{
					"input":30,
					"interpolation":"LINEAR",
					"output":32
				}
			]
		}
	],
	"materials":[
		{
			"doubleSided":true,
			"name":"\u041c\u0430\u0442\u0435\u0440\u0438\u0430\u043b.038",
			"pbrMetallicRoughness":{
				"baseColorFactor":[
					0.09462541341781616,
					0.09462541341781616,
					0.09462541341781616,
					1
				],
				"metallicFactor":0,
				"roughnessFactor":0.5
			}
		},
		{
			"doubleSided":true,
			"name":"\u041c\u0430\u0442\u0435\u0440\u0438\u0430\u043b.018",
			"pbrMetallicRoughness":{
				"baseColorFactor":[
					0.01738746464252472,
					0.01738746464252472,
					0.01738746464252472,
					1
				],
				"metallicFactor":0,
				"roughnessFactor":0.5
			}
		},
		{
			"doubleSided":true,
			"name":"\u041c\u0430\u0442\u0435\u0440\u0438\u0430\u043b.039",
			"pbrMetallicRoughness":{
				"baseColorFactor":[
					1,
					0.11387918144464493,
					0.0036286781542003155,
					1
				],
				"metallicFactor":0,
				"roughnessFactor":0.5
			}
		},
		{
			"doubleSided":true,
			"name":"\u041c\u0430\u0442\u0435\u0440\u0438\u0430\u043b.040",
			"pbrMetallicRoughness":{
				"baseColorFactor":[
					1,
					0.11387918144464493,
					0.0036286781542003155,
					1
				],
				"metallicFactor":0,
				"roughnessFactor":0.5
			}
		}
	],
	"meshes":[
		{
			"name":"\u041a\u0443\u0431.024",
			"primitives":[
				{
					"attributes":{
						"POSITION":0,
						"NORMAL":1,
						"TEXCOORD_0":2
					},
					"indices":3,
					"material":0
				},
				{
					"attributes":{
						"POSITION":4,
						"NORMAL":5,
						"TEXCOORD_0":6
					},
					"indices":7,
					"material":1
				}
			]
		},
		{
			"name":"\u041a\u0443\u0431.038",
			"primitives":[
				{
					"attributes":{
						"POSITION":8,
						"NORMAL":9,
						"TEXCOORD_0":10
					},
					"indices":11,
					"material":2
				}
			]
		},
		{
			"name":"\u0426\u0438\u043b\u0438\u043d\u0434\u0440.011",
			"primitives":[
				{
					"attributes":{
						"POSITION":12,
						"NORMAL":13,
						"TEXCOORD_0":14
					},
					"indices":15,
					"material":1
				}
			]
		},
		{
			"name":"\u0426\u0438\u043b\u0438\u043d\u0434\u0440.012",
			"primitives":[
				{
					"attributes":{
						"POSITION":16,
						"NORMAL":17,
						"TEXCOORD_0":18
					},
					"indices":19,
					"material":2
				}
			]
		},
		{
			"name":"\u041a\u0443\u0431.039",
			"primitives":[
				{
					"attributes":{
						"POSITION":20,
						"NORMAL":21,
						"TEXCOORD_0":22
					},
					"indices":11,
					"material":3
				}
			]
		}
	],
	"accessors":[
		{
			"bufferView":0,
			"componentType":5126,
			"count":280,
			"max":[
				1,
				1,
				1
			],
			"min":[
				-1,
				-1,
				-1
			],
			"type":"VEC3"
		},
		{
			"bufferView":1,
			"componentType":5126,
			"count":280,
			"type":"VEC3"
		},
		{
			"bufferView":2,
			"componentType":5126,
			"count":280,
			"type":"VEC2"
		},
		{
			"bufferView":3,
			"componentType":5123,
			"count":420,
			"type":"SCALAR"
		},
		{
			"bufferView":4,
			"componentType":5126,
			"count":56,
			"max":[
				1,
				1,
				1
			],
			"min":[
				-1,
				1,
				-1
			],
			"type":"VEC3"
		},
		{
			"bufferView":5,
			"componentType":5126,
			"count":56,
			"type":"VEC3"
		},
		{
			"bufferView":6,
			"componentType":5126,
			"count":56,
			"type":"VEC2"
		},
		{
			"bufferView":7,
			"componentType":5123,
			"count":240,
			"type":"SCALAR"
		},
		{
			"bufferView":8,
			"componentType":5126,
			"count":24,
			"max":[
				1,
				1,
				1
			],
			"min":[
				-1.2929701805114746,
				-1,
				-1
			],
			"type":"VEC3"
		},
		{
			"bufferView":9,
			"componentType":5126,
			"count":24,
			"type":"VEC3"
		},
		{
			"bufferView":10,
			"componentType":5126,
			"count":24,
			"type":"VEC2"
		},
		{
			"bufferView":11,
			"componentType":5123,
			"count":36,
			"type":"SCALAR"
		},
		{
			"bufferView":12,
			"componentType":5126,
			"count":562,
			"max":[
				1.1452147960662842,
				3.388874053955078,
				20.413623809814453
			],
			"min":[
				-1.1452147960662842,
				-1.3698629140853882,
				-1.1452147960662842
			],
			"type":"VEC3"
		},
		{
			"bufferView":13,
			"componentType":5126,
			"count":562,
			"type":"VEC3"
		},
		{
			"bufferView":14,
			"componentType":5126,
			"count":562,
			"type":"VEC2"
		},
		{
			"bufferView":15,
			"componentType":5123,
			"count":2100,
			"type":"SCALAR"
		},
		{
			"bufferView":16,
			"componentType":5126,
			"count":130,
			"max":[
				1,
				1,
				1
			],
			"min":[
				-1,
				-1,
				-1
			],
			"type":"VEC3"
		},
		{
			"bufferView":17,
			"componentType":5126,
			"count":130,
			"type":"VEC3"
		},
		{
			"bufferView":18,
			"componentType":5126,
			"count":130,
			"type":"VEC2"
		},
		{
			"bufferView":19,
			"componentType":5123,
			"count":372,
			"type":"SCALAR"
		},
		{
			"bufferView":20,
			"componentType":5126,
			"count":24,
			"max":[
				1,
				1,
				1
			],
			"min":[
				-1.2929701805114746,
				-1,
				-1
			],
			"type":"VEC3"
		},
		{
			"bufferView":21,
			"componentType":5126,
			"count":24,
			"type":"VEC3"
		},
		{
			"bufferView":22,
			"componentType":5126,
			"count":24,
			"type":"VEC2"
		},
		{
			"bufferView":23,
			"componentType":5126,
			"count":37,
			"max":[
				4.166666666666667
			],
			"min":[
				2.6666666666666665
			],
			"type":"SCALAR"
		},
		{
			"bufferView":24,
			"componentType":5126,
			"count":37,
			"type":"VEC3"
		},
		{
			"bufferView":25,
			"componentType":5126,
			"count":72,
			"max":[
				4.166666666666667
			],
			"min":[
				1.2083333333333333
			],
			"type":"SCALAR"
		},
		{
			"bufferView":26,
			"componentType":5126,
			"count":72,
			"type":"VEC3"
		},
		{
			"bufferView":27,
			"componentType":5126,
			"count":100,
			"max":[
				4.166666666666667
			],
			"min":[
				0.041666666666666664
			],
			"type":"SCALAR"
		},
		{
			"bufferView":28,
			"componentType":5126,
			"count":100,
			"type":"VEC3"
		},
		{
			"bufferView":29,
			"componentType":5126,
			"count":100,
			"type":"VEC3"
		},
		{
			"bufferView":30,
			"componentType":5126,
			"count":71,
			"max":[
				4.166666666666667
			],
			"min":[
				1.25
			],
			"type":"SCALAR"
		},
		{
			"bufferView":31,
			"componentType":5126,
			"count":71,
			"type":"VEC3"
		},
		{
			"bufferView":32,
			"componentType":5126,
			"count":71,
			"type":"VEC3"
		}
	],
	"bufferViews":[
		{
			"buffer":0,
			"byteLength":3360,
			"byteOffset":0,
			"target":34962
		},
		{
			"buffer":0,
			"byteLength":3360,
			"byteOffset":3360,
			"target":34962
		},
		{
			"buffer":0,
			"byteLength":2240,
			"byteOffset":6720,
			"target":34962
		},
		{
			"buffer":0,
			"byteLength":840,
			"byteOffset":8960,
			"target":34963
		},
		{
			"buffer":0,
			"byteLength":672,
			"byteOffset":9800,
			"target":34962
		},
		{
			"buffer":0,
			"byteLength":672,
			"byteOffset":10472,
			"target":34962
		},
		{
			"buffer":0,
			"byteLength":448,
			"byteOffset":11144,
			"target":34962
		},
		{
			"buffer":0,
			"byteLength":480,
			"byteOffset":11592,
			"target":34963
		},
		{
			"buffer":0,
			"byteLength":288,
			"byteOffset":12072,
			"target":34962
		},
		{
			"buffer":0,
			"byteLength":288,
			"byteOffset":12360,
			"target":34962
		},
		{
			"buffer":0,
			"byteLength":192,
			"byteOffset":12648,
			"target":34962
		},
		{
			"buffer":0,
			"byteLength":72,
			"byteOffset":12840,
			"target":34963
		},
		{
			"buffer":0,
			"byteLength":6744,
			"byteOffset":12912,
			"target":34962
		},
		{
			"buffer":0,
			"byteLength":6744,
			"byteOffset":19656,
			"target":34962
		},
		{
			"buffer":0,
			"byteLength":4496,
			"byteOffset":26400,
			"target":34962
		},
		{
			"buffer":0,
			"byteLength":4200,
			"byteOffset":30896,
			"target":34963
		},
		{
			"buffer":0,
			"byteLength":1560,
			"byteOffset":35096,
			"target":34962
		},
		{
			"buffer":0,
			"byteLength":1560,
			"byteOffset":36656,
			"target":34962
		},
		{
			"buffer":0,
			"byteLength":1040,
			"byteOffset":38216,
			"target":34962
		},
		{
			"buffer":0,
			"byteLength":744,
			"byteOffset":39256,
			"target":34963
		},
		{
			"buffer":0,
			"byteLength":288,
			"byteOffset":40000,
			"target":34962
		},
		{
			"buffer":0,
			"byteLength":288,
			"byteOffset":40288,
			"target":34962
		},
		{
			"buffer":0,
			"byteLength":192,
			"byteOffset":40576,
			"target":34962
		},
		{
			"buffer":0,
			"byteLength":148,
			"byteOffset":40768
		},
		{
			"buffer":0,
			"byteLength":444,
			"byteOffset":40916
		},
		{
			"buffer":0,
			"byteLength":288,
			"byteOffset":41360
		},
		{
			"buffer":0,
			"byteLength":864,
			"byteOffset":41648
		},
		{
			"buffer":0,
			"byteLength":400,
			"byteOffset":42512
		},
		{
			"buffer":0,
			"byteLength":1200,
			"byteOffset":42912
		},
		{
			"buffer":0,
			"byteLength":1200,
			"byteOffset":44112
		},
		{
			"buffer":0,
			"byteLength":284,
			"byteOffset":45312
		},
		{
			"buffer":0,
			"byteLength":852,
			"byteOffset":45596
		},
		{
			"buffer":0,
			"byteLength":852,
			"byteOffset":46448
		}
	],
	"buffers":[
		{
			"byteLength":47300,
			"uri":"data:application/octet-stream;base64,"
		}
	]
}
