{
	"asset":{
		"generator":"Khronos glTF Blender I/O v3.6.27",
		"version":"2.0"
	},
	"scene":0,
	"scenes":[
		{
			"name":"Scene",
			"nodes":[
				0,
				1,
				2,
				3,
				4
			]
		}
	],
	"nodes":[
		{
			"mesh":0,
			"name":"\u0426\u0438\u043b\u0438\u043d\u0434\u0440",
			"scale":[
				5.010796546936035,
				5.010796546936035,
				5.010796546936035
			],
			"translation":[
				0,
				1.018843412399292,
				0
			]
		},
		{
			"mesh":1,
			"name":"\u0426\u0438\u043b\u0438\u043d\u0434\u0440.001",
			"rotation":[
				0.7071068286895752,
				0,
				0,
				0.7071068286895752
			],
			"scale":[
				0.9756264686584473,
				8.536760330200195,
				0.9756264686584473
			],
			"translation":[
				0,
				2.4228532314300537,
				0
			]
		},
		{
			"mesh":2,
			"name":"\u041a\u0443\u0431",
			"scale":[
				1,
				1,
				0.6747192144393921
			],
			"translation":[
				0,
				2.4356372356414795,
				-7.495384693145752
			]
		},
		{
			"mesh":3,
			"name":"\u041a\u0443\u0431.001",
			"scale":[
				1,
				1,
				0.6747192144393921
			],
			"translation":[
				0,
				2.4356372356414795,
				7.604881763458252
			]
		},
		{
			"mesh":4,
			"name":"\u0426\u0438\u043b\u0438\u043d\u0434\u0440.002",
			"scale":[
				6.470829976024106e-05,
				0.0004439449403434992,
				6.470829976024106e-05
			],
			"translation":[
				-8.748927116394043,
				0.9940863251686096,
				0
			]
		}
	],
	"animations":[
		{
			"channels":[
				{
					"sampler":0,
					"target":{
						"node":0,
						"path":"rotation"
					}
				}
			],
			"name":"\u0426\u0438\u043b\u0438\u043d\u0434\u0440Action",
			"samplers":[
				{
					"input":23,
					"interpolation":"LINEAR",
					"output":24
				}
			]
		},
		{
			"channels":[
				{
					"sampler":0,
					"target":{
						"node":4,
						"path":"translation"
					}
				},
				{
					"sampler":1,
					"target":{
						"node":4,
						"path":"scale"
					}
				}
			],
			"name":"\u0426\u0438\u043b\u0438\u043d\u0434\u0440.002Action",
			"samplers":[
				{
					"input":23,
					"interpolation":"LINEAR",
					"output":25
				},
				{
					"input":23,
					"interpolation":"LINEAR",
					"output":26
				}
			]
		}
	],
	"materials":[
		{
			"doubleSided":true,
			"name":"\u041c\u0430\u0442\u0435\u0440\u0438\u0430\u043b.038",
			"pbrMetallicRoughness":{
				"baseColorFactor":[
					0.09462541341781616,
					0.09462541341781616,
					0.09462541341781616,
					1
				],
				"metallicFactor":0,
				"roughnessFactor":0.5
			}
		},
		{
			"doubleSided":true,
			"name":"\u041c\u0430\u0442\u0435\u0440\u0438\u0430\u043b.039",
			"pbrMetallicRoughness":{
				"baseColorFactor":[
					1,
					0.11387918144464493,
					0.0036286781542003155,
					1
				],
				"metallicFactor":0,
				"roughnessFactor":0.5
			}
		},
		{
			"doubleSided":true,
			"name":"\u041c\u0430\u0442\u0435\u0440\u0438\u0430\u043b.018",
			"pbrMetallicRoughness":{
				"baseColorFactor":[
					0.01738746464252472,
					0.01738746464252472,
					0.01738746464252472,
					1
				],
				"metallicFactor":0,
				"roughnessFactor":0.5
			}
		}
	],
	"meshes":[
		{
			"name":"\u0426\u0438\u043b\u0438\u043d\u0434\u0440.008",
			"primitives":[
				{
					"attributes":{
						"POSITION":0,
						"NORMAL":1,
						"TEXCOORD_0":2
					},
					"indices":3,
					"material":0
				},
				{
					"attributes":{
						"POSITION":4,
						"NORMAL":5,
						"TEXCOORD_0":6
					},
					"indices":7,
					"material":1
				}
			]
		},
		{
			"name":"\u0426\u0438\u043b\u0438\u043d\u0434\u0440.009",
			"primitives":[
				{
					"attributes":{
						"POSITION":8,
						"NORMAL":9,
						"TEXCOORD_0":10
					},
					"indices":11,
					"material":2
				}
			]
		},
		{
			"name":"\u041a\u0443\u0431.021",
			"primitives":[
				{
					"attributes":{
						"POSITION":12,
						"NORMAL":13,
						"TEXCOORD_0":14
					},
					"indices":15,
					"material":0
				}
			]
		},
		{
			"name":"\u041a\u0443\u0431.022",
			"primitives":[
				{
					"attributes":{
						"POSITION":16,
						"NORMAL":17,
						"TEXCOORD_0":18
					},
					"indices":15,
					"material":0
				}
			]
		},
		{
			"name":"\u0426\u0438\u043b\u0438\u043d\u0434\u0440.010",
			"primitives":[
				{
					"attributes":{
						"POSITION":19,
						"NORMAL":20,
						"TEXCOORD_0":21
					},
					"indices":22,
					"material":1
				}
			]
		}
	],
	"accessors":[
		{
			"bufferView":0,
			"componentType":5126,
			"count":399,
			"max":[
				1.3097946643829346,
				1.088548183441162,
				1.3097946643829346
			],
			"min":[
				-1.4675698280334473,
				-1,
				-1.3097946643829346
			],
			"type":"VEC3"
		},
		{
			"bufferView":1,
			"componentType":5126,
			"count":399,
			"type":"VEC3"
		},
		{
			"bufferView":2,
			"componentType":5126,
			"count":399,
			"type":"VEC2"
		},
		{
			"bufferView":3,
			"componentType":5123,
			"count":1242,
			"type":"SCALAR"
		},
		{
			"bufferView":4,
			"componentType":5126,
			"count":32,
			"max":[
				1.0043758153915405,
				0.8585254549980164,
				1.004375696182251
			],
			"min":[
				-1.0043755769729614,
				0.8585254549980164,
				-1.004375696182251
			],
			"type":"VEC3"
		},
		{
			"bufferView":5,
			"componentType":5126,
			"count":32,
			"type":"VEC3"
		},
		{
			"bufferView":6,
			"componentType":5126,
			"count":32,
			"type":"VEC2"
		},
		{
			"bufferView":7,
			"componentType":5123,
			"count":90,
			"type":"SCALAR"
		},
		{
			"bufferView":8,
			"componentType":5126,
			"count":130,
			"max":[
				1,
				1,
				1
			],
			"min":[
				-1,
				-1,
				-1
			],
			"type":"VEC3"
		},
		{
			"bufferView":9,
			"componentType":5126,
			"count":130,
			"type":"VEC3"
		},
		{
			"bufferView":10,
			"componentType":5126,
			"count":130,
			"type":"VEC2"
		},
		{
			"bufferView":11,
			"componentType":5123,
			"count":372,
			"type":"SCALAR"
		},
		{
			"bufferView":12,
			"componentType":5126,
			"count":24,
			"max":[
				1,
				20.001760482788086,
				1
			],
			"min":[
				-1,
				-1,
				-1
			],
			"type":"VEC3"
		},
		{
			"bufferView":13,
			"componentType":5126,
			"count":24,
			"type":"VEC3"
		},
		{
			"bufferView":14,
			"componentType":5126,
			"count":24,
			"type":"VEC2"
		},
		{
			"bufferView":15,
			"componentType":5123,
			"count":36,
			"type":"SCALAR"
		},
		{
			"bufferView":16,
			"componentType":5126,
			"count":24,
			"max":[
				1,
				20.001760482788086,
				1
			],
			"min":[
				-1,
				-1,
				-1
			],
			"type":"VEC3"
		},
		{
			"bufferView":17,
			"componentType":5126,
			"count":24,
			"type":"VEC3"
		},
		{
			"bufferView":18,
			"componentType":5126,
			"count":24,
			"type":"VEC2"
		},
		{
			"bufferView":19,
			"componentType":5126,
			"count":192,
			"max":[
				9.344086647033691,
				1,
				9.344086647033691
			],
			"min":[
				-9.344086647033691,
				-23.701475143432617,
				-9.344086647033691
			],
			"type":"VEC3"
		},
		{
			"bufferView":20,
			"componentType":5126,
			"count":192,
			"type":"VEC3"
		},
		{
			"bufferView":21,
			"componentType":5126,
			"count":192,
			"type":"VEC2"
		},
		{
			"bufferView":22,
			"componentType":5123,
			"count":372,
			"type":"SCALAR"
		},
		{
			"bufferView":23,
			"componentType":5126,
			"count":100,
			"max":[
				4.166666666666667
			],
			"min":[
				0.041666666666666664
			],
			"type":"SCALAR"
		},
		{
			"bufferView":24,
			"componentType":5126,
			"count":100,
			"type":"VEC4"
		},
		{
			"bufferView":25,
			"componentType":5126,
			"count":100,
			"type":"VEC3"
		},
		{
			"bufferView":26,
			"componentType":5126,
			"count":100,
			"type":"VEC3"
		}
	],
	"bufferViews":[
		{
			"buffer":0,
			"byteLength":4788,
			"byteOffset":0,
			"target":34962
		},
		{
			"buffer":0,
			"byteLength":4788,
			"byteOffset":4788,
			"target":34962
		},
		{
			"buffer":0,
			"byteLength":3192,
			"byteOffset":9576,
			"target":34962
		},
		{
			"buffer":0,
			"byteLength":2484,
			"byteOffset":12768,
			"target":34963
		},
		{
			"buffer":0,
			"byteLength":384,
			"byteOffset":15252,
			"target":34962
		},
		{
			"buffer":0,
			"byteLength":384,
			"byteOffset":15636,
			"target":34962
		},
		{
			"buffer":0,
			"byteLength":256,
			"byteOffset":16020,
			"target":34962
		},
		{
			"buffer":0,
			"byteLength":180,
			"byteOffset":16276,
			"target":34963
		},
		{
			"buffer":0,
			"byteLength":1560,
			"byteOffset":16456,
			"target":34962
		},
		{
			"buffer":0,
			"byteLength":1560,
			"byteOffset":18016,
			"target":34962
		},
		{
			"buffer":0,
			"byteLength":1040,
			"byteOffset":19576,
			"target":34962
		},
		{
			"buffer":0,
			"byteLength":744,
			"byteOffset":20616,
			"target":34963
		},
		{
			"buffer":0,
			"byteLength":288,
			"byteOffset":21360,
			"target":34962
		},
		{
			"buffer":0,
			"byteLength":288,
			"byteOffset":21648,
			"target":34962
		},
		{
			"buffer":0,
			"byteLength":192,
			"byteOffset":21936,
			"target":34962
		},
		{
			"buffer":0,
			"byteLength":72,
			"byteOffset":22128,
			"target":34963
		},
		{
			"buffer":0,
			"byteLength":288,
			"byteOffset":22200,
			"target":34962
		},
		{
			"buffer":0,
			"byteLength":288,
			"byteOffset":22488,
			"target":34962
		},
		{
			"buffer":0,
			"byteLength":192,
			"byteOffset":22776,
			"target":34962
		},
		{
			"buffer":0,
			"byteLength":2304,
			"byteOffset":22968,
			"target":34962
		},
		{
			"buffer":0,
			"byteLength":2304,
			"byteOffset":25272,
			"target":34962
		},
		{
			"buffer":0,
			"byteLength":1536,
			"byteOffset":27576,
			"target":34962
		},
		{
			"buffer":0,
			"byteLength":744,
			"byteOffset":29112,
			"target":34963
		},
		{
			"buffer":0,
			"byteLength":400,
			"byteOffset":29856
		},
		{
			"buffer":0,
			"byteLength":1600,
			"byteOffset":30256
		},
		{
			"buffer":0,
			"byteLength":1200,
			"byteOffset":31856
		},
		{
			"buffer":0,
			"byteLength":1200,
			"byteOffset":33056
		}
	],
	"buffers":[
		{
			"byteLength":34256,
			"uri":"data:application/octet-stream;base64,"
		}
	]
}
