{
	"asset":{
		"generator":"Khronos glTF Blender I/O v3.6.27",
		"version":"2.0"
	},
	"scene":0,
	"scenes":[
		{
			"name":"Scene",
			"nodes":[
				0,
				1,
				2,
				3
			]
		}
	],
	"nodes":[
		{
			"mesh":0,
			"name":"\u041a\u0443\u0431.001",
			"scale":[
				3.102213144302368,
				3.102213144302368,
				3.102213144302368
			],
			"translation":[
				0,
				-3.9297707080841064,
				-3.4271628856658936
			]
		},
		{
			"mesh":1,
			"name":"\u041a\u0443\u0431.002",
			"scale":[
				1.3925204277038574,
				0.2074674367904663,
				1
			],
			"translation":[
				0,
				-2.671808958053589,
				-1.2623615264892578
			]
		},
		{
			"mesh":2,
			"name":"\u0426\u0438\u043b\u0438\u043d\u0434\u0440",
			"rotation":[
				-0.06829048693180084,
				0.11182975023984909,
				-0.6850733160972595,
				0.7165927290916443
			],
			"scale":[
				3.498016357421875,
				0.9283166527748108,
				3.498016834259033
			],
			"translation":[
				-8.255757331848145,
				-3.2173006534576416,
				-4.635782241821289
			]
		},
		{
			"mesh":3,
			"name":"\u0426\u0438\u043b\u0438\u043d\u0434\u0440.001",
			"rotation":[
				0.7159320712089539,
				0.6728344559669495,
				0.13922588527202606,
				0.12390030175447464
			],
			"scale":[
				-3.498016357421875,
				-0.9283167123794556,
				-3.498016834259033
			],
			"translation":[
				8.185165405273438,
				-3.2173006534576416,
				-4.635782241821289
			]
		}
	],
	"materials":[
		{
			"doubleSided":true,
			"name":"\u041c\u0430\u0442\u0435\u0440\u0438\u0430\u043b.009",
			"pbrMetallicRoughness":{
				"baseColorFactor":[
					0.10569780319929123,
					0.10490380972623825,
					0.11927536875009537,
					1
				],
				"metallicFactor":0,
				"roughnessFactor":0.5
			}
		},
		{
			"doubleSided":true,
			"name":"\u041c\u0430\u0442\u0435\u0440\u0438\u0430\u043b.011",
			"pbrMetallicRoughness":{
				"baseColorFactor":[
					0,
					0,
					0,
					1
				],
				"metallicFactor":0,
				"roughnessFactor":0.5
			}
		},
		{
			"doubleSided":true,
			"name":"\u041c\u0430\u0442\u0435\u0440\u0438\u0430\u043b.010",
			"pbrMetallicRoughness":{
				"baseColorFactor":[
					0.0495489239692688,
					0.0495489239692688,
					0.0495489239692688,
					1
				],
				"metallicFactor":0,
				"roughnessFactor":0.5
			}
		},
		{
			"doubleSided":true,
			"name":"\u041c\u0430\u0442\u0435\u0440\u0438\u0430\u043b.012",
			"pbrMetallicRoughness":{
				"baseColorFactor":[
					0.02197912335395813,
					0.02197912335395813,
					0.02197912335395813,
					1
				],
				"metallicFactor":0,
				"roughnessFactor":0.5
			}
		},
		{
			"doubleSided":true,
			"name":"\u041c\u0430\u0442\u0435\u0440\u0438\u0430\u043b.004",
			"pbrMetallicRoughness":{
				"baseColorFactor":[
					0.16264168918132782,
					0.16264168918132782,
					0.16264168918132782,
					1
				],
				"metallicFactor":0,
				"roughnessFactor":0.5
			}
		},
		{
			"doubleSided":true,
			"name":"\u041c\u0430\u0442\u0435\u0440\u0438\u0430\u043b.013",
			"pbrMetallicRoughness":{
				"baseColorFactor":[
					0.02197912335395813,
					0.02197912335395813,
					0.02197912335395813,
					1
				],
				"metallicFactor":0,
				"roughnessFactor":0.5
			}
		},
		{
			"doubleSided":true,
			"name":"\u041c\u0430\u0442\u0435\u0440\u0438\u0430\u043b.014",
			"pbrMetallicRoughness":{
				"baseColorFactor":[
					0.16264168918132782,
					0.16264168918132782,
					0.16264168918132782,
					1
				],
				"metallicFactor":0,
				"roughnessFactor":0.5
			}
		}
	],
	"meshes":[
		{
			"name":"\u041a\u0443\u0431.003",
			"primitives":[
				{
					"attributes":{
						"POSITION":0,
						"NORMAL":1,
						"TEXCOORD_0":2
					},
					"indices":3,
					"material":0
				},
				{
					"attributes":{
						"POSITION":4,
						"NORMAL":5,
						"TEXCOORD_0":6
					},
					"indices":7,
					"material":1
				}
			]
		},
		{
			"name":"\u041a\u0443\u0431.004",
			"primitives":[
				{
					"attributes":{
						"POSITION":8,
						"NORMAL":9,
						"TEXCOORD_0":10
					},
					"indices":11,
					"material":2
				}
			]
		},
		{
			"name":"\u0426\u0438\u043b\u0438\u043d\u0434\u0440.001",
			"primitives":[
				{
					"attributes":{
						"POSITION":12,
						"NORMAL":13,
						"TEXCOORD_0":14
					},
					"indices":15,
					"material":3
				},
				{
					"attributes":{
						"POSITION":16,
						"NORMAL":17,
						"TEXCOORD_0":18
					},
					"indices":19,
					"material":4
				}
			]
		},
		{
			"name":"\u0426\u0438\u043b\u0438\u043d\u0434\u0440.002",
			"primitives":[
				{
					"attributes":{
						"POSITION":20,
						"NORMAL":21,
						"TEXCOORD_0":22
					},
					"indices":15,
					"material":5
				},
				{
					"attributes":{
						"POSITION":23,
						"NORMAL":24,
						"TEXCOORD_0":25
					},
					"indices":19,
					"material":6
				}
			]
		}
	],
	"accessors":[
		{
			"bufferView":0,
			"componentType":5126,
			"count":50,
			"max":[
				2.6525282859802246,
				1.788008213043213,
				1
			],
			"min":[
				-2.6525282859802246,
				-1.3043526411056519,
				-1.9998406171798706
			],
			"type":"VEC3"
		},
		{
			"bufferView":1,
			"componentType":5126,
			"count":50,
			"type":"VEC3"
		},
		{
			"bufferView":2,
			"componentType":5126,
			"count":50,
			"type":"VEC2"
		},
		{
			"bufferView":3,
			"componentType":5123,
			"count":210,
			"type":"SCALAR"
		},
		{
			"bufferView":4,
			"componentType":5126,
			"count":8,
			"max":[
				0.840018093585968,
				0.8486102819442749,
				0.9795373678207397
			],
			"min":[
				-0.840018093585968,
				-0.8314259052276611,
				0.6301959753036499
			],
			"type":"VEC3"
		},
		{
			"bufferView":5,
			"componentType":5126,
			"count":8,
			"type":"VEC3"
		},
		{
			"bufferView":6,
			"componentType":5126,
			"count":8,
			"type":"VEC2"
		},
		{
			"bufferView":7,
			"componentType":5123,
			"count":18,
			"type":"SCALAR"
		},
		{
			"bufferView":8,
			"componentType":5126,
			"count":96,
			"max":[
				1.0000001192092896,
				1,
				1
			],
			"min":[
				-1.0000001192092896,
				-13.024556159973145,
				-1
			],
			"type":"VEC3"
		},
		{
			"bufferView":9,
			"componentType":5126,
			"count":96,
			"type":"VEC3"
		},
		{
			"bufferView":10,
			"componentType":5126,
			"count":96,
			"type":"VEC2"
		},
		{
			"bufferView":11,
			"componentType":5123,
			"count":144,
			"type":"SCALAR"
		},
		{
			"bufferView":12,
			"componentType":5126,
			"count":186,
			"max":[
				1,
				3.0431079864501953,
				1
			],
			"min":[
				-1,
				-1.0000001192092896,
				-1
			],
			"type":"VEC3"
		},
		{
			"bufferView":13,
			"componentType":5126,
			"count":186,
			"type":"VEC3"
		},
		{
			"bufferView":14,
			"componentType":5126,
			"count":186,
			"type":"VEC2"
		},
		{
			"bufferView":15,
			"componentType":5123,
			"count":570,
			"type":"SCALAR"
		},
		{
			"bufferView":16,
			"componentType":5126,
			"count":48,
			"max":[
				0.8356500267982483,
				-0.9999995231628418,
				0.8356500864028931
			],
			"min":[
				-0.8356500267982483,
				-1.0000001192092896,
				-0.8356499671936035
			],
			"type":"VEC3"
		},
		{
			"bufferView":17,
			"componentType":5126,
			"count":48,
			"type":"VEC3"
		},
		{
			"bufferView":18,
			"componentType":5126,
			"count":48,
			"type":"VEC2"
		},
		{
			"bufferView":19,
			"componentType":5123,
			"count":90,
			"type":"SCALAR"
		},
		{
			"bufferView":20,
			"componentType":5126,
			"count":186,
			"max":[
				1,
				3.0431079864501953,
				1
			],
			"min":[
				-1,
				-1.0000001192092896,
				-1
			],
			"type":"VEC3"
		},
		{
			"bufferView":21,
			"componentType":5126,
			"count":186,
			"type":"VEC3"
		},
		{
			"bufferView":22,
			"componentType":5126,
			"count":186,
			"type":"VEC2"
		},
		{
			"bufferView":23,
			"componentType":5126,
			"count":48,
			"max":[
				0.8356500267982483,
				-0.9999995231628418,
				0.8356500864028931
			],
			"min":[
				-0.8356500267982483,
				-1.0000001192092896,
				-0.8356499671936035
			],
			"type":"VEC3"
		},
		{
			"bufferView":24,
			"componentType":5126,
			"count":48,
			"type":"VEC3"
		},
		{
			"bufferView":25,
			"componentType":5126,
			"count":48,
			"type":"VEC2"
		}
	],
	"bufferViews":[
		{
			"buffer":0,
			"byteLength":600,
			"byteOffset":0,
			"target":34962
		},
		{
			"buffer":0,
			"byteLength":600,
			"byteOffset":600,
			"target":34962
		},
		{
			"buffer":0,
			"byteLength":400,
			"byteOffset":1200,
			"target":34962
		},
		{
			"buffer":0,
			"byteLength":420,
			"byteOffset":1600,
			"target":34963
		},
		{
			"buffer":0,
			"byteLength":96,
			"byteOffset":2020,
			"target":34962
		},
		{
			"buffer":0,
			"byteLength":96,
			"byteOffset":2116,
			"target":34962
		},
		{
			"buffer":0,
			"byteLength":64,
			"byteOffset":2212,
			"target":34962
		},
		{
			"buffer":0,
			"byteLength":36,
			"byteOffset":2276,
			"target":34963
		},
		{
			"buffer":0,
			"byteLength":1152,
			"byteOffset":2312,
			"target":34962
		},
		{
			"buffer":0,
			"byteLength":1152,
			"byteOffset":3464,
			"target":34962
		},
		{
			"buffer":0,
			"byteLength":768,
			"byteOffset":4616,
			"target":34962
		},
		{
			"buffer":0,
			"byteLength":288,
			"byteOffset":5384,
			"target":34963
		},
		{
			"buffer":0,
			"byteLength":2232,
			"byteOffset":5672,
			"target":34962
		},
		{
			"buffer":0,
			"byteLength":2232,
			"byteOffset":7904,
			"target":34962
		},
		{
			"buffer":0,
			"byteLength":1488,
			"byteOffset":10136,
			"target":34962
		},
		{
			"buffer":0,
			"byteLength":1140,
			"byteOffset":11624,
			"target":34963
		},
		{
			"buffer":0,
			"byteLength":576,
			"byteOffset":12764,
			"target":34962
		},
		{
			"buffer":0,
			"byteLength":576,
			"byteOffset":13340,
			"target":34962
		},
		{
			"buffer":0,
			"byteLength":384,
			"byteOffset":13916,
			"target":34962
		},
		{
			"buffer":0,
			"byteLength":180,
			"byteOffset":14300,
			"target":34963
		},
		{
			"buffer":0,
			"byteLength":2232,
			"byteOffset":14480,
			"target":34962
		},
		{
			"buffer":0,
			"byteLength":2232,
			"byteOffset":16712,
			"target":34962
		},
		{
			"buffer":0,
			"byteLength":1488,
			"byteOffset":18944,
			"target":34962
		},
		{
			"buffer":0,
			"byteLength":576,
			"byteOffset":20432,
			"target":34962
		},
		{
			"buffer":0,
			"byteLength":576,
			"byteOffset":21008,
			"target":34962
		},
		{
			"buffer":0,
			"byteLength":384,
			"byteOffset":21584,
			"target":34962
		}
	],
	"buffers":[
		{
			"byteLength":21968,
			"uri":"data:application/octet-stream;base64,"
		}
	]
}
