{
	"asset":{
		"generator":"Khronos glTF Blender I/O v3.6.27",
		"version":"2.0"
	},
	"scene":0,
	"scenes":[
		{
			"name":"Scene",
			"nodes":[
				0,
				1,
				2,
				3,
				4
			]
		}
	],
	"nodes":[
		{
			"mesh":0,
			"name":"\u0426\u0438\u043b\u0438\u043d\u0434\u0440",
			"scale":[
				1.4845551252365112,
				3.501805543899536,
				1.4845551252365112
			]
		},
		{
			"mesh":1,
			"name":"\u0426\u0438\u043b\u0438\u043d\u0434\u0440.001",
			"rotation":[
				0.7071068286895752,
				0,
				0,
				0.7071068286895752
			],
			"scale":[
				0.1887206882238388,
				0.6871536374092102,
				0.1887206882238388
			],
			"translation":[
				0,
				5.435268878936768,
				-0.6946635246276855
			]
		},
		{
			"mesh":2,
			"name":"\u0426\u0438\u043b\u0438\u043d\u0434\u0440.002",
			"rotation":[
				-1,
				0,
				0,
				1.6292068494294654e-07
			],
			"scale":[
				0.15114232897758484,
				0.18791763484477997,
				0.15114232897758484
			],
			"translation":[
				0,
				5.5898237228393555,
				-1.2019529342651367
			]
		},
		{
			"mesh":3,
			"name":"\u0426\u0438\u043b\u0438\u043d\u0434\u0440.003",
			"rotation":[
				0,
				0,
				-0.7071068286895752,
				0.7071068286895752
			],
			"scale":[
				0.5919230580329895,
				0.39531654119491577,
				0.5919230580329895
			],
			"translation":[
				0.12082298845052719,
				6.459402084350586,
				-1.2102289199829102
			]
		},
		{
			"mesh":4,
			"name":"\u041a\u0443\u0431",
			"scale":[
				0.010951082222163677,
				0.2654013931751251,
				0.05680568143725395
			],
			"translation":[
				0.4064406454563141,
				6.480794906616211,
				-1.2192084789276123
			]
		}
	],
	"animations":[
		{
			"channels":[
				{
					"sampler":0,
					"target":{
						"node":4,
						"path":"rotation"
					}
				}
			],
			"name":"\u041a\u0443\u0431Action",
			"samplers":[
				{
					"input":27,
					"interpolation":"LINEAR",
					"output":28
				}
			]
		}
	],
	"materials":[
		{
			"doubleSided":true,
			"name":"\u041c\u0430\u0442\u0435\u0440\u0438\u0430\u043b.007",
			"pbrMetallicRoughness":{
				"baseColorFactor":[
					0.05029214918613434,
					0.08077175170183182,
					0.3185383677482605,
					1
				],
				"metallicFactor":0,
				"roughnessFactor":0.5
			}
		},
		{
			"doubleSided":true,
			"name":"\u041c\u0430\u0442\u0435\u0440\u0438\u0430\u043b.001",
			"pbrMetallicRoughness":{
				"baseColorFactor":[
					0.09083746373653412,
					0.09083746373653412,
					0.09083746373653412,
					1
				],
				"metallicFactor":0,
				"roughnessFactor":0.5
			}
		},
		{
			"doubleSided":true,
			"name":"\u041c\u0430\u0442\u0435\u0440\u0438\u0430\u043b.008",
			"pbrMetallicRoughness":{
				"baseColorFactor":[
					0.09083746373653412,
					0.09083746373653412,
					0.09083746373653412,
					1
				],
				"metallicFactor":0,
				"roughnessFactor":0.5
			}
		},
		{
			"doubleSided":true,
			"name":"\u041c\u0430\u0442\u0435\u0440\u0438\u0430\u043b.005",
			"pbrMetallicRoughness":{
				"baseColorFactor":[
					0.800000011920929,
					0.800000011920929,
					0.800000011920929,
					1
				],
				"metallicFactor":0,
				"roughnessFactor":0.5
			}
		},
		{
			"doubleSided":true,
			"name":"\u041c\u0430\u0442\u0435\u0440\u0438\u0430\u043b.004",
			"pbrMetallicRoughness":{
				"baseColorFactor":[
					0.162641242146492,
					0.014860227704048157,
					0.011775430291891098,
					1
				],
				"metallicFactor":0,
				"roughnessFactor":0.5
			}
		}
	],
	"meshes":[
		{
			"name":"\u0426\u0438\u043b\u0438\u043d\u0434\u0440.024",
			"primitives":[
				{
					"attributes":{
						"POSITION":0,
						"NORMAL":1,
						"TEXCOORD_0":2
					},
					"indices":3,
					"material":0
				},
				{
					"attributes":{
						"POSITION":4,
						"NORMAL":5,
						"TEXCOORD_0":6
					},
					"indices":7,
					"material":1
				}
			]
		},
		{
			"name":"\u0426\u0438\u043b\u0438\u043d\u0434\u0440.025",
			"primitives":[
				{
					"attributes":{
						"POSITION":8,
						"NORMAL":9,
						"TEXCOORD_0":10
					},
					"indices":11,
					"material":1
				}
			]
		},
		{
			"name":"\u0426\u0438\u043b\u0438\u043d\u0434\u0440.026",
			"primitives":[
				{
					"attributes":{
						"POSITION":12,
						"NORMAL":13,
						"TEXCOORD_0":14
					},
					"indices":11,
					"material":2
				}
			]
		},
		{
			"name":"\u0426\u0438\u043b\u0438\u043d\u0434\u0440.027",
			"primitives":[
				{
					"attributes":{
						"POSITION":15,
						"NORMAL":16,
						"TEXCOORD_0":17
					},
					"indices":18,
					"material":1
				},
				{
					"attributes":{
						"POSITION":19,
						"NORMAL":20,
						"TEXCOORD_0":21
					},
					"indices":22,
					"material":3
				}
			]
		},
		{
			"name":"\u041a\u0443\u0431.015",
			"primitives":[
				{
					"attributes":{
						"POSITION":23,
						"NORMAL":24,
						"TEXCOORD_0":25
					},
					"indices":26,
					"material":4
				}
			]
		}
	],
	"accessors":[
		{
			"bufferView":0,
			"componentType":5126,
			"count":118,
			"max":[
				1,
				1.350946068763733,
				1
			],
			"min":[
				-1,
				-1,
				-1
			],
			"type":"VEC3"
		},
		{
			"bufferView":1,
			"componentType":5126,
			"count":118,
			"type":"VEC3"
		},
		{
			"bufferView":2,
			"componentType":5126,
			"count":118,
			"type":"VEC2"
		},
		{
			"bufferView":3,
			"componentType":5123,
			"count":522,
			"type":"SCALAR"
		},
		{
			"bufferView":4,
			"componentType":5126,
			"count":186,
			"max":[
				0.30109140276908875,
				1.75642991065979,
				0.30109140276908875
			],
			"min":[
				-0.30109143257141113,
				1.350946068763733,
				-0.30109140276908875
			],
			"type":"VEC3"
		},
		{
			"bufferView":5,
			"componentType":5126,
			"count":186,
			"type":"VEC3"
		},
		{
			"bufferView":6,
			"componentType":5126,
			"count":186,
			"type":"VEC2"
		},
		{
			"bufferView":7,
			"componentType":5123,
			"count":522,
			"type":"SCALAR"
		},
		{
			"bufferView":8,
			"componentType":5126,
			"count":219,
			"max":[
				1.7300549745559692,
				1,
				1.7300560474395752
			],
			"min":[
				-1.730054497718811,
				-2.481685161590576,
				-1.7300529479980469
			],
			"type":"VEC3"
		},
		{
			"bufferView":9,
			"componentType":5126,
			"count":219,
			"type":"VEC3"
		},
		{
			"bufferView":10,
			"componentType":5126,
			"count":219,
			"type":"VEC2"
		},
		{
			"bufferView":11,
			"componentType":5123,
			"count":660,
			"type":"SCALAR"
		},
		{
			"bufferView":12,
			"componentType":5126,
			"count":219,
			"max":[
				1.7300549745559692,
				1,
				1.7300560474395752
			],
			"min":[
				-1.730054497718811,
				-2.481685161590576,
				-1.7300529479980469
			],
			"type":"VEC3"
		},
		{
			"bufferView":13,
			"componentType":5126,
			"count":219,
			"type":"VEC3"
		},
		{
			"bufferView":14,
			"componentType":5126,
			"count":219,
			"type":"VEC2"
		},
		{
			"bufferView":15,
			"componentType":5126,
			"count":118,
			"max":[
				1,
				1,
				1
			],
			"min":[
				-1,
				-1,
				-1
			],
			"type":"VEC3"
		},
		{
			"bufferView":16,
			"componentType":5126,
			"count":118,
			"type":"VEC3"
		},
		{
			"bufferView":17,
			"componentType":5126,
			"count":118,
			"type":"VEC2"
		},
		{
			"bufferView":18,
			"componentType":5123,
			"count":330,
			"type":"SCALAR"
		},
		{
			"bufferView":19,
			"componentType":5126,
			"count":16,
			"max":[
				0.8036170601844788,
				0.5004774928092957,
				0.8036166429519653
			],
			"min":[
				-0.8036163449287415,
				0.5004774928092957,
				-0.8036167621612549
			],
			"type":"VEC3"
		},
		{
			"bufferView":20,
			"componentType":5126,
			"count":16,
			"type":"VEC3"
		},
		{
			"bufferView":21,
			"componentType":5126,
			"count":16,
			"type":"VEC2"
		},
		{
			"bufferView":22,
			"componentType":5123,
			"count":42,
			"type":"SCALAR"
		},
		{
			"bufferView":23,
			"componentType":5126,
			"count":24,
			"max":[
				1,
				1.6172879934310913,
				1
			],
			"min":[
				-1,
				-0.3827120065689087,
				-1
			],
			"type":"VEC3"
		},
		{
			"bufferView":24,
			"componentType":5126,
			"count":24,
			"type":"VEC3"
		},
		{
			"bufferView":25,
			"componentType":5126,
			"count":24,
			"type":"VEC2"
		},
		{
			"bufferView":26,
			"componentType":5123,
			"count":36,
			"type":"SCALAR"
		},
		{
			"bufferView":27,
			"componentType":5126,
			"count":101,
			"max":[
				4.166666666666667
			],
			"min":[
				0
			],
			"type":"SCALAR"
		},
		{
			"bufferView":28,
			"componentType":5126,
			"count":101,
			"type":"VEC4"
		}
	],
	"bufferViews":[
		{
			"buffer":0,
			"byteLength":1416,
			"byteOffset":0,
			"target":34962
		},
		{
			"buffer":0,
			"byteLength":1416,
			"byteOffset":1416,
			"target":34962
		},
		{
			"buffer":0,
			"byteLength":944,
			"byteOffset":2832,
			"target":34962
		},
		{
			"buffer":0,
			"byteLength":1044,
			"byteOffset":3776,
			"target":34963
		},
		{
			"buffer":0,
			"byteLength":2232,
			"byteOffset":4820,
			"target":34962
		},
		{
			"buffer":0,
			"byteLength":2232,
			"byteOffset":7052,
			"target":34962
		},
		{
			"buffer":0,
			"byteLength":1488,
			"byteOffset":9284,
			"target":34962
		},
		{
			"buffer":0,
			"byteLength":1044,
			"byteOffset":10772,
			"target":34963
		},
		{
			"buffer":0,
			"byteLength":2628,
			"byteOffset":11816,
			"target":34962
		},
		{
			"buffer":0,
			"byteLength":2628,
			"byteOffset":14444,
			"target":34962
		},
		{
			"buffer":0,
			"byteLength":1752,
			"byteOffset":17072,
			"target":34962
		},
		{
			"buffer":0,
			"byteLength":1320,
			"byteOffset":18824,
			"target":34963
		},
		{
			"buffer":0,
			"byteLength":2628,
			"byteOffset":20144,
			"target":34962
		},
		{
			"buffer":0,
			"byteLength":2628,
			"byteOffset":22772,
			"target":34962
		},
		{
			"buffer":0,
			"byteLength":1752,
			"byteOffset":25400,
			"target":34962
		},
		{
			"buffer":0,
			"byteLength":1416,
			"byteOffset":27152,
			"target":34962
		},
		{
			"buffer":0,
			"byteLength":1416,
			"byteOffset":28568,
			"target":34962
		},
		{
			"buffer":0,
			"byteLength":944,
			"byteOffset":29984,
			"target":34962
		},
		{
			"buffer":0,
			"byteLength":660,
			"byteOffset":30928,
			"target":34963
		},
		{
			"buffer":0,
			"byteLength":192,
			"byteOffset":31588,
			"target":34962
		},
		{
			"buffer":0,
			"byteLength":192,
			"byteOffset":31780,
			"target":34962
		},
		{
			"buffer":0,
			"byteLength":128,
			"byteOffset":31972,
			"target":34962
		},
		{
			"buffer":0,
			"byteLength":84,
			"byteOffset":32100,
			"target":34963
		},
		{
			"buffer":0,
			"byteLength":288,
			"byteOffset":32184,
			"target":34962
		},
		{
			"buffer":0,
			"byteLength":288,
			"byteOffset":32472,
			"target":34962
		},
		{
			"buffer":0,
			"byteLength":192,
			"byteOffset":32760,
			"target":34962
		},
		{
			"buffer":0,
			"byteLength":72,
			"byteOffset":32952,
			"target":34963
		},
		{
			"buffer":0,
			"byteLength":404,
			"byteOffset":33024
		},
		{
			"buffer":0,
			"byteLength":1616,
			"byteOffset":33428
		}
	],
	"buffers":[
		{
			"byteLength":35044,
			"uri":"data:application/octet-stream;base64,"
		}
	]
}
