{
	"asset":{
		"generator":"Khronos glTF Blender I/O v3.6.27",
		"version":"2.0"
	},
	"scene":0,
	"scenes":[
		{
			"name":"Scene",
			"nodes":[
				0,
				1,
				2,
				3,
				4,
				5
			]
		}
	],
	"nodes":[
		{
			"mesh":0,
			"name":"\u041a\u0443\u0431",
			"scale":[
				7.513666152954102,
				0.16760247945785522,
				1.5359164476394653
			]
		},
		{
			"mesh":1,
			"name":"\u041a\u0443\u0431.002",
			"scale":[
				7.513666152954102,
				0.16760247945785522,
				1.5359164476394653
			],
			"translation":[
				0,
				0,
				-3.289743661880493
			]
		},
		{
			"mesh":2,
			"name":"\u0421\u0444\u0435\u0440\u0430",
			"scale":[
				0.5655949711799622,
				0.5655949711799622,
				0.5655949711799622
			],
			"translation":[
				6.729336261749268,
				0,
				-1.5894641876220703
			]
		},
		{
			"mesh":3,
			"name":"\u041a\u0443\u0431.001",
			"scale":[
				0.4715261161327362,
				0.7706114649772644,
				0.7706114649772644
			],
			"translation":[
				0,
				0,
				3.0862972736358643
			]
		},
		{
			"mesh":4,
			"name":"\u0441\u0432\u0430\u0440\u043a\u0430",
			"rotation":[
				0,
				0,
				-0.9864718914031982,
				0.16393059492111206
			],
			"scale":[
				-1.7208971977233887,
				-0.45780208706855774,
				-0.5749528408050537
			],
			"translation":[
				-3.6630711555480957,
				7.697610855102539,
				-1.5226173400878906
			]
		},
		{
			"mesh":5,
			"name":"\u0418\u043a\u043e\u0441\u0444\u0435\u0440\u0430",
			"scale":[
				0,
				0,
				0
			],
			"translation":[
				0.4568314254283905,
				0.18322709202766418,
				-1.5070548057556152
			]
		}
	],
	"animations":[
		{
			"channels":[
				{
					"sampler":0,
					"target":{
						"node":4,
						"path":"translation"
					}
				},
				{
					"sampler":1,
					"target":{
						"node":4,
						"path":"rotation"
					}
				}
			],
			"name":"\u0441\u0432\u0430\u0440\u043a\u0430Action",
			"samplers":[
				{
					"input":35,
					"interpolation":"LINEAR",
					"output":36
				},
				{
					"input":35,
					"interpolation":"LINEAR",
					"output":37
				}
			]
		},
		{
			"channels":[
				{
					"sampler":0,
					"target":{
						"node":5,
						"path":"scale"
					}
				}
			],
			"name":"\u0418\u043a\u043e\u0441\u0444\u0435\u0440\u0430Action",
			"samplers":[
				{
					"input":38,
					"interpolation":"LINEAR",
					"output":39
				}
			]
		}
	],
	"materials":[
		{
			"doubleSided":true,
			"name":"\u041c\u0430\u0442\u0435\u0440\u0438\u0430\u043b.001",
			"pbrMetallicRoughness":{
				"baseColorFactor":[
					0.09083746373653412,
					0.09083746373653412,
					0.09083746373653412,
					1
				],
				"metallicFactor":0,
				"roughnessFactor":0.5
			}
		},
		{
			"doubleSided":true,
			"name":"\u041c\u0430\u0442\u0435\u0440\u0438\u0430\u043b.004",
			"pbrMetallicRoughness":{
				"baseColorFactor":[
					0.162641242146492,
					0.014860227704048157,
					0.011775430291891098,
					1
				],
				"metallicFactor":0,
				"roughnessFactor":0.5
			}
		},
		{
			"doubleSided":true,
			"name":"\u041c\u0430\u0442\u0435\u0440\u0438\u0430\u043b.003",
			"pbrMetallicRoughness":{
				"baseColorFactor":[
					0.007193451747298241,
					0.007193451747298241,
					0.007193451747298241,
					1
				],
				"metallicFactor":0,
				"roughnessFactor":0.5
			}
		},
		{
			"doubleSided":true,
			"name":"\u041c\u0430\u0442\u0435\u0440\u0438\u0430\u043b.006",
			"pbrMetallicRoughness":{
				"baseColorFactor":[
					0.10328324139118195,
					0.3690674602985382,
					0.8000000715255737,
					1
				],
				"metallicFactor":0,
				"roughnessFactor":0.5
			}
		}
	],
	"meshes":[
		{
			"name":"\u041a\u0443\u0431.010",
			"primitives":[
				{
					"attributes":{
						"POSITION":0,
						"NORMAL":1,
						"TEXCOORD_0":2
					},
					"indices":3,
					"material":0
				}
			]
		},
		{
			"name":"\u041a\u0443\u0431.012",
			"primitives":[
				{
					"attributes":{
						"POSITION":4,
						"NORMAL":5,
						"TEXCOORD_0":6
					},
					"indices":3,
					"material":0
				}
			]
		},
		{
			"name":"\u0421\u0444\u0435\u0440\u0430",
			"primitives":[
				{
					"attributes":{
						"POSITION":7,
						"NORMAL":8,
						"TEXCOORD_0":9
					},
					"indices":10,
					"material":0
				}
			]
		},
		{
			"name":"\u041a\u0443\u0431.013",
			"primitives":[
				{
					"attributes":{
						"POSITION":11,
						"NORMAL":12,
						"TEXCOORD_0":13
					},
					"indices":14,
					"material":0
				},
				{
					"attributes":{
						"POSITION":15,
						"NORMAL":16,
						"TEXCOORD_0":17
					},
					"indices":18,
					"material":1
				},
				{
					"attributes":{
						"POSITION":19,
						"NORMAL":20,
						"TEXCOORD_0":21
					},
					"indices":22,
					"material":2
				}
			]
		},
		{
			"name":"\u041a\u0443\u0431.014",
			"primitives":[
				{
					"attributes":{
						"POSITION":23,
						"NORMAL":24,
						"TEXCOORD_0":25
					},
					"indices":26,
					"material":0
				},
				{
					"attributes":{
						"POSITION":27,
						"NORMAL":28,
						"TEXCOORD_0":29
					},
					"indices":30,
					"material":2
				}
			]
		},
		{
			"name":"\u0418\u043a\u043e\u0441\u0444\u0435\u0440\u0430",
			"primitives":[
				{
					"attributes":{
						"POSITION":31,
						"NORMAL":32,
						"TEXCOORD_0":33
					},
					"indices":34,
					"material":3
				}
			]
		}
	],
	"accessors":[
		{
			"bufferView":0,
			"componentType":5126,
			"count":24,
			"max":[
				1,
				1,
				1
			],
			"min":[
				-1,
				-1,
				-1
			],
			"type":"VEC3"
		},
		{
			"bufferView":1,
			"componentType":5126,
			"count":24,
			"type":"VEC3"
		},
		{
			"bufferView":2,
			"componentType":5126,
			"count":24,
			"type":"VEC2"
		},
		{
			"bufferView":3,
			"componentType":5123,
			"count":36,
			"type":"SCALAR"
		},
		{
			"bufferView":4,
			"componentType":5126,
			"count":24,
			"max":[
				1,
				1,
				1
			],
			"min":[
				-1,
				-1,
				-1
			],
			"type":"VEC3"
		},
		{
			"bufferView":5,
			"componentType":5126,
			"count":24,
			"type":"VEC3"
		},
		{
			"bufferView":6,
			"componentType":5126,
			"count":24,
			"type":"VEC2"
		},
		{
			"bufferView":7,
			"componentType":5126,
			"count":168,
			"max":[
				0.9510565400123596,
				1,
				0.8090170621871948
			],
			"min":[
				-9.85391902923584,
				-1,
				-1
			],
			"type":"VEC3"
		},
		{
			"bufferView":8,
			"componentType":5126,
			"count":168,
			"type":"VEC3"
		},
		{
			"bufferView":9,
			"componentType":5126,
			"count":168,
			"type":"VEC2"
		},
		{
			"bufferView":10,
			"componentType":5123,
			"count":540,
			"type":"SCALAR"
		},
		{
			"bufferView":11,
			"componentType":5126,
			"count":94,
			"max":[
				1,
				1.1768280267715454,
				1
			],
			"min":[
				-1,
				-1,
				-3.1075589656829834
			],
			"type":"VEC3"
		},
		{
			"bufferView":12,
			"componentType":5126,
			"count":94,
			"type":"VEC3"
		},
		{
			"bufferView":13,
			"componentType":5126,
			"count":94,
			"type":"VEC2"
		},
		{
			"bufferView":14,
			"componentType":5123,
			"count":186,
			"type":"SCALAR"
		},
		{
			"bufferView":15,
			"componentType":5126,
			"count":156,
			"max":[
				0.7739510536193848,
				2.2552990913391113,
				5.64454460144043
			],
			"min":[
				-8.156920433044434,
				-2.2634024620056152,
				-3.1206939220428467
			],
			"type":"VEC3"
		},
		{
			"bufferView":16,
			"componentType":5126,
			"count":156,
			"type":"VEC3"
		},
		{
			"bufferView":17,
			"componentType":5126,
			"count":156,
			"type":"VEC2"
		},
		{
			"bufferView":18,
			"componentType":5123,
			"count":366,
			"type":"SCALAR"
		},
		{
			"bufferView":19,
			"componentType":5126,
			"count":48,
			"max":[
				1,
				0.12242487072944641,
				2.7664620876312256
			],
			"min":[
				-1,
				-1.6947922706604004,
				-1
			],
			"type":"VEC3"
		},
		{
			"bufferView":20,
			"componentType":5126,
			"count":48,
			"type":"VEC3"
		},
		{
			"bufferView":21,
			"componentType":5126,
			"count":48,
			"type":"VEC2"
		},
		{
			"bufferView":22,
			"componentType":5123,
			"count":84,
			"type":"SCALAR"
		},
		{
			"bufferView":23,
			"componentType":5126,
			"count":495,
			"max":[
				1,
				2.608612537384033,
				1.972665548324585
			],
			"min":[
				-9.877869606018066,
				-52.195106506347656,
				-1.9387487173080444
			],
			"type":"VEC3"
		},
		{
			"bufferView":24,
			"componentType":5126,
			"count":495,
			"type":"VEC3"
		},
		{
			"bufferView":25,
			"componentType":5126,
			"count":495,
			"type":"VEC2"
		},
		{
			"bufferView":26,
			"componentType":5123,
			"count":1434,
			"type":"SCALAR"
		},
		{
			"bufferView":27,
			"componentType":5126,
			"count":126,
			"max":[
				1.0570224523544312,
				2.608612537384033,
				1.972665548324585
			],
			"min":[
				-6.084009170532227,
				-3.1466968059539795,
				-1.9387487173080444
			],
			"type":"VEC3"
		},
		{
			"bufferView":28,
			"componentType":5126,
			"count":126,
			"type":"VEC3"
		},
		{
			"bufferView":29,
			"componentType":5126,
			"count":126,
			"type":"VEC2"
		},
		{
			"bufferView":30,
			"componentType":5123,
			"count":354,
			"type":"SCALAR"
		},
		{
			"bufferView":31,
			"componentType":5126,
			"count":22,
			"max":[
				0.8944249749183655,
				1,
				0.8506399989128113
			],
			"min":[
				-0.8944249749183655,
				-1,
				-0.8506399989128113
			],
			"type":"VEC3"
		},
		{
			"bufferView":32,
			"componentType":5126,
			"count":22,
			"type":"VEC3"
		},
		{
			"bufferView":33,
			"componentType":5126,
			"count":22,
			"type":"VEC2"
		},
		{
			"bufferView":34,
			"componentType":5123,
			"count":60,
			"type":"SCALAR"
		},
		{
			"bufferView":35,
			"componentType":5126,
			"count":101,
			"max":[
				4.166666666666667
			],
			"min":[
				0
			],
			"type":"SCALAR"
		},
		{
			"bufferView":36,
			"componentType":5126,
			"count":101,
			"type":"VEC3"
		},
		{
			"bufferView":37,
			"componentType":5126,
			"count":101,
			"type":"VEC4"
		},
		{
			"bufferView":38,
			"componentType":5126,
			"count":100,
			"max":[
				4.166666666666667
			],
			"min":[
				0.041666666666666664
			],
			"type":"SCALAR"
		},
		{
			"bufferView":39,
			"componentType":5126,
			"count":100,
			"type":"VEC3"
		}
	],
	"bufferViews":[
		{
			"buffer":0,
			"byteLength":288,
			"byteOffset":0,
			"target":34962
		},
		{
			"buffer":0,
			"byteLength":288,
			"byteOffset":288,
			"target":34962
		},
		{
			"buffer":0,
			"byteLength":192,
			"byteOffset":576,
			"target":34962
		},
		{
			"buffer":0,
			"byteLength":72,
			"byteOffset":768,
			"target":34963
		},
		{
			"buffer":0,
			"byteLength":288,
			"byteOffset":840,
			"target":34962
		},
		{
			"buffer":0,
			"byteLength":288,
			"byteOffset":1128,
			"target":34962
		},
		{
			"buffer":0,
			"byteLength":192,
			"byteOffset":1416,
			"target":34962
		},
		{
			"buffer":0,
			"byteLength":2016,
			"byteOffset":1608,
			"target":34962
		},
		{
			"buffer":0,
			"byteLength":2016,
			"byteOffset":3624,
			"target":34962
		},
		{
			"buffer":0,
			"byteLength":1344,
			"byteOffset":5640,
			"target":34962
		},
		{
			"buffer":0,
			"byteLength":1080,
			"byteOffset":6984,
			"target":34963
		},
		{
			"buffer":0,
			"byteLength":1128,
			"byteOffset":8064,
			"target":34962
		},
		{
			"buffer":0,
			"byteLength":1128,
			"byteOffset":9192,
			"target":34962
		},
		{
			"buffer":0,
			"byteLength":752,
			"byteOffset":10320,
			"target":34962
		},
		{
			"buffer":0,
			"byteLength":372,
			"byteOffset":11072,
			"target":34963
		},
		{
			"buffer":0,
			"byteLength":1872,
			"byteOffset":11444,
			"target":34962
		},
		{
			"buffer":0,
			"byteLength":1872,
			"byteOffset":13316,
			"target":34962
		},
		{
			"buffer":0,
			"byteLength":1248,
			"byteOffset":15188,
			"target":34962
		},
		{
			"buffer":0,
			"byteLength":732,
			"byteOffset":16436,
			"target":34963
		},
		{
			"buffer":0,
			"byteLength":576,
			"byteOffset":17168,
			"target":34962
		},
		{
			"buffer":0,
			"byteLength":576,
			"byteOffset":17744,
			"target":34962
		},
		{
			"buffer":0,
			"byteLength":384,
			"byteOffset":18320,
			"target":34962
		},
		{
			"buffer":0,
			"byteLength":168,
			"byteOffset":18704,
			"target":34963
		},
		{
			"buffer":0,
			"byteLength":5940,
			"byteOffset":18872,
			"target":34962
		},
		{
			"buffer":0,
			"byteLength":5940,
			"byteOffset":24812,
			"target":34962
		},
		{
			"buffer":0,
			"byteLength":3960,
			"byteOffset":30752,
			"target":34962
		},
		{
			"buffer":0,
			"byteLength":2868,
			"byteOffset":34712,
			"target":34963
		},
		{
			"buffer":0,
			"byteLength":1512,
			"byteOffset":37580,
			"target":34962
		},
		{
			"buffer":0,
			"byteLength":1512,
			"byteOffset":39092,
			"target":34962
		},
		{
			"buffer":0,
			"byteLength":1008,
			"byteOffset":40604,
			"target":34962
		},
		{
			"buffer":0,
			"byteLength":708,
			"byteOffset":41612,
			"target":34963
		},
		{
			"buffer":0,
			"byteLength":264,
			"byteOffset":42320,
			"target":34962
		},
		{
			"buffer":0,
			"byteLength":264,
			"byteOffset":42584,
			"target":34962
		},
		{
			"buffer":0,
			"byteLength":176,
			"byteOffset":42848,
			"target":34962
		},
		{
			"buffer":0,
			"byteLength":120,
			"byteOffset":43024,
			"target":34963
		},
		{
			"buffer":0,
			"byteLength":404,
			"byteOffset":43144
		},
		{
			"buffer":0,
			"byteLength":1212,
			"byteOffset":43548
		},
		{
			"buffer":0,
			"byteLength":1616,
			"byteOffset":44760
		},
		{
			"buffer":0,
			"byteLength":400,
			"byteOffset":46376
		},
		{
			"buffer":0,
			"byteLength":1200,
			"byteOffset":46776
		}
	],
	"buffers":[
		{
			"byteLength":47976,
			"uri":"data:application/octet-stream;base64,"
		}
	]
}
