{
	"asset":{
		"generator":"Khronos glTF Blender I/O v3.6.27",
		"version":"2.0"
	},
	"scene":0,
	"scenes":[
		{
			"name":"Scene",
			"nodes":[
				0
			]
		}
	],
	"nodes":[
		{
			"mesh":0,
			"name":"\u041a\u0443\u0431",
			"rotation":[
				0.039403241127729416,
				0,
				0,
				0.9992234110832214
			],
			"scale":[
				4.1727800369262695,
				2.1587085723876953,
				1
			],
			"translation":[
				0,
				4.632181644439697,
				-1.2348966598510742
			]
		}
	],
	"materials":[
		{
			"doubleSided":true,
			"name":"\u041c\u0430\u0442\u0435\u0440\u0438\u0430\u043b.030",
			"pbrMetallicRoughness":{
				"baseColorFactor":[
					0.03740972653031349,
					0.03740972653031349,
					0.03740972653031349,
					1
				],
				"metallicFactor":0,
				"roughnessFactor":0.5
			}
		},
		{
			"doubleSided":true,
			"name":"\u041c\u0430\u0442\u0435\u0440\u0438\u0430\u043b.031",
			"pbrMetallicRoughness":{
				"baseColorFactor":[
					0.07491891831159592,
					0.16802124679088593,
					0.2265830785036087,
					1
				],
				"metallicFactor":0,
				"roughnessFactor":0.5
			}
		}
	],
	"meshes":[
		{
			"name":"\u041a\u0443\u0431.017",
			"primitives":[
				{
					"attributes":{
						"POSITION":0,
						"NORMAL":1,
						"TEXCOORD_0":2,
						"TEXCOORD_1":3
					},
					"indices":4,
					"material":0
				},
				{
					"attributes":{
						"POSITION":5,
						"NORMAL":6,
						"TEXCOORD_0":7,
						"TEXCOORD_1":8
					},
					"indices":9,
					"material":1
				}
			]
		}
	],
	"accessors":[
		{
			"bufferView":0,
			"componentType":5126,
			"count":1048,
			"max":[
				2.0248382091522217,
				4.952062129974365,
				1.0873432159423828
			],
			"min":[
				-2.0248382091522217,
				-6.648247241973877,
				-14.68842887878418
			],
			"type":"VEC3"
		},
		{
			"bufferView":1,
			"componentType":5126,
			"count":1048,
			"type":"VEC3"
		},
		{
			"bufferView":2,
			"componentType":5126,
			"count":1048,
			"type":"VEC2"
		},
		{
			"bufferView":3,
			"componentType":5126,
			"count":1048,
			"type":"VEC2"
		},
		{
			"bufferView":4,
			"componentType":5123,
			"count":4500,
			"type":"SCALAR"
		},
		{
			"bufferView":5,
			"componentType":5126,
			"count":4,
			"max":[
				1.2763482332229614,
				0.7874881029129028,
				0.5892292857170105
			],
			"min":[
				-1.2763482332229614,
				-1.2610533237457275,
				0.5422231554985046
			],
			"type":"VEC3"
		},
		{
			"bufferView":6,
			"componentType":5126,
			"count":4,
			"type":"VEC3"
		},
		{
			"bufferView":7,
			"componentType":5126,
			"count":4,
			"type":"VEC2"
		},
		{
			"bufferView":8,
			"componentType":5126,
			"count":4,
			"type":"VEC2"
		},
		{
			"bufferView":9,
			"componentType":5123,
			"count":6,
			"type":"SCALAR"
		}
	],
	"bufferViews":[
		{
			"buffer":0,
			"byteLength":12576,
			"byteOffset":0,
			"target":34962
		},
		{
			"buffer":0,
			"byteLength":12576,
			"byteOffset":12576,
			"target":34962
		},
		{
			"buffer":0,
			"byteLength":8384,
			"byteOffset":25152,
			"target":34962
		},
		{
			"buffer":0,
			"byteLength":8384,
			"byteOffset":33536,
			"target":34962
		},
		{
			"buffer":0,
			"byteLength":9000,
			"byteOffset":41920,
			"target":34963
		},
		{
			"buffer":0,
			"byteLength":48,
			"byteOffset":50920,
			"target":34962
		},
		{
			"buffer":0,
			"byteLength":48,
			"byteOffset":50968,
			"target":34962
		},
		{
			"buffer":0,
			"byteLength":32,
			"byteOffset":51016,
			"target":34962
		},
		{
			"buffer":0,
			"byteLength":32,
			"byteOffset":51048,
			"target":34962
		},
		{
			"buffer":0,
			"byteLength":12,
			"byteOffset":51080,
			"target":34963
		}
	],
	"buffers":[
		{
			"byteLength":51092,
			"uri":"data:application/octet-stream;base64,"
		}
	]
}
