{
	"asset":{
		"generator":"Khronos glTF Blender I/O v3.6.27",
		"version":"2.0"
	},
	"scene":0,
	"scenes":[
		{
			"name":"Scene",
			"nodes":[
				0
			]
		}
	],
	"nodes":[
		{
			"mesh":0,
			"name":"\u041a\u0443\u0431.001",
			"scale":[
				1,
				1.1610119342803955,
				0.3758496046066284
			],
			"translation":[
				0,
				4.0930609703063965,
				-2.4469985961914062
			]
		}
	],
	"materials":[
		{
			"doubleSided":true,
			"name":"\u041c\u0430\u0442\u0435\u0440\u0438\u0430\u043b.004",
			"pbrMetallicRoughness":{
				"baseColorFactor":[
					0.16264168918132782,
					0.16264168918132782,
					0.16264168918132782,
					1
				],
				"metallicFactor":0,
				"roughnessFactor":0.5
			}
		},
		{
			"doubleSided":true,
			"name":"\u041c\u0430\u0442\u0435\u0440\u0438\u0430\u043b.005",
			"pbrMetallicRoughness":{
				"baseColorFactor":[
					0.410938560962677,
					0.14654915034770966,
					0.05138993263244629,
					1
				],
				"metallicFactor":0,
				"roughnessFactor":0.5
			}
		}
	],
	"meshes":[
		{
			"name":"\u041a\u0443\u0431.001",
			"primitives":[
				{
					"attributes":{
						"POSITION":0,
						"NORMAL":1,
						"TEXCOORD_0":2
					},
					"indices":3,
					"material":0
				},
				{
					"attributes":{
						"POSITION":4,
						"NORMAL":5,
						"TEXCOORD_0":6
					},
					"indices":7,
					"material":1
				}
			]
		}
	],
	"accessors":[
		{
			"bufferView":0,
			"componentType":5126,
			"count":270,
			"max":[
				7.720767021179199,
				1.8358373641967773,
				1
			],
			"min":[
				-7.619850158691406,
				-1.916309118270874,
				-33.4599609375
			],
			"type":"VEC3"
		},
		{
			"bufferView":1,
			"componentType":5126,
			"count":270,
			"type":"VEC3"
		},
		{
			"bufferView":2,
			"componentType":5126,
			"count":270,
			"type":"VEC2"
		},
		{
			"bufferView":3,
			"componentType":5123,
			"count":660,
			"type":"SCALAR"
		},
		{
			"bufferView":4,
			"componentType":5126,
			"count":118,
			"max":[
				6.964351177215576,
				1.2519882917404175,
				1.12459135055542
			],
			"min":[
				-6.865734577178955,
				-1.767245888710022,
				-3.71990966796875
			],
			"type":"VEC3"
		},
		{
			"bufferView":5,
			"componentType":5126,
			"count":118,
			"type":"VEC3"
		},
		{
			"bufferView":6,
			"componentType":5126,
			"count":118,
			"type":"VEC2"
		},
		{
			"bufferView":7,
			"componentType":5123,
			"count":288,
			"type":"SCALAR"
		}
	],
	"bufferViews":[
		{
			"buffer":0,
			"byteLength":3240,
			"byteOffset":0,
			"target":34962
		},
		{
			"buffer":0,
			"byteLength":3240,
			"byteOffset":3240,
			"target":34962
		},
		{
			"buffer":0,
			"byteLength":2160,
			"byteOffset":6480,
			"target":34962
		},
		{
			"buffer":0,
			"byteLength":1320,
			"byteOffset":8640,
			"target":34963
		},
		{
			"buffer":0,
			"byteLength":1416,
			"byteOffset":9960,
			"target":34962
		},
		{
			"buffer":0,
			"byteLength":1416,
			"byteOffset":11376,
			"target":34962
		},
		{
			"buffer":0,
			"byteLength":944,
			"byteOffset":12792,
			"target":34962
		},
		{
			"buffer":0,
			"byteLength":576,
			"byteOffset":13736,
			"target":34963
		}
	],
	"buffers":[
		{
			"byteLength":14312,
			"uri":"data:application/octet-stream;base64,"
		}
	]
}
