{
	"asset":{
		"generator":"Khronos glTF Blender I/O v3.6.27",
		"version":"2.0"
	},
	"scene":0,
	"scenes":[
		{
			"name":"Scene",
			"nodes":[
				0
			]
		}
	],
	"nodes":[
		{
			"mesh":0,
			"name":"\u0426\u0438\u043b\u0438\u043d\u0434\u0440",
			"rotation":[
				-0.06582637876272202,
				0,
				0,
				0.9978311061859131
			],
			"scale":[
				8.655313491821289,
				9.79299259185791,
				9.79299259185791
			],
			"translation":[
				0,
				16.027389526367188,
				-12.921480178833008
			]
		}
	],
	"materials":[
		{
			"doubleSided":true,
			"name":"\u041c\u0430\u0442\u0435\u0440\u0438\u0430\u043b.006",
			"pbrMetallicRoughness":{
				"metallicFactor":0,
				"roughnessFactor":0.5
			}
		}
	],
	"meshes":[
		{
			"name":"\u0426\u0438\u043b\u0438\u043d\u0434\u0440",
			"primitives":[
				{
					"attributes":{
						"POSITION":0,
						"NORMAL":1,
						"TEXCOORD_0":2
					},
					"indices":3,
					"material":0
				}
			]
		}
	],
	"accessors":[
		{
			"bufferView":0,
			"componentType":5126,
			"count":130,
			"max":[
				1,
				0.4527105987071991,
				1.0130252838134766
			],
			"min":[
				-1,
				-1,
				-1.0683706998825073
			],
			"type":"VEC3"
		},
		{
			"bufferView":1,
			"componentType":5126,
			"count":130,
			"type":"VEC3"
		},
		{
			"bufferView":2,
			"componentType":5126,
			"count":130,
			"type":"VEC2"
		},
		{
			"bufferView":3,
			"componentType":5123,
			"count":372,
			"type":"SCALAR"
		}
	],
	"bufferViews":[
		{
			"buffer":0,
			"byteLength":1560,
			"byteOffset":0,
			"target":34962
		},
		{
			"buffer":0,
			"byteLength":1560,
			"byteOffset":1560,
			"target":34962
		},
		{
			"buffer":0,
			"byteLength":1040,
			"byteOffset":3120,
			"target":34962
		},
		{
			"buffer":0,
			"byteLength":744,
			"byteOffset":4160,
			"target":34963
		}
	],
	"buffers":[
		{
			"byteLength":4904,
			"uri":"data:application/octet-stream;base64,"
		}
	]
}
