{
	"asset":{
		"generator":"Khronos glTF Blender I/O v3.6.27",
		"version":"2.0"
	},
	"scene":0,
	"scenes":[
		{
			"name":"Scene",
			"nodes":[
				0,
				1,
				2,
				3,
				4,
				5,
				6,
				7,
				8,
				9
			]
		}
	],
	"nodes":[
		{
			"mesh":0,
			"name":"\u0426\u0438\u043b\u0438\u043d\u0434\u0440",
			"scale":[
				1,
				4.054050445556641,
				1
			]
		},
		{
			"mesh":1,
			"name":"\u0426\u0438\u043b\u0438\u043d\u0434\u0440.001",
			"scale":[
				1,
				4.054050445556641,
				1
			],
			"translation":[
				0,
				0,
				2.1541502475738525
			]
		},
		{
			"mesh":2,
			"name":"\u041a\u0443\u0431",
			"scale":[
				0.48467496037483215,
				0.14336839318275452,
				1.6461950540542603
			],
			"translation":[
				0,
				4.320344924926758,
				1.0542852878570557
			]
		},
		{
			"mesh":3,
			"name":"\u041a\u0443\u0431.001",
			"scale":[
				0.48467496037483215,
				0.14336839318275452,
				1.6461950540542603
			],
			"translation":[
				0,
				-4.382147789001465,
				1.0542852878570557
			]
		},
		{
			"mesh":4,
			"name":"\u041a\u0443\u0431.002",
			"scale":[
				0.1385989785194397,
				0.1385989785194397,
				0.1385989785194397
			],
			"translation":[
				0,
				4.514492034912109,
				0
			]
		},
		{
			"mesh":5,
			"name":"\u041a\u0443\u0431.003",
			"scale":[
				0.1385989785194397,
				0.1385989785194397,
				0.1385989785194397
			],
			"translation":[
				0,
				4.514492034912109,
				0.6394389867782593
			]
		},
		{
			"mesh":6,
			"name":"\u041a\u0443\u0431.004",
			"scale":[
				0.257770299911499,
				1,
				0.7317252159118652
			],
			"translation":[
				-0.004779004491865635,
				6.913331985473633,
				0.34217992424964905
			]
		},
		{
			"mesh":7,
			"name":"\u041a\u0443\u0431.005",
			"rotation":[
				-0.2588190734386444,
				0,
				0,
				0.965925931930542
			],
			"scale":[
				0.13382604718208313,
				0.17152754962444305,
				0.7317252159118652
			],
			"translation":[
				-0.004779004491865635,
				6.913331985473633,
				0.10086959600448608
			]
		},
		{
			"mesh":8,
			"name":"\u041a\u0443\u0431.006",
			"scale":[
				0.42444485425949097,
				0.775890588760376,
				0.6195868849754333
			],
			"translation":[
				0,
				10.192986488342285,
				0.3393462896347046
			]
		},
		{
			"mesh":9,
			"name":"\u0421\u0444\u0435\u0440\u0430",
			"rotation":[
				-0.7071068286895752,
				0,
				0,
				0.7071068286895752
			],
			"scale":[
				0.7576693296432495,
				0.7576693296432495,
				0.7576693296432495
			],
			"translation":[
				0,
				10.212754249572754,
				-1.3636507987976074
			]
		}
	],
	"animations":[
		{
			"channels":[
				{
					"sampler":0,
					"target":{
						"node":7,
						"path":"rotation"
					}
				}
			],
			"name":"\u041a\u0443\u0431.005Action",
			"samplers":[
				{
					"input":45,
					"interpolation":"LINEAR",
					"output":46
				}
			]
		}
	],
	"materials":[
		{
			"doubleSided":true,
			"name":"\u041c\u0430\u0442\u0435\u0440\u0438\u0430\u043b.032",
			"pbrMetallicRoughness":{
				"baseColorFactor":[
					0.047569647431373596,
					0.32660186290740967,
					0.8000000715255737,
					1
				],
				"metallicFactor":0,
				"roughnessFactor":0.5
			}
		},
		{
			"doubleSided":true,
			"name":"\u041c\u0430\u0442\u0435\u0440\u0438\u0430\u043b.033",
			"pbrMetallicRoughness":{
				"baseColorFactor":[
					0.800000011920929,
					0.800000011920929,
					0.800000011920929,
					1
				],
				"metallicFactor":0,
				"roughnessFactor":0.5
			}
		},
		{
			"doubleSided":true,
			"name":"\u041c\u0430\u0442\u0435\u0440\u0438\u0430\u043b.034",
			"pbrMetallicRoughness":{
				"baseColorFactor":[
					0.047569647431373596,
					0.32660186290740967,
					0.8000000715255737,
					1
				],
				"metallicFactor":0,
				"roughnessFactor":0.5
			}
		},
		{
			"doubleSided":true,
			"name":"\u041c\u0430\u0442\u0435\u0440\u0438\u0430\u043b.035",
			"pbrMetallicRoughness":{
				"baseColorFactor":[
					0.800000011920929,
					0.800000011920929,
					0.800000011920929,
					1
				],
				"metallicFactor":0,
				"roughnessFactor":0.5
			}
		},
		{
			"doubleSided":true,
			"name":"\u041c\u0430\u0442\u0435\u0440\u0438\u0430\u043b.004",
			"pbrMetallicRoughness":{
				"baseColorFactor":[
					0.16264168918132782,
					0.16264168918132782,
					0.16264168918132782,
					1
				],
				"metallicFactor":0,
				"roughnessFactor":0.5
			}
		},
		{
			"doubleSided":true,
			"name":"\u041c\u0430\u0442\u0435\u0440\u0438\u0430\u043b.015",
			"pbrMetallicRoughness":{
				"baseColorFactor":[
					0.27383074164390564,
					0.00922383926808834,
					0.0055306451395154,
					1
				],
				"metallicFactor":0,
				"roughnessFactor":0.5
			}
		},
		{
			"doubleSided":true,
			"name":"\u041c\u0430\u0442\u0435\u0440\u0438\u0430\u043b.018",
			"pbrMetallicRoughness":{
				"baseColorFactor":[
					0.01738746464252472,
					0.01738746464252472,
					0.01738746464252472,
					1
				],
				"metallicFactor":0,
				"roughnessFactor":0.5
			}
		},
		{
			"doubleSided":true,
			"name":"\u041c\u0430\u0442\u0435\u0440\u0438\u0430\u043b.027",
			"pbrMetallicRoughness":{
				"baseColorFactor":[
					0.3263751268386841,
					0.3263751268386841,
					0.3263751268386841,
					1
				],
				"metallicFactor":0,
				"roughnessFactor":0.5
			}
		},
		{
			"doubleSided":true,
			"name":"\u041c\u0430\u0442\u0435\u0440\u0438\u0430\u043b.037",
			"pbrMetallicRoughness":{
				"baseColorFactor":[
					0.8000000715255737,
					0.4677240252494812,
					0.10944884270429611,
					1
				],
				"metallicFactor":0,
				"roughnessFactor":0.5
			}
		},
		{
			"doubleSided":true,
			"name":"\u041c\u0430\u0442\u0435\u0440\u0438\u0430\u043b.036",
			"pbrMetallicRoughness":{
				"baseColorFactor":[
					0.16264168918132782,
					0.16264168918132782,
					0.16264168918132782,
					1
				],
				"metallicFactor":0,
				"roughnessFactor":0.5
			}
		}
	],
	"meshes":[
		{
			"name":"\u0426\u0438\u043b\u0438\u043d\u0434\u0440.005",
			"primitives":[
				{
					"attributes":{
						"POSITION":0,
						"NORMAL":1,
						"TEXCOORD_0":2
					},
					"indices":3,
					"material":0
				},
				{
					"attributes":{
						"POSITION":4,
						"NORMAL":5,
						"TEXCOORD_0":6
					},
					"indices":7,
					"material":1
				}
			]
		},
		{
			"name":"\u0426\u0438\u043b\u0438\u043d\u0434\u0440.007",
			"primitives":[
				{
					"attributes":{
						"POSITION":8,
						"NORMAL":9,
						"TEXCOORD_0":10
					},
					"indices":3,
					"material":2
				},
				{
					"attributes":{
						"POSITION":11,
						"NORMAL":12,
						"TEXCOORD_0":13
					},
					"indices":7,
					"material":3
				}
			]
		},
		{
			"name":"\u041a\u0443\u0431.013",
			"primitives":[
				{
					"attributes":{
						"POSITION":14,
						"NORMAL":15,
						"TEXCOORD_0":16
					},
					"indices":17,
					"material":4
				}
			]
		},
		{
			"name":"\u041a\u0443\u0431.014",
			"primitives":[
				{
					"attributes":{
						"POSITION":18,
						"NORMAL":19,
						"TEXCOORD_0":20
					},
					"indices":17,
					"material":4
				}
			]
		},
		{
			"name":"\u041a\u0443\u0431.015",
			"primitives":[
				{
					"attributes":{
						"POSITION":21,
						"NORMAL":22,
						"TEXCOORD_0":23
					},
					"indices":17,
					"material":5
				}
			]
		},
		{
			"name":"\u041a\u0443\u0431.016",
			"primitives":[
				{
					"attributes":{
						"POSITION":24,
						"NORMAL":25,
						"TEXCOORD_0":26
					},
					"indices":17,
					"material":6
				}
			]
		},
		{
			"name":"\u041a\u0443\u0431.018",
			"primitives":[
				{
					"attributes":{
						"POSITION":27,
						"NORMAL":28,
						"TEXCOORD_0":29
					},
					"indices":17,
					"material":4
				}
			]
		},
		{
			"name":"\u041a\u0443\u0431.019",
			"primitives":[
				{
					"attributes":{
						"POSITION":30,
						"NORMAL":31,
						"TEXCOORD_0":32
					},
					"indices":33,
					"material":7
				}
			]
		},
		{
			"name":"\u041a\u0443\u0431.020",
			"primitives":[
				{
					"attributes":{
						"POSITION":34,
						"NORMAL":35,
						"TEXCOORD_0":36
					},
					"indices":17,
					"material":4
				}
			]
		},
		{
			"name":"\u0421\u0444\u0435\u0440\u0430.005",
			"primitives":[
				{
					"attributes":{
						"POSITION":37,
						"NORMAL":38,
						"TEXCOORD_0":39
					},
					"indices":40,
					"material":8
				},
				{
					"attributes":{
						"POSITION":41,
						"NORMAL":42,
						"TEXCOORD_0":43
					},
					"indices":44,
					"material":9
				}
			]
		}
	],
	"accessors":[
		{
			"bufferView":0,
			"componentType":5126,
			"count":330,
			"max":[
				1,
				1.030639886856079,
				1
			],
			"min":[
				-1,
				-1.0411475896835327,
				-1
			],
			"type":"VEC3"
		},
		{
			"bufferView":1,
			"componentType":5126,
			"count":330,
			"type":"VEC3"
		},
		{
			"bufferView":2,
			"componentType":5126,
			"count":330,
			"type":"VEC2"
		},
		{
			"bufferView":3,
			"componentType":5123,
			"count":960,
			"type":"SCALAR"
		},
		{
			"bufferView":4,
			"componentType":5126,
			"count":64,
			"max":[
				0.7851384282112122,
				1.030639886856079,
				0.7851384282112122
			],
			"min":[
				-0.7851384282112122,
				-1.0411475896835327,
				-0.7851384282112122
			],
			"type":"VEC3"
		},
		{
			"bufferView":5,
			"componentType":5126,
			"count":64,
			"type":"VEC3"
		},
		{
			"bufferView":6,
			"componentType":5126,
			"count":64,
			"type":"VEC2"
		},
		{
			"bufferView":7,
			"componentType":5123,
			"count":180,
			"type":"SCALAR"
		},
		{
			"bufferView":8,
			"componentType":5126,
			"count":330,
			"max":[
				1,
				1.030639886856079,
				1
			],
			"min":[
				-1,
				-1.0411475896835327,
				-1
			],
			"type":"VEC3"
		},
		{
			"bufferView":9,
			"componentType":5126,
			"count":330,
			"type":"VEC3"
		},
		{
			"bufferView":10,
			"componentType":5126,
			"count":330,
			"type":"VEC2"
		},
		{
			"bufferView":11,
			"componentType":5126,
			"count":64,
			"max":[
				0.7851384282112122,
				1.030639886856079,
				0.7851384282112122
			],
			"min":[
				-0.7851384282112122,
				-1.0411475896835327,
				-0.7851384282112122
			],
			"type":"VEC3"
		},
		{
			"bufferView":12,
			"componentType":5126,
			"count":64,
			"type":"VEC3"
		},
		{
			"bufferView":13,
			"componentType":5126,
			"count":64,
			"type":"VEC2"
		},
		{
			"bufferView":14,
			"componentType":5126,
			"count":24,
			"max":[
				1,
				1,
				1
			],
			"min":[
				-1,
				-1,
				-1
			],
			"type":"VEC3"
		},
		{
			"bufferView":15,
			"componentType":5126,
			"count":24,
			"type":"VEC3"
		},
		{
			"bufferView":16,
			"componentType":5126,
			"count":24,
			"type":"VEC2"
		},
		{
			"bufferView":17,
			"componentType":5123,
			"count":36,
			"type":"SCALAR"
		},
		{
			"bufferView":18,
			"componentType":5126,
			"count":24,
			"max":[
				1,
				1,
				1
			],
			"min":[
				-1,
				-1,
				-1
			],
			"type":"VEC3"
		},
		{
			"bufferView":19,
			"componentType":5126,
			"count":24,
			"type":"VEC3"
		},
		{
			"bufferView":20,
			"componentType":5126,
			"count":24,
			"type":"VEC2"
		},
		{
			"bufferView":21,
			"componentType":5126,
			"count":24,
			"max":[
				1,
				84.92573547363281,
				1
			],
			"min":[
				-1,
				-1,
				-1
			],
			"type":"VEC3"
		},
		{
			"bufferView":22,
			"componentType":5126,
			"count":24,
			"type":"VEC3"
		},
		{
			"bufferView":23,
			"componentType":5126,
			"count":24,
			"type":"VEC2"
		},
		{
			"bufferView":24,
			"componentType":5126,
			"count":24,
			"max":[
				1,
				84.92573547363281,
				1
			],
			"min":[
				-1,
				-1,
				-1
			],
			"type":"VEC3"
		},
		{
			"bufferView":25,
			"componentType":5126,
			"count":24,
			"type":"VEC3"
		},
		{
			"bufferView":26,
			"componentType":5126,
			"count":24,
			"type":"VEC2"
		},
		{
			"bufferView":27,
			"componentType":5126,
			"count":24,
			"max":[
				1,
				1,
				1
			],
			"min":[
				-1,
				-1,
				-1
			],
			"type":"VEC3"
		},
		{
			"bufferView":28,
			"componentType":5126,
			"count":24,
			"type":"VEC3"
		},
		{
			"bufferView":29,
			"componentType":5126,
			"count":24,
			"type":"VEC2"
		},
		{
			"bufferView":30,
			"componentType":5126,
			"count":40,
			"max":[
				1.6118773221969604,
				1.604434609413147,
				0.026015281677246094
			],
			"min":[
				-1.6118773221969604,
				-1.604430079460144,
				-2.27199125289917
			],
			"type":"VEC3"
		},
		{
			"bufferView":31,
			"componentType":5126,
			"count":40,
			"type":"VEC3"
		},
		{
			"bufferView":32,
			"componentType":5126,
			"count":40,
			"type":"VEC2"
		},
		{
			"bufferView":33,
			"componentType":5123,
			"count":60,
			"type":"SCALAR"
		},
		{
			"bufferView":34,
			"componentType":5126,
			"count":24,
			"max":[
				1,
				1,
				1
			],
			"min":[
				-1,
				-1,
				-1
			],
			"type":"VEC3"
		},
		{
			"bufferView":35,
			"componentType":5126,
			"count":24,
			"type":"VEC3"
		},
		{
			"bufferView":36,
			"componentType":5126,
			"count":24,
			"type":"VEC2"
		},
		{
			"bufferView":37,
			"componentType":5126,
			"count":527,
			"max":[
				0.9999997019767761,
				1,
				0.9999993443489075
			],
			"min":[
				-0.9999990463256836,
				-1.1997393369674683,
				-1
			],
			"type":"VEC3"
		},
		{
			"bufferView":38,
			"componentType":5126,
			"count":527,
			"type":"VEC3"
		},
		{
			"bufferView":39,
			"componentType":5126,
			"count":527,
			"type":"VEC2"
		},
		{
			"bufferView":40,
			"componentType":5123,
			"count":2592,
			"type":"SCALAR"
		},
		{
			"bufferView":41,
			"componentType":5126,
			"count":230,
			"max":[
				0.748185396194458,
				-1.1907472610473633,
				0.7481853365898132
			],
			"min":[
				-0.7481852769851685,
				-1.9792194366455078,
				-0.7481852173805237
			],
			"type":"VEC3"
		},
		{
			"bufferView":42,
			"componentType":5126,
			"count":230,
			"type":"VEC3"
		},
		{
			"bufferView":43,
			"componentType":5126,
			"count":230,
			"type":"VEC2"
		},
		{
			"bufferView":44,
			"componentType":5123,
			"count":864,
			"type":"SCALAR"
		},
		{
			"bufferView":45,
			"componentType":5126,
			"count":90,
			"max":[
				3.75
			],
			"min":[
				0.041666666666666664
			],
			"type":"SCALAR"
		},
		{
			"bufferView":46,
			"componentType":5126,
			"count":90,
			"type":"VEC4"
		}
	],
	"bufferViews":[
		{
			"buffer":0,
			"byteLength":3960,
			"byteOffset":0,
			"target":34962
		},
		{
			"buffer":0,
			"byteLength":3960,
			"byteOffset":3960,
			"target":34962
		},
		{
			"buffer":0,
			"byteLength":2640,
			"byteOffset":7920,
			"target":34962
		},
		{
			"buffer":0,
			"byteLength":1920,
			"byteOffset":10560,
			"target":34963
		},
		{
			"buffer":0,
			"byteLength":768,
			"byteOffset":12480,
			"target":34962
		},
		{
			"buffer":0,
			"byteLength":768,
			"byteOffset":13248,
			"target":34962
		},
		{
			"buffer":0,
			"byteLength":512,
			"byteOffset":14016,
			"target":34962
		},
		{
			"buffer":0,
			"byteLength":360,
			"byteOffset":14528,
			"target":34963
		},
		{
			"buffer":0,
			"byteLength":3960,
			"byteOffset":14888,
			"target":34962
		},
		{
			"buffer":0,
			"byteLength":3960,
			"byteOffset":18848,
			"target":34962
		},
		{
			"buffer":0,
			"byteLength":2640,
			"byteOffset":22808,
			"target":34962
		},
		{
			"buffer":0,
			"byteLength":768,
			"byteOffset":25448,
			"target":34962
		},
		{
			"buffer":0,
			"byteLength":768,
			"byteOffset":26216,
			"target":34962
		},
		{
			"buffer":0,
			"byteLength":512,
			"byteOffset":26984,
			"target":34962
		},
		{
			"buffer":0,
			"byteLength":288,
			"byteOffset":27496,
			"target":34962
		},
		{
			"buffer":0,
			"byteLength":288,
			"byteOffset":27784,
			"target":34962
		},
		{
			"buffer":0,
			"byteLength":192,
			"byteOffset":28072,
			"target":34962
		},
		{
			"buffer":0,
			"byteLength":72,
			"byteOffset":28264,
			"target":34963
		},
		{
			"buffer":0,
			"byteLength":288,
			"byteOffset":28336,
			"target":34962
		},
		{
			"buffer":0,
			"byteLength":288,
			"byteOffset":28624,
			"target":34962
		},
		{
			"buffer":0,
			"byteLength":192,
			"byteOffset":28912,
			"target":34962
		},
		{
			"buffer":0,
			"byteLength":288,
			"byteOffset":29104,
			"target":34962
		},
		{
			"buffer":0,
			"byteLength":288,
			"byteOffset":29392,
			"target":34962
		},
		{
			"buffer":0,
			"byteLength":192,
			"byteOffset":29680,
			"target":34962
		},
		{
			"buffer":0,
			"byteLength":288,
			"byteOffset":29872,
			"target":34962
		},
		{
			"buffer":0,
			"byteLength":288,
			"byteOffset":30160,
			"target":34962
		},
		{
			"buffer":0,
			"byteLength":192,
			"byteOffset":30448,
			"target":34962
		},
		{
			"buffer":0,
			"byteLength":288,
			"byteOffset":30640,
			"target":34962
		},
		{
			"buffer":0,
			"byteLength":288,
			"byteOffset":30928,
			"target":34962
		},
		{
			"buffer":0,
			"byteLength":192,
			"byteOffset":31216,
			"target":34962
		},
		{
			"buffer":0,
			"byteLength":480,
			"byteOffset":31408,
			"target":34962
		},
		{
			"buffer":0,
			"byteLength":480,
			"byteOffset":31888,
			"target":34962
		},
		{
			"buffer":0,
			"byteLength":320,
			"byteOffset":32368,
			"target":34962
		},
		{
			"buffer":0,
			"byteLength":120,
			"byteOffset":32688,
			"target":34963
		},
		{
			"buffer":0,
			"byteLength":288,
			"byteOffset":32808,
			"target":34962
		},
		{
			"buffer":0,
			"byteLength":288,
			"byteOffset":33096,
			"target":34962
		},
		{
			"buffer":0,
			"byteLength":192,
			"byteOffset":33384,
			"target":34962
		},
		{
			"buffer":0,
			"byteLength":6324,
			"byteOffset":33576,
			"target":34962
		},
		{
			"buffer":0,
			"byteLength":6324,
			"byteOffset":39900,
			"target":34962
		},
		{
			"buffer":0,
			"byteLength":4216,
			"byteOffset":46224,
			"target":34962
		},
		{
			"buffer":0,
			"byteLength":5184,
			"byteOffset":50440,
			"target":34963
		},
		{
			"buffer":0,
			"byteLength":2760,
			"byteOffset":55624,
			"target":34962
		},
		{
			"buffer":0,
			"byteLength":2760,
			"byteOffset":58384,
			"target":34962
		},
		{
			"buffer":0,
			"byteLength":1840,
			"byteOffset":61144,
			"target":34962
		},
		{
			"buffer":0,
			"byteLength":1728,
			"byteOffset":62984,
			"target":34963
		},
		{
			"buffer":0,
			"byteLength":360,
			"byteOffset":64712
		},
		{
			"buffer":0,
			"byteLength":1440,
			"byteOffset":65072
		}
	],
	"buffers":[
		{
			"byteLength":66512,
			"uri":"data:application/octet-stream;base64,"
		}
	]
}
