{
	"asset":{
		"generator":"Khronos glTF Blender I/O v3.6.27",
		"version":"2.0"
	},
	"scene":0,
	"scenes":[
		{
			"name":"Scene",
			"nodes":[
				0
			]
		}
	],
	"nodes":[
		{
			"mesh":0,
			"name":"\u0426\u0438\u043b\u0438\u043d\u0434\u0440.001",
			"rotation":[
				-1,
				0,
				0,
				1.6292068494294654e-07
			],
			"scale":[
				0.884494423866272,
				6.441354751586914,
				0.884494423866272
			],
			"translation":[
				8.580764770507812,
				0.8913412094116211,
				0
			]
		}
	],
	"animations":[
		{
			"channels":[
				{
					"sampler":0,
					"target":{
						"node":0,
						"path":"translation"
					}
				},
				{
					"sampler":1,
					"target":{
						"node":0,
						"path":"rotation"
					}
				}
			],
			"name":"\u0426\u0438\u043b\u0438\u043d\u0434\u0440.001Action.001",
			"samplers":[
				{
					"input":8,
					"interpolation":"STEP",
					"output":9
				},
				{
					"input":10,
					"interpolation":"LINEAR",
					"output":11
				}
			]
		}
	],
	"materials":[
		{
			"doubleSided":true,
			"name":"\u041c\u0430\u0442\u0435\u0440\u0438\u0430\u043b.042",
			"pbrMetallicRoughness":{
				"baseColorFactor":[
					0.5925787687301636,
					0.5234634876251221,
					0.3813757002353668,
					1
				],
				"metallicFactor":0,
				"roughnessFactor":0.5
			}
		},
		{
			"doubleSided":true,
			"name":"\u041c\u0430\u0442\u0435\u0440\u0438\u0430\u043b.043",
			"pbrMetallicRoughness":{
				"baseColorFactor":[
					0.008075692690908909,
					0.008075692690908909,
					0.008075692690908909,
					1
				],
				"metallicFactor":0,
				"roughnessFactor":0.5
			}
		}
	],
	"meshes":[
		{
			"name":"\u0426\u0438\u043b\u0438\u043d\u0434\u0440.017",
			"primitives":[
				{
					"attributes":{
						"POSITION":0,
						"NORMAL":1,
						"TEXCOORD_0":2
					},
					"indices":3,
					"material":0
				},
				{
					"attributes":{
						"POSITION":4,
						"NORMAL":5,
						"TEXCOORD_0":6
					},
					"indices":7,
					"material":1
				}
			]
		}
	],
	"accessors":[
		{
			"bufferView":0,
			"componentType":5126,
			"count":284,
			"max":[
				1,
				1,
				1.000000238418579
			],
			"min":[
				-19.009685516357422,
				-1,
				-1
			],
			"type":"VEC3"
		},
		{
			"bufferView":1,
			"componentType":5126,
			"count":284,
			"type":"VEC3"
		},
		{
			"bufferView":2,
			"componentType":5126,
			"count":284,
			"type":"VEC2"
		},
		{
			"bufferView":3,
			"componentType":5123,
			"count":780,
			"type":"SCALAR"
		},
		{
			"bufferView":4,
			"componentType":5126,
			"count":1104,
			"max":[
				-1.4272208213806152,
				0.6174838542938232,
				0.9350172281265259
			],
			"min":[
				-16.00238037109375,
				-0.7232434749603271,
				0.10116806626319885
			],
			"type":"VEC3"
		},
		{
			"bufferView":5,
			"componentType":5126,
			"count":1104,
			"type":"VEC3"
		},
		{
			"bufferView":6,
			"componentType":5126,
			"count":1104,
			"type":"VEC2"
		},
		{
			"bufferView":7,
			"componentType":5123,
			"count":2064,
			"type":"SCALAR"
		},
		{
			"bufferView":8,
			"componentType":5126,
			"count":2,
			"max":[
				4.166666666666667
			],
			"min":[
				0
			],
			"type":"SCALAR"
		},
		{
			"bufferView":9,
			"componentType":5126,
			"count":2,
			"type":"VEC3"
		},
		{
			"bufferView":10,
			"componentType":5126,
			"count":101,
			"max":[
				4.166666666666667
			],
			"min":[
				0
			],
			"type":"SCALAR"
		},
		{
			"bufferView":11,
			"componentType":5126,
			"count":101,
			"type":"VEC4"
		}
	],
	"bufferViews":[
		{
			"buffer":0,
			"byteLength":3408,
			"byteOffset":0,
			"target":34962
		},
		{
			"buffer":0,
			"byteLength":3408,
			"byteOffset":3408,
			"target":34962
		},
		{
			"buffer":0,
			"byteLength":2272,
			"byteOffset":6816,
			"target":34962
		},
		{
			"buffer":0,
			"byteLength":1560,
			"byteOffset":9088,
			"target":34963
		},
		{
			"buffer":0,
			"byteLength":13248,
			"byteOffset":10648,
			"target":34962
		},
		{
			"buffer":0,
			"byteLength":13248,
			"byteOffset":23896,
			"target":34962
		},
		{
			"buffer":0,
			"byteLength":8832,
			"byteOffset":37144,
			"target":34962
		},
		{
			"buffer":0,
			"byteLength":4128,
			"byteOffset":45976,
			"target":34963
		},
		{
			"buffer":0,
			"byteLength":8,
			"byteOffset":50104
		},
		{
			"buffer":0,
			"byteLength":24,
			"byteOffset":50112
		},
		{
			"buffer":0,
			"byteLength":404,
			"byteOffset":50136
		},
		{
			"buffer":0,
			"byteLength":1616,
			"byteOffset":50540
		}
	],
	"buffers":[
		{
			"byteLength":52156,
			"uri":"data:application/octet-stream;base64,"
		}
	]
}
