{
	"asset":{
		"generator":"Khronos glTF Blender I/O v3.6.27",
		"version":"2.0"
	},
	"scene":0,
	"scenes":[
		{
			"name":"Scene",
			"nodes":[
				0
			]
		}
	],
	"nodes":[
		{
			"mesh":0,
			"name":"\u0426\u0438\u043b\u0438\u043d\u0434\u0440",
			"rotation":[
				0.513947606086731,
				0,
				0,
				0.8578215837478638
			],
			"scale":[
				0.32609426975250244,
				4.9522552490234375,
				0.32609426975250244
			],
			"translation":[
				7.681217670440674,
				5.014180660247803,
				-12.858163833618164
			]
		}
	],
	"materials":[
		{
			"doubleSided":true,
			"name":"\u041c\u0430\u0442\u0435\u0440\u0438\u0430\u043b.019",
			"pbrMetallicRoughness":{
				"baseColorFactor":[
					0.2956917881965637,
					0.11645761132240295,
					0.19254137575626373,
					1
				],
				"metallicFactor":0,
				"roughnessFactor":0.5
			}
		},
		{
			"doubleSided":true,
			"name":"\u041c\u0430\u0442\u0435\u0440\u0438\u0430\u043b.020",
			"pbrMetallicRoughness":{
				"baseColorFactor":[
					0.11068826168775558,
					0.11068826168775558,
					0.11068826168775558,
					1
				],
				"metallicFactor":0,
				"roughnessFactor":0.5
			}
		},
		{
			"doubleSided":true,
			"name":"\u041c\u0430\u0442\u0435\u0440\u0438\u0430\u043b.021",
			"pbrMetallicRoughness":{
				"baseColorFactor":[
					0.3757483661174774,
					0.2614719867706299,
					0.0851527750492096,
					1
				],
				"metallicFactor":0,
				"roughnessFactor":0.5
			}
		},
		{
			"doubleSided":true,
			"name":"\u041c\u0430\u0442\u0435\u0440\u0438\u0430\u043b.022",
			"pbrMetallicRoughness":{
				"baseColorFactor":[
					0.8000000715255737,
					0.6517446637153625,
					0.3475492298603058,
					1
				],
				"metallicFactor":0,
				"roughnessFactor":0.5
			}
		},
		{
			"doubleSided":true,
			"name":"\u041c\u0430\u0442\u0435\u0440\u0438\u0430\u043b.023",
			"pbrMetallicRoughness":{
				"baseColorFactor":[
					0.03740963712334633,
					0.03740963712334633,
					0.03740963712334633,
					1
				],
				"metallicFactor":0,
				"roughnessFactor":0.5
			}
		}
	],
	"meshes":[
		{
			"name":"\u0426\u0438\u043b\u0438\u043d\u0434\u0440.003",
			"primitives":[
				{
					"attributes":{
						"POSITION":0,
						"NORMAL":1,
						"TEXCOORD_0":2
					},
					"indices":3,
					"material":0
				},
				{
					"attributes":{
						"POSITION":4,
						"NORMAL":5,
						"TEXCOORD_0":6
					},
					"indices":7,
					"material":1
				},
				{
					"attributes":{
						"POSITION":8,
						"NORMAL":9,
						"TEXCOORD_0":10
					},
					"indices":11,
					"material":2
				},
				{
					"attributes":{
						"POSITION":12,
						"NORMAL":13,
						"TEXCOORD_0":14
					},
					"indices":15,
					"material":3
				},
				{
					"attributes":{
						"POSITION":16,
						"NORMAL":17,
						"TEXCOORD_0":18
					},
					"indices":19,
					"material":4
				}
			]
		}
	],
	"accessors":[
		{
			"bufferView":0,
			"componentType":5126,
			"count":80,
			"max":[
				1.0000005960464478,
				-1.1338659524917603,
				1
			],
			"min":[
				-1.0000003576278687,
				-1.2018768787384033,
				-1
			],
			"type":"VEC3"
		},
		{
			"bufferView":1,
			"componentType":5126,
			"count":80,
			"type":"VEC3"
		},
		{
			"bufferView":2,
			"componentType":5126,
			"count":80,
			"type":"VEC2"
		},
		{
			"bufferView":3,
			"componentType":5123,
			"count":138,
			"type":"SCALAR"
		},
		{
			"bufferView":4,
			"componentType":5126,
			"count":64,
			"max":[
				1.0000005960464478,
				-1,
				1
			],
			"min":[
				-1,
				-1.1338659524917603,
				-1
			],
			"type":"VEC3"
		},
		{
			"bufferView":5,
			"componentType":5126,
			"count":64,
			"type":"VEC3"
		},
		{
			"bufferView":6,
			"componentType":5126,
			"count":64,
			"type":"VEC2"
		},
		{
			"bufferView":7,
			"componentType":5123,
			"count":96,
			"type":"SCALAR"
		},
		{
			"bufferView":8,
			"componentType":5126,
			"count":64,
			"max":[
				1,
				1,
				1
			],
			"min":[
				-1,
				-1,
				-1
			],
			"type":"VEC3"
		},
		{
			"bufferView":9,
			"componentType":5126,
			"count":64,
			"type":"VEC3"
		},
		{
			"bufferView":10,
			"componentType":5126,
			"count":64,
			"type":"VEC2"
		},
		{
			"bufferView":11,
			"componentType":5123,
			"count":96,
			"type":"SCALAR"
		},
		{
			"bufferView":12,
			"componentType":5126,
			"count":64,
			"max":[
				1,
				1.1676687002182007,
				1
			],
			"min":[
				-1,
				1,
				-1
			],
			"type":"VEC3"
		},
		{
			"bufferView":13,
			"componentType":5126,
			"count":64,
			"type":"VEC3"
		},
		{
			"bufferView":14,
			"componentType":5126,
			"count":64,
			"type":"VEC2"
		},
		{
			"bufferView":15,
			"componentType":5123,
			"count":96,
			"type":"SCALAR"
		},
		{
			"bufferView":16,
			"componentType":5126,
			"count":80,
			"max":[
				0.37199509143829346,
				1.279604196548462,
				0.37199652194976807
			],
			"min":[
				-0.3719980716705322,
				1.1676687002182007,
				-0.37199652194976807
			],
			"type":"VEC3"
		},
		{
			"bufferView":17,
			"componentType":5126,
			"count":80,
			"type":"VEC3"
		},
		{
			"bufferView":18,
			"componentType":5126,
			"count":80,
			"type":"VEC2"
		},
		{
			"bufferView":19,
			"componentType":5123,
			"count":138,
			"type":"SCALAR"
		}
	],
	"bufferViews":[
		{
			"buffer":0,
			"byteLength":960,
			"byteOffset":0,
			"target":34962
		},
		{
			"buffer":0,
			"byteLength":960,
			"byteOffset":960,
			"target":34962
		},
		{
			"buffer":0,
			"byteLength":640,
			"byteOffset":1920,
			"target":34962
		},
		{
			"buffer":0,
			"byteLength":276,
			"byteOffset":2560,
			"target":34963
		},
		{
			"buffer":0,
			"byteLength":768,
			"byteOffset":2836,
			"target":34962
		},
		{
			"buffer":0,
			"byteLength":768,
			"byteOffset":3604,
			"target":34962
		},
		{
			"buffer":0,
			"byteLength":512,
			"byteOffset":4372,
			"target":34962
		},
		{
			"buffer":0,
			"byteLength":192,
			"byteOffset":4884,
			"target":34963
		},
		{
			"buffer":0,
			"byteLength":768,
			"byteOffset":5076,
			"target":34962
		},
		{
			"buffer":0,
			"byteLength":768,
			"byteOffset":5844,
			"target":34962
		},
		{
			"buffer":0,
			"byteLength":512,
			"byteOffset":6612,
			"target":34962
		},
		{
			"buffer":0,
			"byteLength":192,
			"byteOffset":7124,
			"target":34963
		},
		{
			"buffer":0,
			"byteLength":768,
			"byteOffset":7316,
			"target":34962
		},
		{
			"buffer":0,
			"byteLength":768,
			"byteOffset":8084,
			"target":34962
		},
		{
			"buffer":0,
			"byteLength":512,
			"byteOffset":8852,
			"target":34962
		},
		{
			"buffer":0,
			"byteLength":192,
			"byteOffset":9364,
			"target":34963
		},
		{
			"buffer":0,
			"byteLength":960,
			"byteOffset":9556,
			"target":34962
		},
		{
			"buffer":0,
			"byteLength":960,
			"byteOffset":10516,
			"target":34962
		},
		{
			"buffer":0,
			"byteLength":640,
			"byteOffset":11476,
			"target":34962
		},
		{
			"buffer":0,
			"byteLength":276,
			"byteOffset":12116,
			"target":34963
		}
	],
	"buffers":[
		{
			"byteLength":12392,
			"uri":"data:application/octet-stream;base64,"
		}
	]
}
