{
	"asset":{
		"generator":"Khronos glTF Blender I/O v3.6.27",
		"version":"2.0"
	},
	"scene":0,
	"scenes":[
		{
			"name":"Scene",
			"nodes":[
				0
			]
		}
	],
	"nodes":[
		{
			"mesh":0,
			"name":"right_duga",
			"rotation":[
				0.5,
				-0.5,
				0.5,
				0.5
			],
			"scale":[
				0.11781197041273117,
				0.1128043532371521,
				0.09620154649019241
			],
			"translation":[
				0,
				3.731166124343872,
				-1.436245322227478
			]
		}
	],
	"materials":[
		{
			"doubleSided":true,
			"name":"\u041c\u0430\u0442\u0435\u0440\u0438\u0430\u043b.024",
			"pbrMetallicRoughness":{
				"baseColorFactor":[
					0.018848532810807228,
					0.018848532810807228,
					0.018848532810807228,
					1
				],
				"metallicFactor":0,
				"roughnessFactor":0.5
			}
		},
		{
			"doubleSided":true,
			"name":"\u041c\u0430\u0442\u0435\u0440\u0438\u0430\u043b.025",
			"pbrMetallicRoughness":{
				"baseColorFactor":[
					0.1315346211194992,
					0.2641602158546448,
					0.35884007811546326,
					1
				],
				"metallicFactor":0,
				"roughnessFactor":0.5
			}
		}
	],
	"meshes":[
		{
			"name":"right_duga.001",
			"primitives":[
				{
					"attributes":{
						"POSITION":0,
						"NORMAL":1,
						"TEXCOORD_0":2
					},
					"indices":3,
					"material":0
				},
				{
					"attributes":{
						"POSITION":4,
						"NORMAL":5,
						"TEXCOORD_0":6
					},
					"indices":7,
					"material":1
				}
			]
		}
	],
	"accessors":[
		{
			"bufferView":0,
			"componentType":5126,
			"count":1546,
			"max":[
				-0.7866318225860596,
				77.29007720947266,
				24.43718719482422
			],
			"min":[
				-174.6376190185547,
				-77.3232192993164,
				-24.17096710205078
			],
			"type":"VEC3"
		},
		{
			"bufferView":1,
			"componentType":5126,
			"count":1546,
			"type":"VEC3"
		},
		{
			"bufferView":2,
			"componentType":5126,
			"count":1546,
			"type":"VEC2"
		},
		{
			"bufferView":3,
			"componentType":5123,
			"count":4410,
			"type":"SCALAR"
		},
		{
			"bufferView":4,
			"componentType":5126,
			"count":32,
			"max":[
				-3.7170443534851074,
				65.64540100097656,
				22.901256561279297
			],
			"min":[
				-17.877138137817383,
				-65.98678588867188,
				-21.899398803710938
			],
			"type":"VEC3"
		},
		{
			"bufferView":5,
			"componentType":5126,
			"count":32,
			"type":"VEC3"
		},
		{
			"bufferView":6,
			"componentType":5126,
			"count":32,
			"type":"VEC2"
		},
		{
			"bufferView":7,
			"componentType":5123,
			"count":84,
			"type":"SCALAR"
		}
	],
	"bufferViews":[
		{
			"buffer":0,
			"byteLength":18552,
			"byteOffset":0,
			"target":34962
		},
		{
			"buffer":0,
			"byteLength":18552,
			"byteOffset":18552,
			"target":34962
		},
		{
			"buffer":0,
			"byteLength":12368,
			"byteOffset":37104,
			"target":34962
		},
		{
			"buffer":0,
			"byteLength":8820,
			"byteOffset":49472,
			"target":34963
		},
		{
			"buffer":0,
			"byteLength":384,
			"byteOffset":58292,
			"target":34962
		},
		{
			"buffer":0,
			"byteLength":384,
			"byteOffset":58676,
			"target":34962
		},
		{
			"buffer":0,
			"byteLength":256,
			"byteOffset":59060,
			"target":34962
		},
		{
			"buffer":0,
			"byteLength":168,
			"byteOffset":59316,
			"target":34963
		}
	],
	"buffers":[
		{
			"byteLength":59484,
			"uri":"data:application/octet-stream;base64,"
		}
	]
}
