{
	"asset":{
		"generator":"Khronos glTF Blender I/O v3.6.27",
		"version":"2.0"
	},
	"scene":0,
	"scenes":[
		{
			"name":"Scene",
			"nodes":[
				0,
				1,
				2
			]
		}
	],
	"nodes":[
		{
			"mesh":0,
			"name":"Caliper_Fix",
			"scale":[
				0.12784799933433533,
				0.12784799933433533,
				0.12784799933433533
			]
		},
		{
			"mesh":1,
			"name":"\u041a\u0443\u0431",
			"scale":[
				0.27230507135391235,
				0.27230507135391235,
				0.27230507135391235
			],
			"translation":[
				18.805522918701172,
				-0.07266153395175934,
				-1.0795509815216064
			]
		},
		{
			"mesh":2,
			"name":"\u0426\u0438\u043b\u0438\u043d\u0434\u0440",
			"translation":[
				1.0020167827606201,
				0,
				6.04596471786499
			]
		}
	],
	"animations":[
		{
			"channels":[
				{
					"sampler":0,
					"target":{
						"node":1,
						"path":"translation"
					}
				}
			],
			"name":"\u041a\u0443\u0431Action.002",
			"samplers":[
				{
					"input":11,
					"interpolation":"LINEAR",
					"output":12
				}
			]
		},
		{
			"channels":[
				{
					"sampler":0,
					"target":{
						"node":2,
						"path":"translation"
					}
				}
			],
			"name":"\u0426\u0438\u043b\u0438\u043d\u0434\u0440Action.001",
			"samplers":[
				{
					"input":11,
					"interpolation":"LINEAR",
					"output":13
				}
			]
		}
	],
	"materials":[
		{
			"doubleSided":true,
			"name":"\u041c\u0430\u0442\u0435\u0440\u0438\u0430\u043b.009",
			"pbrMetallicRoughness":{
				"baseColorFactor":[
					0.3263751268386841,
					0.3263751268386841,
					0.3263751268386841,
					1
				],
				"metallicFactor":0,
				"roughnessFactor":0.5
			}
		},
		{
			"doubleSided":true,
			"name":"\u041c\u0430\u0442\u0435\u0440\u0438\u0430\u043b.004",
			"pbrMetallicRoughness":{
				"baseColorFactor":[
					0.16264168918132782,
					0.16264168918132782,
					0.16264168918132782,
					1
				],
				"metallicFactor":0,
				"roughnessFactor":0.5
			}
		},
		{
			"doubleSided":true,
			"name":"\u041c\u0430\u0442\u0435\u0440\u0438\u0430\u043b.022",
			"pbrMetallicRoughness":{
				"baseColorFactor":[
					0.8000000715255737,
					0.6116887331008911,
					0.13394087553024292,
					1
				],
				"metallicFactor":0,
				"roughnessFactor":0.5
			}
		}
	],
	"meshes":[
		{
			"name":"Caliper_Fix",
			"primitives":[
				{
					"attributes":{
						"POSITION":0,
						"NORMAL":1
					},
					"indices":2,
					"material":0
				}
			]
		},
		{
			"name":"\u041a\u0443\u0431.049",
			"primitives":[
				{
					"attributes":{
						"POSITION":3,
						"NORMAL":4,
						"TEXCOORD_0":5
					},
					"indices":6,
					"material":1
				}
			]
		},
		{
			"name":"\u0426\u0438\u043b\u0438\u043d\u0434\u0440.015",
			"primitives":[
				{
					"attributes":{
						"POSITION":7,
						"NORMAL":8,
						"TEXCOORD_0":9
					},
					"indices":10,
					"material":2
				}
			]
		}
	],
	"accessors":[
		{
			"bufferView":0,
			"componentType":5126,
			"count":188,
			"max":[
				151.5,
				3,
				40
			],
			"min":[
				-12.5,
				-2.220446049250313e-16,
				-40
			],
			"type":"VEC3"
		},
		{
			"bufferView":1,
			"componentType":5126,
			"count":188,
			"type":"VEC3"
		},
		{
			"bufferView":2,
			"componentType":5123,
			"count":366,
			"type":"SCALAR"
		},
		{
			"bufferView":3,
			"componentType":5126,
			"count":354,
			"max":[
				1,
				1.9893922805786133,
				22.744604110717773
			],
			"min":[
				-74.92928314208984,
				-1.0623760223388672,
				-14.815622329711914
			],
			"type":"VEC3"
		},
		{
			"bufferView":4,
			"componentType":5126,
			"count":354,
			"type":"VEC3"
		},
		{
			"bufferView":5,
			"componentType":5126,
			"count":354,
			"type":"VEC2"
		},
		{
			"bufferView":6,
			"componentType":5123,
			"count":696,
			"type":"SCALAR"
		},
		{
			"bufferView":7,
			"componentType":5126,
			"count":130,
			"max":[
				1,
				1,
				1
			],
			"min":[
				-1,
				-1,
				-1
			],
			"type":"VEC3"
		},
		{
			"bufferView":8,
			"componentType":5126,
			"count":130,
			"type":"VEC3"
		},
		{
			"bufferView":9,
			"componentType":5126,
			"count":130,
			"type":"VEC2"
		},
		{
			"bufferView":10,
			"componentType":5123,
			"count":372,
			"type":"SCALAR"
		},
		{
			"bufferView":11,
			"componentType":5126,
			"count":101,
			"max":[
				4.166666666666667
			],
			"min":[
				0
			],
			"type":"SCALAR"
		},
		{
			"bufferView":12,
			"componentType":5126,
			"count":101,
			"type":"VEC3"
		},
		{
			"bufferView":13,
			"componentType":5126,
			"count":101,
			"type":"VEC3"
		}
	],
	"bufferViews":[
		{
			"buffer":0,
			"byteLength":2256,
			"byteOffset":0,
			"target":34962
		},
		{
			"buffer":0,
			"byteLength":2256,
			"byteOffset":2256,
			"target":34962
		},
		{
			"buffer":0,
			"byteLength":732,
			"byteOffset":4512,
			"target":34963
		},
		{
			"buffer":0,
			"byteLength":4248,
			"byteOffset":5244,
			"target":34962
		},
		{
			"buffer":0,
			"byteLength":4248,
			"byteOffset":9492,
			"target":34962
		},
		{
			"buffer":0,
			"byteLength":2832,
			"byteOffset":13740,
			"target":34962
		},
		{
			"buffer":0,
			"byteLength":1392,
			"byteOffset":16572,
			"target":34963
		},
		{
			"buffer":0,
			"byteLength":1560,
			"byteOffset":17964,
			"target":34962
		},
		{
			"buffer":0,
			"byteLength":1560,
			"byteOffset":19524,
			"target":34962
		},
		{
			"buffer":0,
			"byteLength":1040,
			"byteOffset":21084,
			"target":34962
		},
		{
			"buffer":0,
			"byteLength":744,
			"byteOffset":22124,
			"target":34963
		},
		{
			"buffer":0,
			"byteLength":404,
			"byteOffset":22868
		},
		{
			"buffer":0,
			"byteLength":1212,
			"byteOffset":23272
		},
		{
			"buffer":0,
			"byteLength":1212,
			"byteOffset":24484
		}
	],
	"buffers":[
		{
			"byteLength":25696,
			"uri":"data:application/octet-stream;base64,"
		}
	]
}
